<svg id="Capa_1" data-name="Capa 1" xmlns="http://www.w3.org/2000/svg" viewBox="0 0 215 215"><defs><style>.cls-1{fill:#01c7d0;}.cls-2{fill:#fff;}</style></defs><path class="cls-1" d="M202.86,64.87c.64,42.31,0,90,0,130,0,8.44-32.55,20.48-67,19.16-60.53-2.33-124-56.85-124-122.94,0-52.23,33.31-90.22,39-90.22,10.21,0,38.72.2,84.26.2C195.12,1.07,202.86,64.87,202.86,64.87Z"/><path class="cls-2" d="M108.5,99.39A13.62,13.62,0,1,0,122.11,113,13.62,13.62,0,0,0,108.5,99.39Zm0,20.42a6.81,6.81,0,1,1,6.81-6.81A6.82,6.82,0,0,1,108.5,119.81Z"/><path class="cls-2" d="M150.39,123.15l-8.82-6.75a31.45,31.45,0,0,0,0-6.79l8.82-6.75a3.41,3.41,0,0,0,.86-4.43L142.71,84a3.39,3.39,0,0,0-4.17-1.44l-10.46,4.12A32.57,32.57,0,0,0,122,83.19L120.4,72.36A3.4,3.4,0,0,0,117,69.44H100a3.4,3.4,0,0,0-3.37,2.92L95,83.19a32.57,32.57,0,0,0-6.11,3.46L78.46,82.53A3.4,3.4,0,0,0,74.29,84L65.75,98.43a3.41,3.41,0,0,0,.86,4.43l8.82,6.75a31.45,31.45,0,0,0,0,6.79l-8.82,6.75a3.41,3.41,0,0,0-.86,4.43L74.29,142a3.4,3.4,0,0,0,4.17,1.44l10.46-4.12A32.57,32.57,0,0,0,95,142.82l1.57,10.83a3.4,3.4,0,0,0,3.37,2.91H117a3.4,3.4,0,0,0,3.37-2.91L122,142.82a32.57,32.57,0,0,0,6.11-3.46l10.46,4.12a3.4,3.4,0,0,0,4.17-1.44l8.54-14.46A3.41,3.41,0,0,0,150.39,123.15Zm-12.06,12.93-9.54-3.75a3.41,3.41,0,0,0-3.39.52,26.26,26.26,0,0,1-7.68,4.34,3.4,3.4,0,0,0-2.2,2.71l-1.43,9.86H102.91l-1.43-9.86a3.4,3.4,0,0,0-2.2-2.71,26.26,26.26,0,0,1-7.68-4.34,3.41,3.41,0,0,0-3.39-.52l-9.54,3.75-5.52-9.36,8-6.12a3.41,3.41,0,0,0,1.28-3.28,25.51,25.51,0,0,1,0-8.63,3.4,3.4,0,0,0-1.28-3.28l-8-6.12,5.52-9.36,9.54,3.75a3.41,3.41,0,0,0,3.39-.52,26.26,26.26,0,0,1,7.68-4.34,3.4,3.4,0,0,0,2.2-2.71l1.43-9.86h11.18l1.43,9.86a3.4,3.4,0,0,0,2.2,2.71,26.26,26.26,0,0,1,7.68,4.34,3.41,3.41,0,0,0,3.39.52l9.54-3.75,5.52,9.36-8,6.12a3.4,3.4,0,0,0-1.28,3.28,25.51,25.51,0,0,1,0,8.63,3.41,3.41,0,0,0,1.28,3.28l8,6.12Z"/></svg>