<svg id="Capa_1" data-name="Capa 1" xmlns="http://www.w3.org/2000/svg" viewBox="0 0 600 600"><title>accidente</title><path d="M428.91,351.56H376.17V316.19a134.73,134.73,0,0,0,58.6-111.11V87.89A88,88,0,0,0,346.88,0H194.53a76.17,76.17,0,0,0-29.3,146.48v58.6a134.73,134.73,0,0,0,58.6,111.11v35.37H171.09A111.45,111.45,0,0,0,59.77,462.89V582.42A17.58,17.58,0,0,0,77.34,600H522.66a17.58,17.58,0,0,0,17.57-17.58V462.89A111.45,111.45,0,0,0,428.91,351.56ZM194.53,35.16H346.88a52.79,52.79,0,0,1,52.73,52.73v28.94a101.72,101.72,0,0,1-63.74-29.65,17.58,17.58,0,0,0-24.86,0,101.79,101.79,0,0,1-72.45,30h-44a40.4,40.4,0,0,1-8.13-.82l-.14,0a41,41,0,0,1,8.27-81.19Zm5.86,169.92V152.34h38.17a136.6,136.6,0,0,0,84.88-29.26,136.34,136.34,0,0,0,76.17,29v53a99.61,99.61,0,0,1-199.22,0ZM300,339.84a134.08,134.08,0,0,0,41-6.39v35.69a17.58,17.58,0,0,0,17.57,17.58h70.32a76.26,76.26,0,0,1,76.17,76.17v53.74l-58.6-34.26V462.89a17.56,17.56,0,0,0-35.1-1L258.65,372.56a18.36,18.36,0,0,0,.34-3.42V333.45a134,134,0,0,0,41,6.39ZM94.92,462.89a76.28,76.28,0,0,1,68.56-75.79l84.14,95.71H235.55a58.56,58.56,0,0,0-53.69,82H94.92Zm117.19,78.52A23.46,23.46,0,0,1,235.55,518h43l41.21,46.87H235.55A23.46,23.46,0,0,1,212.11,541.41Zm154.44,23.43L210,386.72h3.26L505.08,557.35v7.49Z"/></svg>