<svg id="Layer_1" enable-background="new 0 0 510.005 510.005" height="512" viewBox="0 0 510.005 510.005" width="512" xmlns="http://www.w3.org/2000/svg"><g><path d="m462.546 165.003c-10.315-43.822-34.416-83.717-68.739-113.392-79.658-68.87-198.106-68.737-277.609 0-34.323 29.674-58.424 69.569-68.739 113.392-29.509.466-51.632 27.089-46.792 56.134l3.929 23.573c3.848 23.08 23.441 39.901 46.754 40.28l12.185 65.326c17.259 92.525 97.783 159.681 191.469 159.681s174.21-67.155 191.469-159.681l12.185-65.326c23.313-.379 42.906-17.2 46.754-40.281l3.929-23.572c4.847-29.105-17.353-55.669-46.795-56.134zm17.2 51.202-3.929 23.571c-1.47 8.819-9.026 15.221-17.966 15.221h-24.119l-16.754 89.818c-14.61 78.33-82.732 135.182-161.977 135.182s-147.365-56.852-161.975-135.181l-16.754-89.819h-24.119c-8.939 0-16.496-6.401-17.966-15.22l-3.929-23.572c-.895-5.369.55-10.613 4.068-14.767 3.519-4.154 8.454-6.441 13.897-6.441h24.107l2.151-12.444c15.286-88.396 91.206-152.556 180.52-152.556s165.234 64.159 180.52 152.556l2.151 12.444h24.105c5.443 0 10.38 2.288 13.898 6.441 3.522 4.154 4.966 9.398 4.071 14.767z"/><path d="m294.961 183.78-9.959 11.217-10.021 11.162c1.582 1.42 30.653 26.929 74.771 26.929 13.912 0 29.329-2.54 45.841-9.172l-11.182-27.838c-51.165 20.548-87.912-10.947-89.45-12.298z"/><path d="m235.023 206.159-20.041-22.324c-.371.333-37.649 33.023-89.389 12.243l-11.182 27.838c16.517 6.634 31.926 9.172 45.841 9.172 44.111 0 73.19-25.509 74.771-26.929z"/><path d="m255.002 329.997c-33.084 0-60 26.916-60 60h30c0-16.542 13.458-30 30-30s30 13.458 30 30h30c0-33.084-26.916-60-60-60z"/><path d="m315.002 104.997h30v30h-30z"/><path d="m255.002 59.997h30v30h-30z"/><path d="m180.002 104.997h30v30h-30z"/><path d="m135.002 269.997h30v30h-30z"/><path d="m345.002 314.997h30v30h-30z"/><path d="m270.002 269.997h30v30h-30z"/></g></svg>