<svg id="Capa_1" data-name="Capa 1" xmlns="http://www.w3.org/2000/svg" viewBox="0 0 602.35 600"><title>actividad_fisica1</title><path d="M566.33,76.4A52.94,52.94,0,0,0,498.47,108l-22.13,60.8-52.65-19.16a82.35,82.35,0,1,0-126.92-46.2l-3.18-1.16A124.33,124.33,0,0,0,238,95.6l-82.38,9a52.94,52.94,0,0,0-44,34.52L86.34,208.43a52.94,52.94,0,0,0,99.5,36.21l12.85-35.3,38.92-3.74L167.3,398.77H98.48a52.94,52.94,0,1,0,0,105.88H204.37a52.94,52.94,0,0,0,49.75-34.83l18.11-49.76,44.22,16.1L282.67,529a52.94,52.94,0,0,0,99.5,36.22l51.88-142.55a52.93,52.93,0,0,0-31.64-67.85l-27.64-10.06L407,256.27l82.92,30.17a52.93,52.93,0,0,0,67.85-31.64L598,144.25A52.94,52.94,0,0,0,566.33,76.4Zm-190-41.11A47.06,47.06,0,1,1,329.3,82.35,47.11,47.11,0,0,1,376.36,35.29ZM564.8,132.18,524.57,242.73A17.65,17.65,0,0,1,502,253.28l-99.5-36.22a17.65,17.65,0,0,0-22.62,10.55L335.57,349.22a17.65,17.65,0,0,0,10.55,22.62l44.22,16.09a17.64,17.64,0,0,1,10.54,22.62L349,553.09A17.65,17.65,0,1,1,315.84,541l39.81-109.37A17.65,17.65,0,0,0,345.1,409l-77.38-28.17a17.65,17.65,0,0,0-22.62,10.55L221,457.74a17.64,17.64,0,0,1-16.58,11.62H98.48a17.65,17.65,0,1,1,0-35.3h81.18a17.66,17.66,0,0,0,16.58-11.61l84.09-231a17.65,17.65,0,0,0-18.27-23.61l-77.84,7.48a17.64,17.64,0,0,0-14.89,11.53l-16.66,45.77A17.65,17.65,0,1,1,119.5,220.5l25.24-69.35a17.67,17.67,0,0,1,14.68-11.51l82.38-9a88.72,88.72,0,0,1,39.72,4.81L480.85,208a17.65,17.65,0,0,0,22.62-10.55l28.17-77.39a17.65,17.65,0,0,1,33.16,12.08Z" transform="translate(1.18)"/><path d="M130.59,347.06a17.65,17.65,0,0,0-17.65-17.65H16.47a17.65,17.65,0,1,0,0,35.3h96.47A17.65,17.65,0,0,0,130.59,347.06Z" transform="translate(1.18)"/><path d="M16.47,294.12H54.12a17.65,17.65,0,0,0,0-35.3H16.47a17.65,17.65,0,0,0,0,35.3Z" transform="translate(1.18)"/></svg>