<svg id="Capa_1" data-name="Capa 1" xmlns="http://www.w3.org/2000/svg" viewBox="0 0 600 600"><path d="M300,594.5A294.5,294.5,0,0,1,91.76,91.76,294.5,294.5,0,1,1,508.24,508.24,292.54,292.54,0,0,1,300,594.5Zm0-573C146.43,21.5,21.5,146.43,21.5,300S146.43,578.5,300,578.5,578.5,453.57,578.5,300,453.57,21.5,300,21.5Z"/><path d="M478,150.56a35.38,35.38,0,0,0-45.35,21.14l-14.79,40.64-35.18-12.81a55,55,0,1,0-84.83-30.87l-2.13-.77a83,83,0,0,0-37.16-4.5l-55.05,6a35.38,35.38,0,0,0-29.43,23.07L157.21,238.8A35.38,35.38,0,1,0,223.7,263l8.59-23.59,26-2.5-47,129.1h-46a35.38,35.38,0,1,0,0,70.76h70.77a35.39,35.39,0,0,0,33.25-23.28l12.1-33.25L311,391l-22.57,62a35.38,35.38,0,1,0,66.5,24.21L389.59,382a35.38,35.38,0,0,0-21.15-45.35L350,329.88l21.52-59.11,55.41,20.17a35.38,35.38,0,0,0,45.35-21.15l26.89-73.88A35.37,35.37,0,0,0,478,150.56ZM351,123.09a31.45,31.45,0,1,1-31.45,31.45A31.49,31.49,0,0,1,351,123.09Zm126,64.75-26.89,73.89a11.79,11.79,0,0,1-15.12,7l-66.5-24.2a11.8,11.8,0,0,0-15.12,7.05L323.77,332.9A11.8,11.8,0,0,0,330.82,348l29.56,10.76a11.79,11.79,0,0,1,7,15.12l-34.67,95.26a11.79,11.79,0,1,1-22.16-8.07l26.6-73.1a11.78,11.78,0,0,0-7.05-15.11L278.42,354a11.78,11.78,0,0,0-15.11,7l-16.14,44.34a11.79,11.79,0,0,1-11.08,7.76H165.31a11.8,11.8,0,0,1,0-23.59h54.26a11.78,11.78,0,0,0,11.08-7.76l56.21-154.42a11.8,11.8,0,0,0-12.21-15.78l-52,5a11.79,11.79,0,0,0-10,7.71l-11.13,30.58a11.79,11.79,0,0,1-22.17-8.06l16.87-46.35a11.79,11.79,0,0,1,9.81-7.69l55.05-6a59.34,59.34,0,0,1,26.55,3.21l133.22,48.49a11.78,11.78,0,0,0,15.11-7l18.83-51.72A11.8,11.8,0,0,1,477,187.84Z"/><path d="M186.78,331.45A11.79,11.79,0,0,0,175,319.66H110.51a11.79,11.79,0,1,0,0,23.58H175A11.79,11.79,0,0,0,186.78,331.45Z"/><path d="M110.51,296.07h25.16a11.8,11.8,0,0,0,0-23.59H110.51a11.8,11.8,0,1,0,0,23.59Z"/></svg>