<svg id="Capa_1" data-name="Capa 1" xmlns="http://www.w3.org/2000/svg" viewBox="0 0 600 600"><title>adicional</title><path d="M300,594.5A294.5,294.5,0,0,1,91.76,91.76,294.5,294.5,0,1,1,508.24,508.24,292.54,292.54,0,0,1,300,594.5Zm0-573C146.43,21.5,21.5,146.43,21.5,300S146.43,578.5,300,578.5,578.5,453.57,578.5,300,453.57,21.5,300,21.5Z"/><path d="M426.26,173.74A178.72,178.72,0,0,0,215,142.92l-9.68-16.35a10.45,10.45,0,0,0-9-5.13h-.05a10.47,10.47,0,0,0-9,5.22L154.85,182.6c-3.48,6-6.68,13-6.5,23.11a178.57,178.57,0,1,0,277.91-32ZM173,193.09l23.44-40.48,23.5,39.71c2.67,4.51,3.69,7.77,3.77,12.06a27.2,27.2,0,0,1-54.4,1C169.19,201,170.09,198.05,173,193.09Zm238.5,218.37A157.68,157.68,0,0,1,157.32,232.87,48.11,48.11,0,0,0,196.44,253h.9a48.18,48.18,0,0,0,47.25-49c-.15-7.88-2.21-14.76-6.68-22.33l-12.27-20.72A157.66,157.66,0,0,1,411.46,411.46Z"/><path d="M300,354.43a58.92,58.92,0,0,0-51.51,31.07,10.46,10.46,0,1,0,18.36,10,37.32,37.32,0,0,1,66.37.14,10.46,10.46,0,0,0,18.4-10A58.89,58.89,0,0,0,300,354.43Z"/><path d="M252.21,296.55a10.46,10.46,0,1,0,20.92,0,36,36,0,1,0-72,0,10.47,10.47,0,1,0,20.93,0,15.1,15.1,0,1,1,30.19,0Z"/><path d="M362.9,260.53a36.06,36.06,0,0,0-36,36,10.46,10.46,0,1,0,20.92,0,15.1,15.1,0,1,1,30.19,0,10.47,10.47,0,1,0,20.93,0,36.06,36.06,0,0,0-36-36Z"/></svg>