<?xml version="1.0" encoding="utf-8"?>
<!-- Generator: Adobe Illustrator 24.0.2, SVG Export Plug-In . SVG Version: 6.00 Build 0)  -->
<svg version="1.1" id="Capa_1" xmlns="http://www.w3.org/2000/svg" xmlns:xlink="http://www.w3.org/1999/xlink" x="0px" y="0px"
	 viewBox="0 0 600 600" style="enable-background:new 0 0 600 600;" xml:space="preserve">
<g>
	<path d="M440.62,141.81h35.16c9.71,0,17.58-7.87,17.58-17.58V96.36l5.15,5.15c6.86,6.86,17.99,6.86,24.86,0
		c6.86-6.86,6.86-17.99,0-24.86l-35.16-35.16c-5.03-5.03-12.59-6.53-19.16-3.81c-6.57,2.72-10.85,9.13-10.85,16.24v52.73h-17.58
		c-9.71,0-17.58,7.87-17.58,17.58S430.91,141.81,440.62,141.81L440.62,141.81z"/>
	<path d="M17.59,317.58h36.33c9.71,0,17.58-7.87,17.58-17.58v-27.87l5.15,5.15c6.86,6.86,17.99,6.86,24.86,0
		c6.86-6.86,6.86-17.99,0-24.86l-35.16-35.16c-5.03-5.03-12.59-6.53-19.16-3.81c-6.57,2.72-10.85,9.13-10.85,16.24v52.73H17.59
		c-9.71,0-17.58,7.87-17.58,17.58S7.88,317.58,17.59,317.58z"/>
	<path d="M582.41,176.96h-17.58v-17.58c0-9.71-7.87-17.58-17.58-17.58s-17.58,7.87-17.58,17.58v17.58H512.1
		c-9.71,0-17.58,7.87-17.58,17.58c0,9.71,7.87,17.58,17.58,17.58h17.58v17.58c0,9.71,7.87,17.58,17.58,17.58s17.58-7.87,17.58-17.58
		v-17.58h17.58c9.71,0,17.58-7.87,17.58-17.58C599.99,184.83,592.12,176.96,582.41,176.96L582.41,176.96z"/>
	<path d="M89.07,352.74c-9.71,0-17.58,7.87-17.58,17.58v17.58H53.91c-9.71,0-17.58,7.87-17.58,17.58s7.87,17.58,17.58,17.58h17.58
		v17.58c0,9.71,7.87,17.58,17.58,17.58s17.58-7.87,17.58-17.58v-17.58h17.58c9.71,0,17.58-7.87,17.58-17.58s-7.87-17.58-17.58-17.58
		h-17.58v-17.58C106.65,360.61,98.78,352.74,89.07,352.74z"/>
	<path d="M582.41,564.84H455.17c6.53-18.55,2.39-40.05-12.42-54.86c-66.99-66.99-88.74-145.45-90.02-148.2v-68.66
		c34.67,15.03,60.66,45.13,70.02,82.52l1.89,7.51c7.08,28.24,35.61,45.39,63.98,38.3c28.26-7.08,45.4-35.7,38.3-63.97l-1.87-7.49
		c-25.48-101.88-116.61-173.04-221.62-173.04c-0.61,0-1.22-0.03-1.83-0.04c38.03-0.86,68.71-32.04,68.71-70.27
		c0-38.77-31.54-70.31-70.31-70.31s-70.31,31.54-70.31,70.31c0,34.97,25.66,64.04,59.14,69.41c-52.1-6.26-95.51-45.5-105.98-97.85
		l-6.92-35.78c-5.74-28.71-33.78-47.17-62.02-41.38C85.18,6.78,66.83,34.69,72.5,62.99l6.92,35.8
		c17.67,88.4,85.22,155.43,167.85,176.45v61c-30.18,16.95-55.64,41.21-74.06,70.69c-20.55,32.88-31.41,70.82-31.41,109.71v30.63
		c0,6.16,1.07,12.08,3.02,17.58H17.59c-9.71,0-17.58,7.87-17.58,17.58c0,9.71,7.87,17.58,17.58,17.58h564.83
		c9.71,0,17.58-7.87,17.58-17.58C599.99,572.71,592.12,564.84,582.41,564.84L582.41,564.84z M264.84,106.65
		c0-19.38,15.77-35.16,35.16-35.16c19.38,0,35.16,15.77,35.16,35.16s-15.77,35.16-35.16,35.16
		C280.62,141.81,264.84,126.04,264.84,106.65z M244.24,564.84c1.95-5.5,3.02-11.42,3.02-17.58v-30.63
		c0-25.69,9.84-50.17,27.03-68.71c19.99,43.32,45.65,83.05,75.44,116.92L244.24,564.84L244.24,564.84z M417.89,559.69
		c-6.87,6.87-17.98,6.87-24.85,0c-39.74-39.74-72.87-90.66-95.82-147.27c-2.01-4.95-6.15-8.72-11.27-10.24
		c-1.65-0.49-3.34-0.73-5.02-0.73c-3.54,0-7.05,1.07-10.02,3.14c-36.82,25.55-58.8,67.44-58.8,112.05v30.63
		c0,9.69-7.89,17.58-17.58,17.58c-9.69,0-17.58-7.89-17.58-17.58v-30.63c0-65.91,36.66-124.93,95.66-154.04
		c6-2.96,9.8-9.07,9.8-15.76v-85.71c0-8.46-6.03-15.72-14.34-17.28C191.15,229.43,129.18,168.37,113.91,92l-6.92-35.8
		c-1.87-9.37,4.06-18.73,13.88-20.68c9.51-1.95,18.72,4.49,20.56,13.71l6.92,35.78c14.73,73.66,79.95,127.11,155.08,127.11
		c88.84,0,165.95,60.21,187.51,146.41c0,0,1.88,7.5,1.88,7.51c2.34,9.31-3.25,18.93-12.74,21.31c-9.6,2.4-19.01-3.43-21.35-12.75
		l-1.88-7.5c-14.42-57.64-59.53-101.83-117.73-115.32c-5.22-1.21-10.71,0.03-14.91,3.36c-4.2,3.33-6.64,8.4-6.64,13.76v95.72
		c0,1.89,0.3,3.76,0.9,5.55c2.15,4.67,24.34,89.59,99.42,164.66C424.77,541.71,424.77,552.82,417.89,559.69L417.89,559.69z"/>
</g>
</svg>
