<?xml version="1.0" encoding="utf-8"?>
<!-- Generator: Adobe Illustrator 24.0.2, SVG Export Plug-In . SVG Version: 6.00 Build 0)  -->
<svg version="1.1" id="Capa_1" xmlns="http://www.w3.org/2000/svg" xmlns:xlink="http://www.w3.org/1999/xlink" x="0px" y="0px"
	 viewBox="0 0 600 600" style="enable-background:new 0 0 600 600;" xml:space="preserve">
<g>
	<path d="M300,594.5c-78.66,0-152.62-30.63-208.24-86.26C36.13,452.62,5.5,378.66,5.5,300c0-78.66,30.63-152.62,86.26-208.24
		C147.38,36.13,221.34,5.5,300,5.5c78.66,0,152.62,30.63,208.24,86.26C563.87,147.38,594.5,221.34,594.5,300
		c0,78.66-30.63,152.62-86.26,208.24C452.62,563.87,378.66,594.5,300,594.5z M300,21.5C146.43,21.5,21.5,146.43,21.5,300
		S146.43,578.5,300,578.5S578.5,453.57,578.5,300S453.57,21.5,300,21.5z"/>
</g>
<path d="M393.75,141.22h-187.5c-10.19,0-18.21,8.63-17.54,18.74l18.75,282.42c0.61,9.24,8.28,16.41,17.54,16.41h150
	c9.26,0,16.93-7.18,17.54-16.41l18.75-282.42C411.96,149.84,403.93,141.22,393.75,141.22L393.75,141.22z M374.97,176.37l-5.13,77.32
	c-18.11-0.28-35.61-5.71-50.71-15.77c-21.3-14.2-46.08-21.7-71.68-21.7h-19.77l-2.64-39.84L374.97,176.37z M241.45,423.64
	l-11.44-172.27h17.44c18.63,0,36.67,5.46,52.18,15.8c20.24,13.49,43.63,20.93,67.88,21.63l-8.95,134.83L241.45,423.64z"/>
</svg>
