<svg id="Capa_1" data-name="Capa 1" xmlns="http://www.w3.org/2000/svg" viewBox="0 0 600 600"><title>agua_2</title><path d="M393.75,141.22H206.25A17.58,17.58,0,0,0,188.71,160l18.75,282.42A17.56,17.56,0,0,0,225,458.78H375a17.57,17.57,0,0,0,17.54-16.4L411.29,160a17.58,17.58,0,0,0-17.54-18.74ZM375,176.37l-5.13,77.32a93.78,93.78,0,0,1-50.71-15.76,128.73,128.73,0,0,0-71.68-21.71H227.68L225,176.38ZM241.45,423.64,230,251.37h17.44a93.75,93.75,0,0,1,52.18,15.79,128.74,128.74,0,0,0,67.88,21.63l-8.95,134.84Z"/></svg>