<?xml version="1.0" encoding="utf-8"?>
<!-- Generator: Adobe Illustrator 24.0.2, SVG Export Plug-In . SVG Version: 6.00 Build 0)  -->
<svg version="1.1" id="Capa_1" xmlns="http://www.w3.org/2000/svg" xmlns:xlink="http://www.w3.org/1999/xlink" x="0px" y="0px"
	 viewBox="0 0 600 600" style="enable-background:new 0 0 600 600;" xml:space="preserve">
<g>
	<path d="M297.38,183.53l-30.04-25.74c-14.2-12.17-23.79-28.54-27.6-46.49c9.39-0.36,16.9-8.07,16.9-17.54V17.58
		c0-9.71-7.87-17.58-17.58-17.58H107.81C98.1,0,90.23,7.87,90.23,17.58v76.17c0,9.48,7.51,17.18,16.9,17.54
		c-3.81,17.95-13.4,34.32-27.6,46.49L49.5,183.53c-3.9,3.34-6.14,8.21-6.14,13.35v159.38c0,3.8,1.23,7.5,3.52,10.55
		c11.9,15.87,11.9,38.04,0,53.91c-2.28,3.04-3.52,6.74-3.52,10.55v151.17c0,9.71,7.87,17.58,17.58,17.58h225
		c9.71,0,17.58-7.87,17.58-17.58V431.25c0-3.8-1.23-7.5-3.52-10.55c-11.9-15.87-11.9-38.04,0-53.91c2.28-3.04,3.52-6.74,3.52-10.55
		V196.88C303.52,191.74,301.27,186.87,297.38,183.53z M142.85,111.33h61.18c3.82,25.78,16,49.65,34.81,67.97h-130.8
		C126.84,160.98,139.02,137.11,142.85,111.33z M85.41,364.45h176.05c-6.12,15.7-7.13,32.99-3.01,49.22H88.42
		C92.54,397.45,91.53,380.16,85.41,364.45z M268.36,214.45V329.3H78.52V214.45H268.36z M78.52,448.83h189.84v39.84H78.52V448.83z
		 M125.39,35.16h96.09v41.02c-14.83,0-73.38,0-96.09,0V35.16z M78.52,564.84v-41.02h189.84v41.02H78.52z"/>
	<path d="M539.06,282.42h-187.5c-10.19,0-18.21,8.63-17.54,18.74l18.75,282.42c0.61,9.24,8.28,16.41,17.54,16.41h150
		c9.26,0,16.93-7.18,17.54-16.41l18.75-282.42C557.27,291.04,549.24,282.42,539.06,282.42L539.06,282.42z M520.28,317.58
		l-5.13,77.32c-18.11-0.28-35.61-5.71-50.71-15.77c-21.3-14.2-46.08-21.7-71.68-21.7h-19.77l-2.64-39.84L520.28,317.58z
		 M386.76,564.84l-11.44-172.27h17.44c18.63,0,36.67,5.46,52.18,15.8c20.24,13.49,43.63,20.93,67.88,21.63l-8.95,134.83
		L386.76,564.84z"/>
</g>
</svg>
