<svg id="Capa_1" data-name="Capa 1" xmlns="http://www.w3.org/2000/svg" viewBox="0 0 600 600"><title>alcohol</title><path d="M300,458.14a17.54,17.54,0,0,1-14.46-7.59L98.11,178.78a17.57,17.57,0,0,1,14.46-27.55H487.43a17.57,17.57,0,0,1,14.46,27.55L314.46,450.55A17.54,17.54,0,0,1,300,458.14ZM146,186.37,300,409.62,454,186.37Z"/><path d="M300,599.89a17.57,17.57,0,0,1-17.57-17.57V440.57a17.57,17.57,0,1,1,35.14,0V582.32A17.57,17.57,0,0,1,300,599.89Z"/><path d="M431.2,599.89H168.8a17.58,17.58,0,0,1,0-35.15H431.2a17.58,17.58,0,0,1,0,35.15Z"/><path d="M300,336.32a17.37,17.37,0,0,1-7.82-1.85,17.56,17.56,0,0,1-7.9-23.56L434.21,9.85a17.57,17.57,0,0,1,31.46,15.67L315.73,326.58A17.57,17.57,0,0,1,300,336.32Z"/><path d="M410.67,297.65a17.55,17.55,0,0,1-9.73-2.95L374.6,277.14a33,33,0,0,0-36.74,0,68.08,68.08,0,0,1-75.72,0,33,33,0,0,0-36.74,0L199.06,294.7a17.57,17.57,0,1,1-19.49-29.24l26.34-17.56a68,68,0,0,1,75.72,0,33,33,0,0,0,36.74,0,68,68,0,0,1,75.72,0l26.34,17.56a17.57,17.57,0,0,1-9.76,32.19Z"/></svg>