<svg id="Capa_1" data-name="Capa 1" xmlns="http://www.w3.org/2000/svg" viewBox="0 0 600 600"><title>alergias</title><path d="M300,594.5A294.5,294.5,0,0,1,91.76,91.76,294.5,294.5,0,1,1,508.24,508.24,292.54,292.54,0,0,1,300,594.5Zm0-573C146.43,21.5,21.5,146.43,21.5,300S146.43,578.5,300,578.5,578.5,453.57,578.5,300,453.57,21.5,300,21.5Z"/><path d="M424.2,325.14a10.45,10.45,0,0,0-.52-10.73l-40.1-60.15a114,114,0,0,0-9.24-42.11A73.15,73.15,0,0,0,404.53,153V132.05a10.46,10.46,0,0,0-20.91,0,10.47,10.47,0,0,1-10.45,10.46H247.73a115,115,0,0,0-87.81,189.21c23.25,27.49,35.56,58.12,35.56,88.59v47.63a10.45,10.45,0,0,0,10.44,10.46H310.45A10.45,10.45,0,0,0,320.91,468V446.34c0-5.94,4.88-11.15,10.45-11.15h41.81a10.45,10.45,0,0,0,10.45-10.45V393.38a10.45,10.45,0,0,0-10.45-10.45h-20.9a10.46,10.46,0,1,1,0-20.91h20.9a10.45,10.45,0,0,0,10.45-10.45V330.66H415a10.45,10.45,0,0,0,9.22-5.52Zm-248.32-6.93a94.08,94.08,0,0,1,71.85-154.8H373.17a31.06,31.06,0,0,0,9.69-1.53,52.35,52.35,0,0,1-51.5,43.35H300a31.39,31.39,0,0,0-31.36,31.36v11.77a41.83,41.83,0,0,0-52.26,40.49c0,11.74,8.94,24.58,16.44,33.29,12.23,14.18,11.92,35.56-.16,50.33h-24.8C201.09,353.61,190.35,335.32,175.88,318.21Zm197.29-8.45a10.45,10.45,0,0,0-10.45,10.45v20.91H352.27a31.36,31.36,0,1,0,0,62.71h10.45v10.46H331.36c-17.33,0-31.36,14.7-31.36,32v11.15H216.38V420.32a137.66,137.66,0,0,0-2.69-26.94h23.59a10.45,10.45,0,0,0,7.39-3.06c22.44-22.44,24.19-58.39,4-81.83-9-10.44-11.38-17.41-11.38-19.64a20.91,20.91,0,0,1,34.84-15.59,10.45,10.45,0,0,0,17.43-7.78V236.59A10.47,10.47,0,0,1,300,226.13h31.36a72.61,72.61,0,0,0,24.41-4.19,93.47,93.47,0,0,1,7,35.55,10.51,10.51,0,0,0,1.75,5.8l31,46.47Z"/><circle cx="456.8" cy="362.02" r="10.45"/><circle cx="456.8" cy="403.83" r="10.45"/><circle cx="414.98" cy="382.93" r="10.45"/></svg>