<svg id="Capa_1" data-name="Capa 1" xmlns="http://www.w3.org/2000/svg" viewBox="0 0 215 215"><defs><style>.cls-1{fill:#430b56;}.cls-2{fill:#fff;}</style></defs><path class="cls-1" d="M202.86,64.87c.64,42.31,0,90,0,130,0,8.44-32.55,20.48-67,19.16-60.53-2.33-124-56.85-124-122.94,0-52.23,33.31-90.22,39-90.22,10.21,0,38.72.2,84.26.2C195.12,1.07,202.86,64.87,202.86,64.87Z"/><path class="cls-2" d="M105.5,69a43,43,0,1,0,43,43A43,43,0,0,0,105.5,69Zm29.93,22.48a92.28,92.28,0,0,1-11.26,2.24,102.64,102.64,0,0,0-2.85-14.39A36.68,36.68,0,0,1,135.43,91.48ZM97.62,76.57a37,37,0,0,1,15.76,0,84.07,84.07,0,0,1,4.12,17.9,145.68,145.68,0,0,1-24,0A84.07,84.07,0,0,1,97.62,76.57ZM72.21,126.48a36.56,36.56,0,0,1,0-29,99.83,99.83,0,0,0,13.93,2.89,150.7,150.7,0,0,0,0,23.18A99.83,99.83,0,0,0,72.21,126.48Zm3.36,6a92.28,92.28,0,0,1,11.26-2.24,102.64,102.64,0,0,0,2.85,14.39A36.59,36.59,0,0,1,75.57,132.52Zm11.26-38.8a92.28,92.28,0,0,1-11.26-2.24A36.68,36.68,0,0,1,89.68,79.33,102.64,102.64,0,0,0,86.83,93.72Zm26.55,53.71a37,37,0,0,1-15.76,0,84.07,84.07,0,0,1-4.12-17.9,145.68,145.68,0,0,1,24,0A84.07,84.07,0,0,1,113.38,147.43Zm4.8-24.58a150.17,150.17,0,0,0-25.36,0,144.2,144.2,0,0,1,0-21.7,150.16,150.16,0,0,0,25.36,0A144.2,144.2,0,0,1,118.18,122.85Zm3.14,21.82a102.64,102.64,0,0,0,2.85-14.39,92.28,92.28,0,0,1,11.26,2.24A36.68,36.68,0,0,1,121.32,144.67Zm3.54-21.08a150.7,150.7,0,0,0,0-23.18,99.83,99.83,0,0,0,13.93-2.89,36.56,36.56,0,0,1,0,29A99.83,99.83,0,0,0,124.86,123.59Z"/></svg>