<svg id="Capa_1" enable-background="new 0 0 512 512" height="512" viewBox="0 0 512 512" width="512" xmlns="http://www.w3.org/2000/svg"><g><path d="m226 241h60v30h-60z"/><path d="m437 392h-91c-8.271 0-15-6.729-15-15v-38.806c36.154-24.248 60-65.487 60-112.194v-15c33.084 0 60-26.916 60-60s-26.916-60-60-60v-91h-270v91c-33.084 0-60 26.916-60 60s26.916 60 60 60v15c0 46.708 23.846 87.947 60 112.194v38.806c0 8.271-6.729 15-15 15h-91c-41.355 0-75 33.645-75 75v45h512v-45c0-41.355-33.645-75-75-75zm-286-166v-45h-30c-16.542 0-30-13.458-30-30s13.458-30 30-30h30v-91h210v91h30c16.542 0 30 13.458 30 30s-13.458 30-30 30h-30v45c0 52.805-39.184 96.623-90 103.924v-28.924h-30v28.924c-50.816-7.301-90-51.119-90-103.924zm331 256h-331v-30h-30v30h-91v-15c0-24.813 20.187-45 45-45h91c24.813 0 45-20.187 45-45v-23.722c14.082 4.994 29.227 7.722 45 7.722s30.918-2.728 45-7.722v23.722c0 24.813 20.187 45 45 45h76v30h30v-27.42c17.459 6.192 30 22.865 30 42.42z"/><path d="m271 121h60v30h-60z"/><path d="m181 121h60v30h-60z"/><path d="m301 181h30v30h-30z"/><path d="m181 61h30v30h-30z"/><path d="m301 61h30v30h-30z"/><path d="m181 181h30v30h-30z"/><path d="m241 422h30v30h-30z"/></g></svg>