<?xml version="1.0" encoding="utf-8"?>
<!-- Generator: Adobe Illustrator 24.0.2, SVG Export Plug-In . SVG Version: 6.00 Build 0)  -->
<svg version="1.1" id="Capa_1" xmlns="http://www.w3.org/2000/svg" xmlns:xlink="http://www.w3.org/1999/xlink" x="0px" y="0px"
	 viewBox="0 0 600 600" style="enable-background:new 0 0 600 600;" xml:space="preserve">
<g>
	<path d="M577.94,495.92h-28.66V242.05c0-41.63-33.87-75.51-75.5-75.51c-24.73,0-44.73,7.26-57.93,20.01
		c-11.54-11.15-28.31-18.1-48.88-19.67c2.67-7.47,4.14-15.51,4.14-23.88c0-33.42-23.18-61.51-54.3-69.09
		c2.84-17.63,11.56-31.35,26.44-42.06c7.88-5.67,9.67-16.65,4-24.53c-5.67-7.88-16.65-9.68-24.53-4
		c-17.68,12.72-29.96,29.06-36.5,48.56c-2.37,7.07-3.98,14.58-4.83,22.49c-30.35,8.23-52.51,36.07-52.51,68.64
		c0,8.38,1.47,16.41,4.14,23.88c-20.57,1.56-37.34,8.51-48.88,19.67c-13.19-12.75-33.2-20.01-57.93-20.01
		c-41.63,0-75.5,33.87-75.5,75.51v253.87H22.06c-9.71,0-17.58,7.87-17.58,17.58s7.87,17.58,17.58,17.58h260.36v33.77h-95.81
		c-9.71,0-17.58,7.87-17.58,17.58S176.9,600,186.61,600h226.78c9.71,0,17.58-7.87,17.58-17.58s-7.87-17.58-17.58-17.58h-95.81
		v-33.77h260.36c9.71,0,17.58-7.87,17.58-17.58S587.65,495.92,577.94,495.92z M282.59,111.54c0.27,1.76,0.56,3.53,0.89,5.31
		c1.56,8.47,8.95,14.39,17.27,14.39c1.06,0,2.13-0.1,3.21-0.29c9.02-1.66,15.15-9.94,14.31-18.91
		c10.58,6.27,17.69,17.79,17.69,30.95c0,19.83-16.13,35.96-35.96,35.96c-19.83,0-35.96-16.13-35.96-35.96
		C264.04,129.55,271.51,117.71,282.59,111.54L282.59,111.54z M85.87,242.05c0-22.25,18.1-40.35,40.35-40.35
		c18.41,0,40.35,4.94,40.35,28.48c0,9.71,7.87,17.58,17.58,17.58c9.71,0,17.58-7.87,17.58-17.58c0-23.54,21.94-28.48,40.35-28.48
		s40.35,4.94,40.35,28.48c0,9.71,7.87,17.58,17.58,17.58s17.58-7.87,17.58-17.58c0-23.54,21.94-28.48,40.35-28.48
		c18.41,0,40.35,4.94,40.35,28.48c0,9.71,7.87,17.58,17.58,17.58s17.58-7.87,17.58-17.58c0-23.54,21.94-28.48,40.35-28.48
		c22.25,0,40.35,18.1,40.35,40.35v32.42c0,27.18-22.11,49.29-49.29,49.29H271.11c-9.71,0-17.58,7.87-17.58,17.58v65.26
		c0,9.98-8.12,18.11-18.11,18.11c-9.98,0-18.11-8.12-18.11-18.11v-65.26c0-9.71-7.87-17.58-17.58-17.58h-64.58
		c-27.18,0-49.29-22.11-49.29-49.29L85.87,242.05L85.87,242.05z M85.87,342.97c13.88,10.02,30.91,15.94,49.29,15.94h47v47.68
		c0,29.37,23.89,53.26,53.26,53.26s53.26-23.89,53.26-53.26v-47.68h176.14c18.39,0,35.41-5.93,49.29-15.94v152.94H85.87
		L85.87,342.97z"/>
</g>
</svg>
