<svg id="Capa_1" enable-background="new 0 0 512 512" height="512" viewBox="0 0 512 512" width="512" xmlns="http://www.w3.org/2000/svg"><g><path d="m437.02 74.98c-48.353-48.351-112.64-74.98-181.02-74.98s-132.667 26.629-181.02 74.98c-48.351 48.353-74.98 112.64-74.98 181.02s26.629 132.667 74.98 181.02c48.353 48.351 112.64 74.98 181.02 74.98s132.667-26.629 181.02-74.98c48.351-48.353 74.98-112.64 74.98-181.02s-26.629-132.667-74.98-181.02zm-21.214 340.826c-42.686 42.686-99.439 66.194-159.806 66.194s-117.12-23.508-159.806-66.194-66.194-99.439-66.194-159.806 23.508-117.12 66.194-159.806 99.439-66.194 159.806-66.194 117.12 23.508 159.806 66.194 66.194 99.439 66.194 159.806-23.508 117.12-66.194 159.806z"/><path d="m174.006 198c27.647 0 50.14-22.493 50.14-50.141s-22.493-50.141-50.14-50.141h-6.213l-43.927 43.928v6.213c-.001 27.648 22.492 50.141 50.14 50.141zm5.461-69.529c8.46 2.387 14.679 10.175 14.679 19.389 0 11.105-9.035 20.141-20.14 20.141-9.214 0-17.002-6.219-19.389-14.68z"/><path d="m337.994 198c27.647 0 50.141-22.493 50.141-50.141v-6.213l-43.928-43.928h-6.213c-27.647 0-50.141 22.493-50.141 50.141s22.494 50.141 50.141 50.141zm-5.461-69.529 24.85 24.85c-2.387 8.461-10.175 14.68-19.389 14.68-11.105 0-20.141-9.035-20.141-20.141.001-9.214 6.219-17.003 14.68-19.389z"/><path d="m330.66 312.9-.229.179c-9.908 7.73-27.288 7.732-37.241-.036l-.195-.153c-20.776-16.217-53.332-16.216-74.147.028l-.206.161c-9.906 7.733-27.288 7.732-37.218-.019l-.218-.171c-20.779-16.217-53.333-16.216-74.147.028l-.121.095 18.53 23.594.084-.066c9.907-7.733 27.288-7.733 37.159-.028l.277.216c10.394 8.112 23.729 12.167 37.064 12.166 13.326 0 26.65-4.05 37.024-12.147l.264-.206c9.908-7.732 27.29-7.732 37.137-.047l.3.234c20.778 16.219 53.332 16.218 74.112.001l.24-.188c9.907-7.731 27.289-7.733 37.137-.047l.347.271 18.365-23.721-.195-.153c-20.776-16.217-53.33-16.216-74.123.009z"/></g></svg>