<svg id="Capa_1" enable-background="new 0 0 512 512" height="512" viewBox="0 0 512 512" width="512" xmlns="http://www.w3.org/2000/svg"><path d="m362.564 112.405c-5.708 1.343-10.111 5.895-11.271 11.642-4.212 20.886-19.753 71.114-47.034 96.333-1.564-30.828-7.937-60.009-19.034-87.043-11.479-27.967-27.985-53.638-49.06-76.299-36.754-39.521-74.031-55.73-74.397-55.883-5.336-2.224-11.478-1.182-15.784 2.679-4.305 3.861-6.007 9.853-4.376 15.4.28.946 27.245 95.629-27.608 168.766-36.156 48.208-52.997 89.194-53 128.989 0 107.529 87.477 195.011 195 195.011s195-87.477 195-195c0-103.951-70.172-195.368-73.16-199.209-3.6-4.628-9.567-6.726-15.276-5.386zm-181.564 294.591c.001-14.577 7.197-31.258 22-50.996 17.154-22.873 21.634-48.241 21.755-68.126 16.389 15.282 34.582 41.802 32.965 83.545-.192 4.968 2.089 9.709 6.093 12.658 4.003 2.949 9.206 3.722 13.895 2.065 17.997-6.361 29.808-23.184 37.222-38.941 8.011 15.946 16.07 37.525 16.07 59.799 0 41.355-33.645 75-75 75s-75-33.647-75-75.004zm169.89 44.913c6.476-13.624 10.11-28.848 10.11-44.909 0-54.52-36.602-102.206-38.16-104.209-3.597-4.625-9.561-6.719-15.265-5.383-5.705 1.337-10.111 5.885-11.279 11.627-.023.114-2.375 11.513-7.772 23.65-1.004 2.259-2.046 4.39-3.117 6.383-12.881-69.752-72.943-95.625-73.638-95.914-5.352-2.229-11.516-1.203-15.822 2.68-4.305 3.882-5.996 9.871-4.331 15.424.126.431 12.3 43.52-12.617 76.743-18.84 25.121-27.999 47.688-28 68.995 0 16.063 3.636 31.288 10.112 44.913-42.376-29.897-70.111-79.228-70.111-134.919.002-32.52 15.376-68.825 47-110.99 26.495-35.327 40.5-80.28 40.5-130 0-11.564-.75-22.128-1.795-31.233 11.313 7.973 24.951 19.066 38.337 33.613 18.391 19.986 32.767 42.555 42.73 67.081 12.459 30.668 18.063 64.636 16.657 100.959-.192 4.968 2.09 9.709 6.093 12.657s9.207 3.723 13.895 2.065c27.53-9.731 50.491-35.171 68.245-75.613 3.56-8.11 6.533-15.995 8.971-23.156 19.806 32.679 49.367 91.952 49.367 154.627 0 55.687-27.733 105.014-70.11 134.909z"/><circle cx="441" cy="30" r="15"/><circle cx="331" cy="30" r="15"/><circle cx="71" cy="92" r="15"/></svg>