<?xml version="1.0" encoding="iso-8859-1"?>
<!-- Generator: Adobe Illustrator 19.0.0, SVG Export Plug-In . SVG Version: 6.00 Build 0)  -->
<svg version="1.1" id="Layer_1" xmlns="http://www.w3.org/2000/svg" xmlns:xlink="http://www.w3.org/1999/xlink" x="0px" y="0px"
	 viewBox="0 0 512 512" style="enable-background:new 0 0 512 512;" xml:space="preserve">
<g>
	<g>
		<path d="M256,0C114.84,0,0,114.842,0,256s114.84,256,256,256s256-114.842,256-256S397.16,0,256,0z M256,474.537
			c-120.501,0-218.537-98.036-218.537-218.537S135.499,37.463,256,37.463S474.537,135.499,474.537,256S376.501,474.537,256,474.537z
			"/>
	</g>
</g>
<g>
	<g>
		<path d="M172.492,119.584c-26.843,34.333-61.415,63.106-99.979,83.206l17.316,33.223c43.273-22.554,82.064-54.836,112.178-93.355
			L172.492,119.584z"/>
	</g>
</g>
<g>
	<g>
		<path d="M339.51,119.584l-29.515,23.074c30.113,38.519,68.904,70.8,112.177,93.355l17.316-33.223
			C400.923,182.69,366.352,153.917,339.51,119.584z"/>
	</g>
</g>
<g>
	<g>
		<path d="M205.895,224.732c-12.87-11.263-25.538-20.781-26.071-21.181l-22.481,29.969c16.391,12.302,32.892,26.834,40.012,34.967
			c-7.121,8.133-23.622,22.665-40.01,34.966l22.478,29.971c0.533-0.4,13.201-9.918,26.071-21.181
			c26.124-22.86,31.373-33.69,31.373-43.756C237.268,258.421,232.02,247.592,205.895,224.732z"/>
	</g>
</g>
<g>
	<g>
		<path d="M314.644,268.488c7.121-8.133,23.621-22.665,40.01-34.966l-22.478-29.971c-0.533,0.4-13.201,9.918-26.071,21.181
			c-26.124,22.86-31.373,33.69-31.373,43.756c0,10.066,5.249,20.896,31.373,43.756c12.87,11.263,25.538,20.781,26.071,21.181
			l22.481-29.969C338.265,291.153,321.765,276.621,314.644,268.488z"/>
	</g>
</g>
<g>
	<g>
		<path d="M256,337.171c-17.361,0-33.521,4.95-46.734,14.315c-15.074,10.685-26.328,26.799-33.452,47.894l35.495,11.986
			c8.346-24.717,22.965-36.732,44.691-36.732c21.795,0,36.804,12.276,44.61,36.488l35.656-11.497
			C323.469,359.933,294.214,337.171,256,337.171z"/>
	</g>
</g>
<g>
</g>
<g>
</g>
<g>
</g>
<g>
</g>
<g>
</g>
<g>
</g>
<g>
</g>
<g>
</g>
<g>
</g>
<g>
</g>
<g>
</g>
<g>
</g>
<g>
</g>
<g>
</g>
<g>
</g>
</svg>
