<?xml version="1.0" encoding="utf-8"?>
<!-- Generator: Adobe Illustrator 24.0.2, SVG Export Plug-In . SVG Version: 6.00 Build 0)  -->
<svg version="1.1" id="Capa_1" xmlns="http://www.w3.org/2000/svg" xmlns:xlink="http://www.w3.org/1999/xlink" x="0px" y="0px"
	 viewBox="0 0 600 600" style="enable-background:new 0 0 600 600;" xml:space="preserve">
<g>
	<g>
		<path d="M574.06,276.77H82.19l81.48-81.09c9.09-9.05,9.13-23.75,0.08-32.85c-9.05-9.09-23.76-9.13-32.85-0.08L9.54,283.54
			c-0.01,0.01-0.01,0.02-0.02,0.02c-9.07,9.05-9.1,23.8,0,32.88c0.01,0.01,0.01,0.02,0.02,0.02L130.9,437.24
			c9.09,9.05,23.8,9.02,32.85-0.08c9.05-9.09,9.01-23.8-0.08-32.85l-81.48-81.09h491.87c12.83,0,23.23-10.4,23.23-23.23
			S586.89,276.77,574.06,276.77z"/>
	</g>
</g>
</svg>
