<?xml version="1.0" encoding="iso-8859-1"?>
<!-- Generator: Adobe Illustrator 19.0.0, SVG Export Plug-In . SVG Version: 6.00 Build 0)  -->
<svg version="1.1" id="Capa_1" xmlns="http://www.w3.org/2000/svg" xmlns:xlink="http://www.w3.org/1999/xlink" x="0px" y="0px"
	 viewBox="0 0 512 512" style="enable-background:new 0 0 512 512;" xml:space="preserve">
<g>
	<g>
		<g>
			<path d="M387.568,97.168l12.912-27.552C410.669,47.82,415.966,24.06,416,0h-32c-0.03,19.353-4.289,38.466-12.48,56l-13.44,28.656
				l-0.848,2.208c-11.903,39.662-10.9,82.08,2.864,121.136H151.904c13.76-39.051,14.763-81.463,2.864-121.12L140.48,56
				C132.289,38.466,128.03,19.353,128,0H96c0.034,24.06,5.331,47.82,15.52,69.616l12.912,27.552
				c11.72,39.814,7.877,82.593-10.752,119.68C83.582,283.107,66.706,354.604,64,427.328V512h32v-84.672
				c0.846-32.501,5.137-64.82,12.8-96.416l99.2,61.952V512h32V400h32v112h32V392.864l99.2-61.952
				c7.663,31.596,11.954,63.915,12.8,96.416V512h32v-84.672c-2.681-72.719-19.529-144.216-49.6-210.48
				C379.744,179.771,375.872,136.992,387.568,97.168z M283.424,368h-54.848l-111.328-69.584c5.58-19.938,12.557-39.458,20.88-58.416
				h235.744c8.296,18.96,15.246,38.48,20.8,58.416L283.424,368z"/>
			<rect x="240" y="144" width="32" height="32"/>
			<polygon points="53.888,160 104,160 104,128 53.888,128 69.312,104.88 42.688,87.12 4.768,144 42.688,200.88 69.312,183.12 			
				"/>
			<polygon points="469.312,87.12 442.688,104.88 458.112,128 408,128 408,160 458.112,160 442.688,183.12 469.312,200.88 
				507.232,144 			"/>
		</g>
	</g>
</g>
<g>
</g>
<g>
</g>
<g>
</g>
<g>
</g>
<g>
</g>
<g>
</g>
<g>
</g>
<g>
</g>
<g>
</g>
<g>
</g>
<g>
</g>
<g>
</g>
<g>
</g>
<g>
</g>
<g>
</g>
</svg>
