<svg id="Capa_1" data-name="Capa 1" xmlns="http://www.w3.org/2000/svg" viewBox="0 0 600 600"><defs><style>.cls-1{fill:#ff8e00;}.cls-2{fill:#fff;}</style></defs><circle class="cls-1" cx="300" cy="300" r="300"/><path class="cls-2" d="M524.5,291.26c-45-79.3-129-132.12-224.5-132.12S120.48,211.94,75.5,291.26a17.74,17.74,0,0,0,0,17.48c45,79.3,129,132.12,224.5,132.12s179.52-52.8,224.5-132.12A17.74,17.74,0,0,0,524.5,291.26ZM300,405.43c-78.91,0-148.57-41.84-188.45-105.43C151.42,236.43,221.06,194.57,300,194.57S448.57,236.41,488.45,300C448.58,363.57,378.94,405.43,300,405.43Z"/><path class="cls-2" d="M300,238a62,62,0,1,0,62,62A62.09,62.09,0,0,0,300,238Zm0,88.6A26.58,26.58,0,1,1,326.58,300,26.61,26.61,0,0,1,300,326.58Z"/></svg>