<svg id="Capa_1" data-name="Capa 1" xmlns="http://www.w3.org/2000/svg" viewBox="0 0 600 600"><defs><style>.cls-1{fill:#ff171e;}.cls-2{fill:#fff;}</style></defs><circle class="cls-1" cx="300" cy="300" r="300"/><path class="cls-2" d="M300,84A216,216,0,1,0,516,300,215.88,215.88,0,0,0,300,84Zm0,398.25A182.25,182.25,0,1,1,482.25,300,182.15,182.15,0,0,1,300,482.25Z"/><path class="cls-2" d="M300,192.74a16.87,16.87,0,0,0-16.88,16.87V318.28a16.88,16.88,0,0,0,33.76,0V209.61A16.87,16.87,0,0,0,300,192.74Z"/><circle class="cls-2" cx="300" cy="378.6" r="22.78"/></svg>