<svg id="Capa_1" data-name="Capa 1" xmlns="http://www.w3.org/2000/svg" viewBox="0 0 600 600"><title>blando</title><path d="M519.55,381a92.83,92.83,0,0,0-68.93-155.08h-.33c1.53-1.43,3-2.89,4.49-4.4a129.8,129.8,0,0,0,37-91C491.74,58.56,433.18,0,361.2,0a17.58,17.58,0,1,0,0,35.16,29.49,29.49,0,1,1,0,59H238.81a83.41,83.41,0,0,0-68,131.8H149.38A92.83,92.83,0,0,0,80.45,381a111.72,111.72,0,0,0,31.27,219H488.28a111.72,111.72,0,0,0,31.27-219ZM190.49,177.62a48.37,48.37,0,0,1,48.32-48.32H361.2a64.72,64.72,0,0,0,64.64-64.65c0-1.45,0-2.89-.14-4.32a95.33,95.33,0,0,1-61.62,165.53h-.26l-.77,0h-.33c-.51,0-1,0-1.52,0H238.81A48.38,48.38,0,0,1,190.49,177.62Zm-41.11,83.47H450.62a57.74,57.74,0,0,1,0,115.48H149.38a57.74,57.74,0,1,1,0-115.48Zm338.9,303.75H111.72a76.56,76.56,0,0,1,0-153.12H488.28a76.56,76.56,0,1,1,0,153.12Z"/></svg>