<svg id="Capa_1" data-name="Capa 1" xmlns="http://www.w3.org/2000/svg" viewBox="0 0 215 215"><defs><style>.cls-1{fill:#556032;}.cls-2{fill:#fff;}</style></defs><path class="cls-1" d="M202.86,64.87c.64,42.31,0,90,0,130,0,8.44-32.55,20.48-67,19.16-60.53-2.33-124-56.85-124-122.94,0-52.23,33.31-90.22,39-90.22,10.21,0,38.72.2,84.26.2C195.12,1.07,202.86,64.87,202.86,64.87Z"/><path class="cls-2" d="M143,79.75a16.24,16.24,0,0,0-23,0L73.7,126.08a3,3,0,0,0-.86,2V147a2.93,2.93,0,0,0,2.93,2.93H94.59a3,3,0,0,0,2.07-.86L143,102.71A16.25,16.25,0,0,0,143,79.75Zm-64.3,64.3v-8.83l8.83,8.83Zm15.9-1.22L79.91,128.15l36.56-36.56,5.27,5.27-19.65,19.65a2.93,2.93,0,1,0,4.14,4.14L125.88,101l5.27,5.27Zm44.27-44.26-3.57,3.57L120.6,87.45l3.57-3.56a10.38,10.38,0,1,1,14.69,14.68Z"/></svg>