<?xml version="1.0" encoding="utf-8"?>
<!-- Generator: Adobe Illustrator 24.0.2, SVG Export Plug-In . SVG Version: 6.00 Build 0)  -->
<svg version="1.1" id="Capa_1" xmlns="http://www.w3.org/2000/svg" xmlns:xlink="http://www.w3.org/1999/xlink" x="0px" y="0px"
	 viewBox="0 0 600 600" style="enable-background:new 0 0 600 600;" xml:space="preserve">
<g>
	<g>
		<g>
			<path d="M264.23,0C118.54,0,0,118.54,0,264.23c0,145.7,118.54,264.23,264.23,264.23c145.7,0,264.23-118.53,264.23-264.23
				C528.45,118.54,409.93,0,264.23,0z M264.23,479.68c-118.8,0-215.45-96.65-215.45-215.45S145.43,48.78,264.23,48.78
				s215.45,96.65,215.45,215.45S383.02,479.68,264.23,479.68z"/>
		</g>
	</g>
	<g>
		<g>
			<path d="M592.85,558.37L453.02,418.53c-9.53-9.53-24.96-9.53-34.49,0c-9.53,9.52-9.53,24.97,0,34.49l139.84,139.84
				c4.76,4.76,11,7.15,17.24,7.15c6.24,0,12.48-2.38,17.24-7.15C602.38,583.33,602.38,567.89,592.85,558.37z"/>
		</g>
	</g>
</g>
</svg>
