<?xml version="1.0" encoding="utf-8"?>
<!-- Generator: Adobe Illustrator 24.0.2, SVG Export Plug-In . SVG Version: 6.00 Build 0)  -->
<svg version="1.1" id="Capa_1" xmlns="http://www.w3.org/2000/svg" xmlns:xlink="http://www.w3.org/1999/xlink" x="0px" y="0px"
	 viewBox="0 0 600 600" style="enable-background:new 0 0 600 600;" xml:space="preserve">
<g>
	<path d="M508.52,505.72L384.48,381.67c-6.72-6.66-10.42-15.59-10.42-25.16V279.5l56.31,56.31c21.57,21.6,56.62,21.43,78.15,0.01
		c21.56-21.56,21.57-56.54-0.01-78.12l-99.7-99.66c-15.48-15.46-33.66-27.22-53.46-34.85c11.63-13.08,18.71-30.29,18.71-49.13
		C374.06,33.23,340.84,0,300,0s-74.06,33.23-74.06,74.06c0,18.89,7.12,36.15,18.81,49.25c-19.98,7.69-38.35,19.48-53.57,34.74
		l-99.69,99.66c-21.57,21.56-21.57,56.55,0,78.12c21.48,21.48,56.53,21.61,78.16-0.02l56.3-56.35v77.84
		c0,22.6-3.65,44.87-10.86,66.25l-5.21,15.66l-91.15,58.33c-24.83,15.9-32.78,48.44-18.11,74.08c0.28,0.5,0.6,0.98,0.93,1.45
		c15.9,26.24,50.27,34.47,76.33,18.25l111.29-69.25c2.09-1.3,3.88-3.03,5.26-5.06c0,0,27.93-41.23,27.93-41.23l108.04,108.08
		c21.53,21.53,56.59,21.55,78.14,0C530.08,562.29,530.1,527.31,508.52,505.72L508.52,505.72z M383.97,182.91l99.7,99.66
		c7.98,7.98,7.65,20.75,0.03,28.36c-7.88,7.84-20.64,7.86-28.46,0.03l-81.17-81.19v-42.76c0-4.75-0.44-9.44-1.31-14
		C376.66,176.05,380.41,179.35,383.97,182.91z M300,35.16c21.45,0,38.91,17.45,38.91,38.91s-17.45,38.91-38.91,38.91
		s-38.91-17.45-38.91-38.91S278.55,35.16,300,35.16z M144.76,310.97c-7.83,7.83-20.59,7.84-28.42,0
		c-7.68-7.68-7.95-20.44-0.01-28.39l99.72-99.68c17.47-17.51,40.31-29.1,64.61-33.16c-3.79,20.26-13.58,38.9-28.48,53.78
		L144.76,310.97z M320.76,415.46l-53.36,78.73l-108.11,67.27c-9.71,6.05-22.35,2.68-27.91-6.98c-0.21-0.37-0.44-0.73-0.68-1.09
		c-4.78-9.23-1.82-20.62,6.97-26.25l96.39-61.68c3.4-2.18,5.95-5.46,7.22-9.3c0,0,3.29-9.95,7.12-21.43
		c6.63-19.65,10.69-39.98,12.11-60.64h76.92C334.94,388.86,329.3,402.92,320.76,415.46z M338.91,338.93h-77.81v-94.61
		c3.9-3.91,9.66-9.67,15.93-15.94c21.13-21.09,34.59-47.82,38.98-76.81c13.49,6.11,22.9,19.7,22.9,35.44L338.91,338.93
		L338.91,338.93z M483.67,558.98c-7.83,7.83-20.59,7.84-28.42,0L342.46,446.17c2.25-3.33,4.79-7.11,7.41-11
		c5.37-7.88,9.88-16.22,13.49-24.9l120.31,120.31C491.47,538.4,491.51,551.14,483.67,558.98L483.67,558.98z"/>
	<path d="M346.88,16.8C334.1,6.32,317.77,0.02,300,0.02s-34.1,6.3-46.88,16.77H346.88z"/>
</g>
</svg>
