<?xml version="1.0" encoding="utf-8"?>
<!-- Generator: Adobe Illustrator 24.0.2, SVG Export Plug-In . SVG Version: 6.00 Build 0)  -->
<svg version="1.1" id="Capa_1" xmlns="http://www.w3.org/2000/svg" xmlns:xlink="http://www.w3.org/1999/xlink" x="0px" y="0px"
	 viewBox="0 0 600 600" style="enable-background:new 0 0 600 600;" xml:space="preserve">
<g>
	<path d="M480.52,333.56c-1.42,0-2.84,0.03-4.26,0.09l-9.45-49.84c0-0.02-0.01-0.04-0.01-0.05l-11.62-61.28h12.6
		c9.59,0,17.36-7.77,17.36-17.36s-7.77-17.36-17.36-17.36h-69.91l-36.36-30.51c22.79-9.69,38.82-32.31,38.82-58.6
		c0-35.09-28.55-63.65-63.65-63.65s-63.65,28.55-63.65,63.65c0,1.78,0.09,3.53,0.23,5.27c-12.99,1.34-25.5,7.52-34.54,18.29
		l-44.63,53.19c-30.01,35.77-30.13,86.81-3.08,122.56l-27.03,44.52c-13.72-5.74-28.76-8.92-44.54-8.92
		c-63.81,0-115.72,51.91-115.72,115.72S55.67,565,119.48,565c57.91,0,106.02-42.76,114.42-98.36h42.96v11.57
		c0,9.59,7.77,17.36,17.36,17.36c9.59,0,17.36-7.77,17.36-17.36v-24.07l90.77-149.51h33.09l6.73,35.48
		c-45.01,15.86-77.36,58.81-77.36,109.18c0,63.81,51.91,115.72,115.72,115.72s115.72-51.91,115.72-115.72
		S544.33,333.56,480.52,333.56z M336.7,69.72c15.95,0,28.93,12.98,28.93,28.93s-12.98,28.93-28.93,28.93s-28.93-12.98-28.93-28.93
		S320.75,69.72,336.7,69.72z M265.35,144.52c3.43-4.09,8.35-6.19,13.31-6.19c3.94,0,7.9,1.33,11.14,4.05l31.03,26.03l-57.7,68.76
		c-14.55,17.34-18.8,41.33-11.08,62.61l3.81,10.5l-27.3-22.91c-1.48-1.25-2.88-2.55-4.22-3.9c-0.03-0.03-0.05-0.05-0.08-0.08
		c-22.88-23.07-24.83-60.32-3.54-85.69L265.35,144.52z M119.48,530.28c-44.67,0-81-36.34-81-81s36.34-81,81-81
		c9.17,0,17.99,1.56,26.22,4.38l-41.05,67.62c-3.25,5.36-3.37,12.06-0.29,17.52c3.08,5.46,8.86,8.84,15.13,8.84h79.11
		C190.62,502.99,158.18,530.28,119.48,530.28z M198.59,431.92h-48.27l25.02-41.21C186.81,401.65,195.08,415.9,198.59,431.92z
		 M233.89,431.92c-4.31-28.52-19.07-53.66-40.23-71.38l22.98-37.85l60.22,50.53v58.71H233.89z M311.57,387.24v-22.12h-0.01
		c0-1.98-0.33-3.98-1.03-5.92l-19.79-54.57h70.99L311.57,387.24z M284.16,269.91c1.11-3.77,2.97-7.33,5.57-10.43l57.7-68.76
		l32.99,27.68c3.25,2.73,7.21,4.06,11.15,4.06h0.01h28.29l8.99,47.44L284.16,269.91z M480.52,530.28c-44.67,0-81-36.34-81-81
		c0-33.39,20.31-62.11,49.21-74.5l14.74,77.73c1.58,8.33,8.86,14.13,17.04,14.13c1.07,0,2.16-0.1,3.25-0.31
		c9.42-1.79,15.61-10.87,13.82-20.29l-14.73-77.71c43.59,1.24,78.68,37.06,78.68,80.95C561.53,493.95,525.19,530.28,480.52,530.28z"
		/>
</g>
</svg>
