<svg id="Capa_1" data-name="Capa 1" xmlns="http://www.w3.org/2000/svg" viewBox="0 0 600 600"><title>coach</title><path d="M478.6,343.31a250.93,250.93,0,0,0-102.06-62.14,135.86,135.86,0,0,0,18.84-15.61,133.84,133.84,0,0,0,39.83-95.65V52.73A52.8,52.8,0,0,0,382.48,0H218.42a52.8,52.8,0,0,0-52.73,52.73V168.44A136.78,136.78,0,0,0,224.78,281,252.28,252.28,0,0,0,48.51,521.46V600H552.39V521.46A250.32,250.32,0,0,0,478.6,343.31ZM200.84,52.73a17.6,17.6,0,0,1,17.58-17.58H382.48a17.6,17.6,0,0,1,17.57,17.58V70.31H350.16a52.72,52.72,0,0,0-99.42,0h-49.9ZM318,87.89a17.58,17.58,0,1,1-17.58-17.58A17.6,17.6,0,0,1,318,87.89ZM200.84,168.44v-63h49.9a52.72,52.72,0,0,0,99.42,0h49.89v64.45a99.6,99.6,0,0,1-100.36,99.61C245.19,269.11,200.84,223.77,200.84,168.44Zm82,396.38H83.66V521.46c0-86.43,50.85-161.2,124.2-196l75,75ZM244.2,312.09a216.9,216.9,0,0,1,112.42,0L300.4,368.29Zm273,252.73H318V400.37L393,325.43c73.39,34.78,124.28,109.57,124.28,196Z"/><polygon points="435.21 459.35 435.21 424.2 400.05 424.2 400.05 459.35 364.9 459.35 364.9 494.51 400.05 494.51 400.05 529.66 435.21 529.66 435.21 494.51 470.36 494.51 470.36 459.35 435.21 459.35"/></svg>