<svg id="Capa_1" data-name="Capa 1" xmlns="http://www.w3.org/2000/svg" viewBox="0 0 600 600"><title>comida</title><path d="M300,594.5A294.5,294.5,0,0,1,91.76,91.76,294.5,294.5,0,1,1,508.24,508.24,292.54,292.54,0,0,1,300,594.5Zm0-573C146.43,21.5,21.5,146.43,21.5,300S146.43,578.5,300,578.5,578.5,453.57,578.5,300,453.57,21.5,300,21.5Z"/><circle cx="265.07" cy="412.39" r="10.82"/><circle cx="223.19" cy="394.94" r="10.82"/><circle cx="258.09" cy="370.51" r="10.82"/><path d="M432.65,263.29c-15.2-28-38.21-45.15-64.8-48.42-19.89-2.44-39.68,3.18-57.41,16V205.94a64.52,64.52,0,0,1,54.08-63.83,10.47,10.47,0,0,0-3.25-20.69l-.2,0a85.77,85.77,0,0,0-51.27,29.12c-1.47,1.73-2.86,3.51-4.17,5.36a57.68,57.68,0,0,0-52.77-34.63H237.15a10.47,10.47,0,0,0-10.44,10.47v15.74a57.65,57.65,0,0,0,57.58,57.59h5.25v25.78c-17.73-12.81-37.52-18.43-57.41-16-26.58,3.27-49.59,20.46-64.8,48.42-14.57,26.81-20.25,60.6-16,95.13s17.9,65.9,38.53,88.39c21.51,23.45,48,34.55,74.59,31.31A75.63,75.63,0,0,0,300,463.85a74.61,74.61,0,0,0,44.68,14.86c23.46,0,46.41-11.1,65.47-31.87,20.63-22.49,34.33-53.89,38.57-88.42s-1.46-68.32-16-95.13ZM289.5,184.14h-5.24a36.69,36.69,0,0,1-36.64-36.62v-5.26h5.24A36.68,36.68,0,0,1,289.5,178.9ZM427.9,355.86c-3.71,30.24-15.49,57.53-33.21,76.84-16.82,18.34-36.93,27.1-56.59,24.69C326.91,456,316.44,451,307,442.57a10.47,10.47,0,0,0-14,0c-9.46,8.46-19.94,13.44-31.13,14.82C242.23,459.8,222.1,451,205.3,432.7c-17.71-19.29-29.5-46.57-33.22-76.84s1.14-59.56,13.65-82.56c11.91-21.86,29.27-35.23,49-37.65,20.06-2.46,40.51,6.7,57.52,25.78a10.48,10.48,0,0,0,14.79.83,10.83,10.83,0,0,0,.83-.83c17-19.06,37.47-28.24,57.52-25.78,19.68,2.42,37.07,15.79,49,37.65C426.77,296.3,431.61,325.62,427.9,355.86Z"/></svg>