<?xml version="1.0" encoding="utf-8"?>
<!-- Generator: Adobe Illustrator 24.0.2, SVG Export Plug-In . SVG Version: 6.00 Build 0)  -->
<svg version="1.1" id="Capa_1" xmlns="http://www.w3.org/2000/svg" xmlns:xlink="http://www.w3.org/1999/xlink" x="0px" y="0px"
	 viewBox="0 0 600 600" style="enable-background:new 0 0 600 600;" xml:space="preserve">
<g>
	<path d="M543.41,406.51c-7.26-3.43-15.68-3.62-23.09-0.53c-0.34,0.14-0.66,0.29-0.99,0.45c-52.02,21.14-109.18,20.96-161.1-0.56
		c-52.3-21.67-93.03-62.4-114.67-114.68c-22.64-54.67-21.27-116.79,3.71-170.33c3.24-6.85,3.62-14.55,1.07-21.68
		c-2.55-7.13-7.74-12.84-14.58-16.08c-7.26-3.43-15.68-3.63-22.99-0.57c-66.46,27.27-118.31,78.77-146,145s-27.9,139.27-0.6,205.67
		S143,551.41,209.29,579.07c33.4,13.94,68.52,20.91,103.65,20.91c34.61,0,69.23-6.77,102.22-20.3
		c62.85-25.79,113.2-73.9,141.8-135.47C563.6,430.08,557.53,413.19,543.41,406.51L543.41,406.51z M224.21,114.99
		c-0.02,0.01-0.05,0.02-0.08,0.03C224.16,115.01,224.19,115,224.21,114.99z M401.81,547.19c-119.27,48.94-256.15-8.17-305.14-127.32
		c-46.8-113.83,3.3-243.73,111.95-297.81c-22.41,58.63-21.7,124.23,2.46,182.56c25.23,60.94,72.71,108.42,133.69,133.69
		c55.5,23,116.15,25.09,172.59,6.27C491.66,490.84,451.17,526.93,401.81,547.19L401.81,547.19z"/>
	<path d="M542.08,75.32h-29.06l42.03-45.9c4.7-5.13,5.92-12.56,3.11-18.93C555.36,4.11,549.05,0,542.08,0h-68.96
		c-9.71,0-17.58,7.86-17.58,17.56s7.87,17.56,17.58,17.56h29.06l-42.03,45.9c-4.7,5.13-5.92,12.56-3.11,18.93
		c2.81,6.37,9.12,10.48,16.09,10.48h68.96c9.71,0,17.58-7.86,17.58-17.56S551.79,75.32,542.08,75.32L542.08,75.32z"/>
	<path d="M327.15,130.71c2.81,6.37,9.12,10.48,16.09,10.48h55.12c9.71,0,17.58-7.86,17.58-17.56s-7.87-17.56-17.58-17.56h-15.22
		l28.19-30.79c4.7-5.13,5.92-12.56,3.11-18.93c-2.81-6.37-9.12-10.48-16.09-10.48h-55.12c-9.71,0-17.58,7.86-17.58,17.56
		S333.53,81,343.24,81h15.22l-28.19,30.79C325.57,116.92,324.34,124.34,327.15,130.71z"/>
	<path d="M440.82,234.03c2.81,6.37,9.12,10.48,16.09,10.48h55.12c9.71,0,17.58-7.86,17.58-17.56s-7.87-17.56-17.58-17.56h-15.22
		L525,178.6c4.7-5.13,5.92-12.56,3.11-18.93c-2.81-6.37-9.12-10.48-16.09-10.48h-55.12c-9.71,0-17.58,7.86-17.58,17.56
		s7.87,17.56,17.58,17.56h15.22l-28.19,30.79C439.23,220.23,438.01,227.66,440.82,234.03z"/>
</g>
</svg>
