<?xml version="1.0" encoding="iso-8859-1"?>
<!-- Generator: Adobe Illustrator 19.0.0, SVG Export Plug-In . SVG Version: 6.00 Build 0)  -->
<svg version="1.1" id="Layer_1" xmlns="http://www.w3.org/2000/svg" xmlns:xlink="http://www.w3.org/1999/xlink" x="0px" y="0px"
	 viewBox="0 0 512 512" style="enable-background:new 0 0 512 512;" xml:space="preserve">
<g>
	<g>
		<path d="M445.71,160.919L512,94.629l-24.071-24.07l-59.712,59.712c-6.28-8.903-13.408-17.407-21.246-25.245
			c-7.838-7.838-16.34-14.965-25.241-21.243l59.712-59.712L417.37,0l-66.29,66.29c-9.485-4.214-19.08-7.41-28.522-9.424
			c-39.981-8.529-77.113,2.954-107.372,33.212c-28.123,28.123-40.608,53.45-47.633,77.475c-24.025,7.025-49.354,19.51-77.476,47.633
			c-30.26,30.258-41.744,67.388-33.212,107.373c2.014,9.442,5.211,19.037,9.424,28.522L0,417.37l24.071,24.071l59.712-59.712
			c6.278,8.901,13.407,17.404,21.243,25.241c7.839,7.839,16.342,14.967,25.245,21.247l-59.712,59.713L94.63,512l66.29-66.29
			c9.485,4.214,19.08,7.41,28.521,9.424c8.581,1.831,17.024,2.74,25.302,2.74c30.296,0,58.305-12.186,82.071-35.951
			c28.123-28.123,40.609-53.45,47.633-77.475c24.025-7.025,49.353-19.51,77.476-47.633c30.26-30.258,41.743-67.388,33.211-107.373
			C453.119,179.999,449.924,170.405,445.71,160.919z M239.258,114.148c22.01-22.01,47.647-30.081,76.198-23.99
			c3.074,0.656,6.176,1.489,9.29,2.467L308.88,108.49c-38.695,38.695-69.559,44.857-101.977,50.622
			C213.369,144.86,223.172,130.234,239.258,114.148z M92.626,324.745c-0.979-3.114-1.812-6.216-2.468-9.29
			c-6.091-28.551,1.98-54.187,23.991-76.199c16.086-16.086,30.712-25.887,44.963-32.354c-5.764,32.418-11.927,63.282-50.622,101.978
			L92.626,324.745z M272.743,397.852c-22.011,22.01-47.65,30.08-76.199,23.99c-3.074-0.656-6.176-1.49-9.291-2.467l15.865-15.865
			c38.696-38.696,69.561-44.858,101.979-50.622C298.631,367.141,288.829,381.766,272.743,397.852z M318.987,301.305
			c-0.899,5.069-1.779,10.031-2.756,14.928c-4.897,0.976-9.86,1.856-14.928,2.755c-35.215,6.245-75.128,13.325-122.256,60.451
			l-24.288,24.288c-9.04-5.894-17.733-12.901-25.662-20.829c-7.927-7.926-14.933-16.618-20.824-25.658l24.287-24.288
			c47.127-47.127,54.207-87.041,60.452-122.255c0.899-5.069,1.779-10.031,2.756-14.928c4.897-0.976,9.86-1.856,14.928-2.756
			c35.215-6.245,75.128-13.325,122.254-60.451l24.289-24.289c9.041,5.893,17.732,12.898,25.659,20.824
			c7.928,7.928,14.935,16.621,20.828,25.664l-24.289,24.289C332.31,226.177,325.232,266.09,318.987,301.305z M397.853,272.743
			c-16.086,16.086-30.712,25.889-44.964,32.355c5.764-32.419,11.926-63.283,50.621-101.978l15.866-15.866
			c0.978,3.115,1.811,6.217,2.467,9.291C427.934,225.096,419.863,250.732,397.853,272.743z"/>
	</g>
</g>
<g>
</g>
<g>
</g>
<g>
</g>
<g>
</g>
<g>
</g>
<g>
</g>
<g>
</g>
<g>
</g>
<g>
</g>
<g>
</g>
<g>
</g>
<g>
</g>
<g>
</g>
<g>
</g>
<g>
</g>
</svg>
