<?xml version="1.0" encoding="utf-8"?>
<!-- Generator: Adobe Illustrator 24.0.2, SVG Export Plug-In . SVG Version: 6.00 Build 0)  -->
<svg version="1.1" id="Capa_1" xmlns="http://www.w3.org/2000/svg" xmlns:xlink="http://www.w3.org/1999/xlink" x="0px" y="0px"
	 viewBox="0 0 600 600" style="enable-background:new 0 0 600 600;" xml:space="preserve">
<g>
	<g>
		<path d="M541.81,94H59.09C27.04,94,0.5,120.03,0.5,152.58v281.2c0,32.3,26.28,58.58,58.58,58.58h482.73
			c32.3,0,58.58-26.28,58.58-58.58v-281.2C600.4,120.46,574.25,94,541.81,94z M496.41,140.87L300.45,265.42L104.49,140.87H496.41z
			 M553.53,433.78c0,6.46-5.26,11.72-11.72,11.72H59.09c-6.46,0-11.72-5.26-11.72-11.72V160.09l240.51,152.87
			c7.67,4.88,17.47,4.88,25.14,0l240.51-152.87V433.78z"/>
	</g>
</g>
</svg>
