<svg id="Capa_1" enable-background="new 0 0 32 32" height="512" viewBox="0 0 32 32" width="512" xmlns="http://www.w3.org/2000/svg"><path d="m16 32c-8.822 0-16-7.178-16-16s7.178-16 16-16 16 7.178 16 16-7.178 16-16 16zm0-30c-7.72 0-14 6.28-14 14s6.28 14 14 14 14-6.28 14-14-6.28-14-14-14zm0 24c-2.206 0-4-1.794-4-4s1.794-4 4-4 4 1.794 4 4-1.794 4-4 4zm0-6c-1.103 0-2 .897-2 2s.897 2 2 2 2-.897 2-2-.897-2-2-2zm7-3c-.256 0-.512-.098-.707-.293l-1.293-1.293-1.293 1.293c-.391.391-1.023.391-1.414 0s-.391-1.023 0-1.414l1.293-1.293-1.293-1.293c-.391-.391-.391-1.023 0-1.414s1.023-.391 1.414 0l1.293 1.293 1.293-1.293c.391-.391 1.023-.391 1.414 0s.391 1.023 0 1.414l-1.293 1.293 1.293 1.293c.391.391.391 1.023 0 1.414-.195.195-.451.293-.707.293zm-10 0c-.256 0-.512-.098-.707-.293l-1.293-1.293-1.293 1.293c-.391.391-1.023.391-1.414 0s-.391-1.023 0-1.414l1.293-1.293-1.293-1.293c-.391-.391-.391-1.023 0-1.414s1.023-.391 1.414 0l1.293 1.293 1.293-1.293c.391-.391 1.023-.391 1.414 0s.391 1.023 0 1.414l-1.293 1.293 1.293 1.293c.391.391.391 1.023 0 1.414-.195.195-.451.293-.707.293z"/></svg>