<?xml version="1.0" encoding="utf-8"?>
<!-- Generator: Adobe Illustrator 24.0.2, SVG Export Plug-In . SVG Version: 6.00 Build 0)  -->
<svg version="1.1" id="Capa_1" xmlns="http://www.w3.org/2000/svg" xmlns:xlink="http://www.w3.org/1999/xlink" x="0px" y="0px"
	 viewBox="0 0 600 600" style="enable-background:new 0 0 600 600;" xml:space="preserve">
<g>
	<path d="M566.33,76.4c-27.48-10-57.85,4.17-67.86,31.64l-22.13,60.8l-52.65-19.16c21.16-14.92,35.02-39.52,35.02-67.32
		C458.71,36.94,421.77,0,376.36,0S294,36.94,294,82.35c0,7.31,0.97,14.38,2.77,21.13l-3.18-1.16c-17.68-6.43-36.91-8.76-55.61-6.73
		l-82.38,8.96c-20.05,2.18-37.12,15.57-44.02,34.52l-25.24,69.35c-10,27.48,4.17,57.86,31.64,67.86s57.86-4.17,67.86-31.64
		l12.85-35.3l38.92-3.74L167.3,398.77H98.48c-29.24,0-52.94,23.7-52.94,52.94c0,29.24,23.7,52.94,52.94,52.94l105.89,0
		c22.26,0,42.14-13.92,49.75-34.83l18.11-49.76l44.22,16.1l-33.77,92.79c-12.57,34.53,13,71.05,49.75,71.05
		c22.26,0,42.14-13.92,49.75-34.83l51.88-142.54c10-27.48-4.17-57.86-31.64-67.86l-27.64-10.06l32.19-88.44l82.92,30.18
		c27.48,10,57.86-4.17,67.86-31.64l40.24-110.55C607.97,116.78,593.8,86.4,566.33,76.4L566.33,76.4z M376.36,35.29
		c25.95,0,47.06,21.11,47.06,47.06s-21.11,47.06-47.06,47.06c-25.95,0-47.06-21.11-47.06-47.06S350.41,35.29,376.36,35.29z
		 M564.8,132.18l-40.24,110.55c-3.33,9.16-13.46,13.88-22.62,10.55l-99.5-36.21c-9.16-3.33-19.28,1.39-22.62,10.55l-44.26,121.61
		c-3.33,9.16,1.39,19.28,10.55,22.62l44.22,16.09c9.16,3.33,13.88,13.46,10.55,22.62l-51.88,142.54
		c-2.54,6.97-9.16,11.61-16.58,11.61c-12.25,0-20.77-12.17-16.58-23.68l39.81-109.38c3.33-9.16-1.39-19.28-10.55-22.62l-77.39-28.17
		c-9.16-3.33-19.28,1.39-22.62,10.55l-24.14,66.34c-2.54,6.97-9.16,11.61-16.58,11.61l-105.89,0c-9.75,0-17.65-7.9-17.65-17.65
		s7.9-17.65,17.65-17.65h81.18c7.42,0,14.05-4.64,16.58-11.61l84.1-231.05c4.44-12.19-5.36-24.84-18.27-23.6l-77.84,7.48
		c-6.77,0.65-12.57,5.14-14.9,11.53l-16.66,45.77c-3.33,9.16-13.46,13.88-22.62,10.55c-9.16-3.33-13.88-13.46-10.55-22.62
		l25.24-69.35c2.3-6.32,7.99-10.78,14.68-11.51l82.38-8.96c13.36-1.45,27.09,0.21,39.72,4.8l199.34,72.55
		c9.16,3.33,19.28-1.39,22.62-10.55l28.17-77.39c3.33-9.16,13.46-13.88,22.62-10.55C563.42,112.89,568.14,123.02,564.8,132.18
		L564.8,132.18z"/>
	<path d="M130.59,347.06c0-9.75-7.9-17.65-17.65-17.65H16.47c-9.75,0-17.65,7.9-17.65,17.65s7.9,17.65,17.65,17.65h96.47
		C122.69,364.71,130.59,356.8,130.59,347.06z"/>
	<path d="M16.47,294.12h37.65c9.75,0,17.65-7.9,17.65-17.65s-7.9-17.65-17.65-17.65H16.47c-9.75,0-17.65,7.9-17.65,17.65
		S6.72,294.12,16.47,294.12z"/>
</g>
</svg>
