<svg id="Capa_1" enable-background="new 0 0 512 512" height="512" viewBox="0 0 512 512" width="512" xmlns="http://www.w3.org/2000/svg"><g><path d="m497 221h-177.785c-11.473 0-18.698 12.355-13.073 22.354l12.018 21.364c12.367 22 12.136 49.198-.604 70.979-12.741 21.776-36.327 35.303-61.556 35.303s-48.815-13.527-61.555-35.303c-12.739-21.781-12.975-48.976-.616-70.966l12.025-21.377c5.625-9.999-1.601-22.354-13.073-22.354h-177.781c-8.284 0-15 6.716-15 15v230c0 8.284 6.716 15 15 15h482c8.284 0 15-6.716 15-15v-230c0-8.284-6.716-15-15-15zm-467 30h137.141c-3.988 7.284-7.001 14.96-9.065 22.834-14.693 4.506-24.143 13.781-32.023 21.518-9.598 9.422-15.939 15.648-30.063 15.648-14.088 0-20.4-6.234-29.954-15.672-8.674-8.569-19.033-18.788-36.036-22.695zm452 200h-452v-146.645c5.26 2.743 9.598 7.026 14.954 12.317 10.973 10.839 24.629 24.328 51.036 24.328 26.39 0 40.08-13.441 51.08-24.241 2.885-2.832 5.493-5.384 8.125-7.575 1.356 14.495 5.802 28.748 13.355 41.661 18.099 30.936 51.608 50.155 87.45 50.155s69.351-19.219 87.449-50.156c7.553-12.912 11.999-27.165 13.353-41.661 2.632 2.191 5.241 4.743 8.126 7.575 11.002 10.801 24.692 24.242 51.081 24.242 26.407 0 40.063-13.489 51.037-24.328 5.356-5.291 9.694-9.573 14.954-12.317zm0-178.367c-17.003 3.907-27.362 14.126-36.036 22.695-9.555 9.438-15.866 15.672-29.955 15.672-14.123 0-20.464-6.226-30.062-15.648-7.88-7.738-17.332-17.013-32.027-21.519-2.064-7.873-5.076-15.548-9.064-22.832h137.144z"/><path d="m256 341.004c14.841 0 28.174-7.648 35.666-20.459s7.622-28.181.346-41.115l-20.974-37.286c1.482-77.709 47.607-148.533 118.362-181.189l2.886-1.332c7.521-3.472 10.805-12.384 7.333-19.905-3.472-7.522-12.385-10.806-19.905-7.333l-2.886 1.332c-40.627 18.751-74.85 48.585-98.965 86.276-23.399 36.569-36.093 78.677-36.828 122.019l-21.047 37.417c-7.276 12.935-7.146 28.305.346 41.115s20.825 20.46 35.666 20.46zm-9.865-46.867 9.865-17.537 9.865 17.537c2.872 5.107.891 9.578-.095 11.263-.986 1.686-3.911 5.604-9.771 5.604s-8.784-3.919-9.771-5.604c-.984-1.685-2.965-6.156-.093-11.263z"/><circle cx="141" cy="411" r="15"/><circle cx="71" cy="381" r="15"/><circle cx="431" cy="391" r="15"/><circle cx="361" cy="411" r="15"/></g></svg>