<svg height="512pt" viewBox="-6 0 511 512" width="512pt" xmlns="http://www.w3.org/2000/svg"><path d="m437.300781 234.125h-13.496093v-13.027344h19.117187c8.617187 0 15.609375-6.996094 15.609375-15.609375v-76.011719c0-71.398437-58.078125-129.476562-129.476562-129.476562h-157.304688c-71.398438 0-129.476562 58.078125-129.476562 129.476562v76.011719c0 8.613281 6.992187 15.609375 15.609374 15.609375h19.117188v13.027344h-13.5c-34.734375 0-63 28.265625-63 63 0 34.738281 28.265625 63.003906 63 63.003906h14.152344c4.683594 51.269532 34.394531 97.464844 79.871094 122.835938 19.066406 10.644531 47.394531 29.035156 92.878906 29.035156 45.117187 0 73.148437-18.023438 92.878906-29.035156 45.476562-25.371094 75.1875-71.566406 79.867188-122.835938h14.152343c34.738281 0 63.003907-28.265625 63.003907-63.003906 0-34.734375-28.265626-63-63.003907-63zm0 94.78125h-13.496093v-63.5625h13.496093c17.527344 0 31.785157 14.257812 31.785157 31.78125 0 17.527344-14.257813 31.78125-31.785157 31.78125zm-109.226562 126.792969-16.378907 9.136719c-38.378906 21.417968-84.207031 21.417968-122.585937 0l-16.382813-9.136719c-38.347656-21.386719-64.507812-62.214844-64.507812-111.179688 0-13.628906 0-108.8125 0-123.421875h93.367188c5.078124 0 9.84375-2.476562 12.769531-6.640625l36.046875-51.28125 36.046875 51.28125c2.925781 4.164063 7.691406 6.640625 12.769531 6.640625h93.367188v123.421875c0 49.210938-26.394532 89.921875-64.511719 111.179688zm-296.355469-158.574219c0-17.523438 14.257812-31.78125 31.78125-31.78125h13.5v63.5625h-13.5c-17.523438 0-31.78125-14.253906-31.78125-31.78125zm41.773438-167.648438c0-54.183593 44.082031-98.257812 98.257812-98.257812h157.304688c54.175781 0 98.257812 44.074219 98.257812 98.257812v60.402344c-14.246094 0-105.738281 0-119.988281 0l-44.152344-62.824218c-6.21875-8.828126-19.320313-8.832032-25.539063 0l-44.15625 62.824218c-9.371093 0-116.582031 0-119.984374 0zm0 0"/><path d="m348.179688 386.570312-12.039063-8.929687c-20.542969-15.246094-47.839844-16.347656-69.546875-2.820313-9.832031 6.140626-22.550781 6.140626-32.382812 0-21.710938-13.527343-49.007813-12.425781-69.546876 2.8125l-12.042968 8.9375c-6.929688 5.128907-8.375 14.914063-3.234375 21.832032 5.121093 6.917968 14.890625 8.390625 21.832031 3.238281l12.039062-8.929687c10.179688-7.542969 23.6875-8.097657 34.4375-1.394532 19.863282 12.394532 45.546876 12.394532 65.414063 0 10.75-6.703125 24.269531-6.148437 34.433594 1.394532l12.042969 8.929687c6.917968 5.140625 16.691406 3.691406 21.832031-3.238281 5.140625-6.917969 3.695312-16.703125-3.238281-21.832032zm0 0"/><path d="m199.691406 275.523438c7.613282-4.027344 10.527344-13.476563 6.503906-21.09375-3.984374-7.546876-13.414062-10.566407-21.09375-6.503907-17.929687 9.480469-15.285156 8.078125-52.367187 27.691407-7.625 4.027343-10.539063 13.464843-6.503906 21.09375 4.023437 7.609374 13.445312 10.53125 21.09375 6.503906zm0 0"/><path d="m368.128906 275.617188c-38.402344-20.3125-30.96875-16.375-52.363281-27.691407-7.675781-4.058593-17.105469-1.050781-21.09375 6.503907-4.023437 7.566406-1.152344 17.046874 6.492187 21.09375l52.367188 27.691406c7.660156 4.035156 17.089844 1.089844 21.101562-6.503906 4.027344-7.628907 1.117188-17.066407-6.503906-21.09375zm0 0"/><path d="m161.675781 344.519531c11.0625 3.914063 22.910157-3.863281 23.683594-15.613281.785156-9.933594-7.246094-19-17.773437-19-19.835938 0-24.859376 27.953125-5.910157 34.613281zm0 0"/><path d="m333.214844 345.527344c9.792968 0 17.808594-7.9375 17.808594-17.804688 0-9.84375-7.972657-17.816406-17.808594-17.816406-10.484375 0-18.558594 9.023438-17.773438 19 .621094 9.355469 8.421875 16.621094 17.773438 16.621094zm0 0"/></svg>