<svg id="Capa_1" data-name="Capa 1" xmlns="http://www.w3.org/2000/svg" viewBox="0 0 600 600"><title>deposiciones</title><path d="M300,594.5A294.5,294.5,0,0,1,91.76,91.76,294.5,294.5,0,1,1,508.24,508.24,292.54,292.54,0,0,1,300,594.5Zm0-573C146.43,21.5,21.5,146.43,21.5,300S146.43,578.5,300,578.5,578.5,453.57,578.5,300,453.57,21.5,300,21.5Z"/><path d="M445.57,348.49a65.43,65.43,0,0,0-38.84-106.93,48.33,48.33,0,0,0,7.47-25.85,94.71,94.71,0,0,0-94.6-94.61h-4.36A11.86,11.86,0,0,0,303.38,133a34.17,34.17,0,0,1-34.13,34.14H234.43a48.57,48.57,0,0,0-41.14,74.47A65.44,65.44,0,0,0,154.44,348.5a65.49,65.49,0,0,0,8.66,130.4H436.9a65.49,65.49,0,0,0,8.67-130.41ZM234.43,190.82h34.81a58,58,0,0,0,56.57-45.73,71,71,0,0,1,64.67,70.63,24.94,24.94,0,0,1-24.91,24.9H234.43a24.9,24.9,0,1,1,0-49.8Zm-30.11,73.52H395.69a41.78,41.78,0,1,1,0,83.56H204.32a41.78,41.78,0,0,1,0-83.56ZM436.91,455.18H163.1a41.78,41.78,0,1,1,0-83.56H436.9a41.78,41.78,0,0,1,0,83.56Z"/></svg>