<?xml version="1.0" encoding="utf-8"?>
<!-- Generator: Adobe Illustrator 24.0.2, SVG Export Plug-In . SVG Version: 6.00 Build 0)  -->
<svg version="1.1" id="Capa_1" xmlns="http://www.w3.org/2000/svg" xmlns:xlink="http://www.w3.org/1999/xlink" x="0px" y="0px"
	 viewBox="0 0 600 600" style="enable-background:new 0 0 600 600;" xml:space="preserve">
<path d="M515.77,371.87c14.41-16.94,23.14-38.87,23.14-62.81c0-47.95-34.96-87.87-80.72-95.68c7-11.11,11.08-24.24,11.08-38.32
	c0-77.33-62.91-140.23-140.23-140.23h-6.46c-9.71,0-17.58,7.87-17.58,17.58c0,27.9-22.69,50.59-50.59,50.59h-51.6
	c-39.74,0-72.07,32.33-72.07,72.07c0,14.07,4.07,27.21,11.08,38.32c-45.76,7.81-80.72,47.72-80.72,95.68
	c0,23.94,8.72,45.86,23.14,62.81C36.76,378.18,0,418.91,0,468.08c0,53.53,43.55,97.08,97.08,97.08h405.83
	c53.53,0,97.08-43.55,97.08-97.09C600,418.91,563.24,378.18,515.77,371.87z M202.8,138.16h51.6c41.12,0,75.57-29.09,83.85-67.77
	c53.64,4.69,95.85,49.85,95.85,104.68c0,20.35-16.56,36.91-36.91,36.91H202.8c-20.35,0-36.91-16.56-36.91-36.91
	S182.45,138.16,202.8,138.16L202.8,138.16z M158.18,247.14h283.65c34.15,0,61.93,27.78,61.93,61.93S475.97,371,441.82,371H158.18
	c-34.15,0-61.93-27.78-61.93-61.93S124.03,247.14,158.18,247.14L158.18,247.14z M502.92,530.01H97.08
	c-34.15,0-61.93-27.78-61.93-61.93s27.78-61.93,61.93-61.93h405.83c34.15,0,61.93,27.78,61.93,61.93S537.06,530.01,502.92,530.01z"
	/>
</svg>
