<?xml version="1.0" encoding="utf-8"?>
<!-- Generator: Adobe Illustrator 24.0.2, SVG Export Plug-In . SVG Version: 6.00 Build 0)  -->
<svg version="1.1" id="Capa_1" xmlns="http://www.w3.org/2000/svg" xmlns:xlink="http://www.w3.org/1999/xlink" x="0px" y="0px"
	 viewBox="0 0 600 600" style="enable-background:new 0 0 600 600;" xml:space="preserve">
<g>
	<path d="M447.66,295.31c-42.56,0-81.1,17.55-108.77,45.79c-5.51-0.83-11.07-1.26-16.63-1.26h-46.88v-14.87
		c38.36-20.86,64.45-61.53,64.45-108.18V111.33C339.84,49.94,289.9,0,228.52,0H52.73c-9.71,0-17.58,7.87-17.58,17.58v23.44
		c0,45.72,21.78,86.83,58.89,112.42c-0.19,1.84-0.29,3.7-0.29,5.59v57.77c0,46.65,26.09,87.32,64.45,108.18v14.87h-46.87
		C49.94,339.84,0,389.79,0,451.17v131.25C0,592.13,7.87,600,17.58,600h430.08c84,0,152.34-68.34,152.34-152.34
		S531.66,295.31,447.66,295.31z M551.1,392.64l-46.74,16.86l-39.13-28.43v-49.28C502.46,337.41,534,360.61,551.1,392.64z
		 M364.09,529.73c-20.78-21.16-33.62-50.14-33.62-82.07c0-7.47,0.71-14.78,2.05-21.86l47.17,17.02l15.09,46.45L364.09,529.73z
		 M427.11,474.98l-12.7-39.08l33.24-24.15l33.24,24.15l-12.7,39.08L427.11,474.98z M430.08,331.79v49.28l-39.13,28.43l-46.74-16.86
		C361.32,360.61,392.85,337.41,430.08,331.79z M70.31,41.02v-5.86h158.2c41.12,0,74.71,32.76,76.11,73.55
		c-5.72-2.09-11.9-3.23-18.34-3.23c-10.61,0-20.88,3.11-29.71,9l-6.59,4.39c-9.86,6.57-21.34,10.05-33.19,10.05
		c-11.85,0-23.33-3.47-33.19-10.05l-6.59-4.39c-8.83-5.89-19.1-9-29.71-9c-14.76,0-28.14,6-37.84,15.69
		C84.71,102,70.31,73.02,70.31,41.02z M128.91,216.8v-57.77c0-10.15,8.25-18.4,18.4-18.4c3.64,0,7.18,1.07,10.21,3.09l6.59,4.39
		c15.66,10.44,33.87,15.95,52.69,15.95c18.81,0,37.03-5.52,52.69-15.95l6.59-4.39c3.03-2.02,6.56-3.09,10.21-3.09
		c10.15,0,18.4,8.25,18.4,18.4v57.77c0,48.46-39.43,87.89-87.89,87.89S128.91,265.26,128.91,216.8z M216.8,339.84
		c8.01,0,15.85-0.78,23.44-2.25v43.26c0,12.92-10.51,23.44-23.44,23.44c-12.92,0-23.44-10.51-23.44-23.44v-43.26
		C200.95,339.06,208.78,339.84,216.8,339.84z M35.16,527.34h35.16v37.5H35.16V527.34z M105.47,564.84v-90.23
		c0-9.71-7.87-17.58-17.58-17.58s-17.58,7.87-17.58,17.58v17.58H35.16v-41.02c0-42,34.17-76.17,76.17-76.17h46.87v5.86
		c0,32.31,26.29,58.59,58.59,58.59s58.59-26.29,58.59-58.59V375h38.39c-11.77,21.61-18.47,46.36-18.47,72.66
		c0,47.07,21.46,89.22,55.11,117.19H105.47z M392.19,550.86l30.88-40.72h49.17l30.88,40.72c-16.52,8.92-35.42,13.98-55.47,13.98
		S408.71,559.78,392.19,550.86L392.19,550.86z M531.22,529.72l-30.69-40.47l15.09-46.45l47.17-17.02
		c1.34,7.09,2.05,14.39,2.05,21.86C564.84,479.59,552,508.57,531.22,529.72z"/>
</g>
</svg>
