<svg id="Capa_1" enable-background="new 0 0 512 512" height="512" viewBox="0 0 512 512" width="512" xmlns="http://www.w3.org/2000/svg"><g><path d="m16 75c0 35.074 52.299 52.314 86.429 60.527-16.712 25.792-26.429 56.518-26.429 89.473v61c0 64.38 36.618 120.317 90 147.839v78.161h150v-78.161c53.382-27.522 90-83.459 90-147.839v-61c0-90.981-74.019-165-165-165-46.019 0-87.691 18.945-117.647 49.436-15.709-3.166-77.353-18.467-77.353-34.436 0-3.437 9.038-15.881 49.199-27.591l-8.398-28.801c-46.98 13.699-70.801 32.671-70.801 56.392zm270 407h-90v-36.275c14.31 4.086 29.406 6.275 45 6.275s30.69-2.189 45-6.275zm-45-392c29.426 0 56.678 9.47 78.883 25.513-24.808 2.949-51.564 4.487-78.883 4.487-27.591 0-54.299-1.535-78.92-4.46 22.212-16.06 49.478-25.54 78.92-25.54zm-135 135c0-31.288 10.702-60.123 28.634-83.041 32.15 5.247 68.554 8.041 106.366 8.041 37.441 0 73.988-2.783 106.353-8.059 17.94 22.921 28.647 51.762 28.647 83.059v61c0 74.991-60.561 136-135 136s-135-61.009-135-136z"/><path d="m398.703 98.794 9.896 28.321c38.089-13.308 57.401-30.843 57.401-52.115 0-23.999-24.354-43.126-72.387-56.849-40.967-11.705-95.166-18.151-152.613-18.151-32.163 0-63.122 1.988-92.018 5.91l4.035 29.728c27.563-3.741 57.165-5.638 87.983-5.638 54.738 0 106.011 6.036 144.371 16.997 41.328 11.807 50.629 24.491 50.629 28.003 0 2.792-6.852 13.157-37.297 23.794z"/><path d="m166 270h30v-30h30v-30h-30v-30h-30v30h-30v30h30z"/><path d="m286 270h30v-30h30v-30h-30v-30h-30v30h-30v30h30z"/><path d="m181 337.213 30 30 30-30 30 30 30-30 19.394 19.393 21.212-21.212-40.606-40.607-30 30-30-30-30 30-30-30-40.606 40.607 21.212 21.212z"/><path d="m436 150h30v30h-30z"/><path d="m466 0h30v30h-30z"/><path d="m16 150h30v30h-30z"/></g></svg>