<svg id="Capa_1" enable-background="new 0 0 512 512" height="512" viewBox="0 0 512 512" width="512" xmlns="http://www.w3.org/2000/svg"><g><path d="m511.366 262.033c-.903-5.449-6.054-9.132-11.5-8.23l-18.464 3.059-1.706-6.256c-1.349-4.946-6.221-8.069-11.278-7.235l-24.199 3.997c-5.449.9-9.137 6.047-8.236 11.496.9 5.448 6.042 9.134 11.496 8.236l15.295-2.526 1.707 6.261c1.202 4.408 5.203 7.37 9.64 7.37.542 0 1.092-.044 1.643-.136l27.372-4.535c5.447-.903 9.132-6.052 8.23-11.501z"/><path d="m489.299 342.692-18.422-6.941 1.255-7.14c.833-4.737-1.823-9.396-6.324-11.091l-23.179-8.73c-5.17-1.948-10.937.665-12.883 5.834-1.946 5.168.665 10.936 5.833 12.883l15.418 5.808-1.255 7.139c-.833 4.736 1.823 9.395 6.323 11.09l26.182 9.864c1.161.438 2.352.646 3.524.646 4.043 0 7.85-2.471 9.359-6.478 1.949-5.169-.662-10.937-5.831-12.884z"/><path d="m439.104 199.43c2.615 0 5.227-1.02 7.188-3.047l11.207-11.586 3.977 3.482c4.011 3.512 10.071 3.259 13.777-.572l20.118-20.806c3.839-3.97 3.732-10.301-.238-14.14-3.97-3.841-10.3-3.734-14.14.237l-13.502 13.963-3.975-3.48c-4.011-3.511-10.07-3.26-13.775.57l-17.823 18.425c-3.84 3.97-3.735 10.301.235 14.141 1.941 1.878 4.447 2.813 6.951 2.813z"/><path d="m37.852 278.204c4.437 0 8.438-2.962 9.64-7.37l1.707-6.263 15.325 2.528c5.454.908 10.596-2.789 11.495-8.238s-2.79-10.596-8.239-11.494l-24.227-3.997c-5.058-.837-9.927 2.29-11.276 7.235l-1.705 6.255-18.435-3.058c-5.448-.904-10.598 2.78-11.501 8.229-.904 5.448 2.781 10.598 8.229 11.501l27.344 4.535c.55.093 1.1.137 1.643.137z"/><path d="m69.338 308.792-23.15 8.73c-4.492 1.693-7.146 6.341-6.323 11.071l1.245 7.155-18.412 6.944c-5.167 1.949-7.777 7.718-5.828 12.886 1.511 4.005 5.316 6.474 9.358 6.474 1.173 0 2.366-.208 3.527-.646l26.154-9.864c4.492-1.694 7.146-6.341 6.323-11.071l-1.245-7.154 15.409-5.812c5.167-1.948 7.777-7.718 5.828-12.885-1.95-5.168-7.718-7.776-12.886-5.828z"/><path d="m62.231 164.052c-3.709-3.833-9.776-4.082-13.785-.562l-3.951 3.468-13.522-13.964c-3.842-3.97-10.173-4.071-14.141-.228-3.967 3.842-4.069 10.172-.228 14.14l20.146 20.806c3.709 3.831 9.773 4.078 13.781.559l3.947-3.465 11.199 11.577c1.962 2.027 4.573 3.047 7.188 3.047 2.503 0 5.01-.935 6.952-2.813 3.97-3.84 4.075-10.171.235-14.141z"/><path d="m336.077 170.926c-5.523 0-10 4.478-10 10s4.477 10 10 10h.028c5.523 0 9.986-4.478 9.986-10s-4.491-10-10.014-10z"/><path d="m396.089 180.926c0-33.116-26.921-60.059-60.012-60.059h-26.627c2.173-4.557 3.39-9.653 3.39-15.029v-70.809c-.001-19.315-15.711-35.029-35.022-35.029s-35.021 15.714-35.021 35.029v35.808h-66.875c-33.106 0-60.041 26.93-60.041 60.03 0 20.869 10.698 39.288 26.896 50.057-16.197 10.763-26.896 29.173-26.896 50.032 0 20.872 10.699 39.292 26.899 50.06-16.2 10.768-26.899 29.187-26.899 50.059 0 33.101 26.934 60.03 60.041 60.03h20.224c-2.173 4.557-3.39 9.653-3.39 15.029v70.837c0 19.315 15.71 35.029 35.021 35.029 19.31 0 35.02-15.714 35.02-35.029v-35.808h73.279c33.091 0 60.012-26.942 60.012-60.059 0-20.859-10.693-39.27-26.883-50.032 16.189-10.769 26.883-29.188 26.883-50.057 0-20.87-10.693-39.289-26.883-50.057 16.19-10.763 26.884-29.173 26.884-50.032zm-60.012 40.03h-160.154c-5.523 0-10 4.478-10 10s4.477 10 10 10h160.153c22.063 0 40.012 17.971 40.012 40.06 0 22.088-17.949 40.059-40.012 40.059h-160.153c-5.523 0-10 4.478-10 10s4.477 10 10 10h160.153c22.063 0 40.012 17.957 40.012 40.03 0 22.089-17.949 40.059-40.012 40.059h-83.279c-5.523 0-10 4.478-10 10v45.808c0 8.287-6.738 15.029-15.02 15.029s-15.021-6.742-15.021-15.029v-70.837c0-8.287 6.738-15.029 15.021-15.029h108.299c5.523 0 10-4.478 10-10s-4.477-10-10-10h-160.153c-22.079 0-40.041-17.957-40.041-40.03 0-22.089 17.962-40.059 40.041-40.059h160.153c5.523 0 10-4.478 10-10s-4.477-10-10-10h-160.153c-22.079 0-40.041-17.971-40.041-40.06 0-22.073 17.962-40.03 40.041-40.03h115.241c5.523 0 10-4.478 10-10s-4.477-10-10-10h-115.241c-22.079 0-40.041-17.971-40.041-40.059 0-22.072 17.962-40.03 40.041-40.03h76.875c5.523 0 10-4.478 10-10v-45.809c0-8.287 6.738-15.029 15.021-15.029s15.021 6.742 15.021 15.029v70.809c0 8.287-6.738 15.029-15.021 15.029h-101.896c-5.523 0-10 4.478-10 10s4.477 10 10 10h160.153c22.063 0 40.012 17.97 40.012 40.059.001 22.073-17.948 40.03-40.011 40.03z"/></g></svg>