<svg id="Capa_1" data-name="Capa 1" xmlns="http://www.w3.org/2000/svg" viewBox="0 0 503.92 600"><title>dieta</title><circle cx="193.37" cy="488.67" r="18.16"/><circle cx="123.06" cy="459.38" r="18.16"/><circle cx="181.65" cy="418.36" r="18.16"/><path d="M522.75,238.36c-25.53-46.94-64.16-75.81-108.79-81.29-33.4-4.1-66.62,5.33-96.38,26.84V142.08A108.3,108.3,0,0,1,408.36,34.92,17.58,17.58,0,1,0,402.58.24a144,144,0,0,0-86.08,48.9q-3.69,4.34-7,9A96.8,96.8,0,0,0,220.9,0H194.53A17.58,17.58,0,0,0,177,17.58V44a96.79,96.79,0,0,0,96.68,96.68h8.81c0,.48,0,1,0,1.45v41.83c-29.76-21.51-63-30.94-96.38-26.84-44.63,5.48-83.26,34.35-108.79,81.29-24.47,45-34,101.73-26.92,159.7S80.45,508.75,115.09,546.5c36.12,39.38,80.59,58,125.22,52.56,21.38-2.62,41.4-10.7,59.69-24,18.29,13.35,38.31,21.43,59.69,24A124.92,124.92,0,0,0,375,600c39.39,0,77.93-18.63,109.92-53.5,34.64-37.75,57.64-90.46,64.76-148.44s-2.45-114.69-26.92-159.7ZM282.42,105.47h-8.79A61.59,61.59,0,0,1,212.11,44V35.16h8.79a61.59,61.59,0,0,1,61.52,61.52Zm232.35,288.3c-6.23,50.77-26,96.57-55.76,129-28.24,30.78-62,45.49-95,41.44-18.79-2.31-36.37-10.68-52.26-24.87a17.57,17.57,0,0,0-23.42,0c-15.89,14.19-33.47,22.56-52.27,24.87-33,4.05-66.79-10.66-95-41.44-29.73-32.39-49.53-78.19-55.76-129s1.9-100,22.9-138.61c20-36.7,49.14-59.14,82.19-63.2,33.67-4.13,68,11.24,96.56,43.27a17.59,17.59,0,0,0,26.23,0c28.6-32,62.9-47.4,96.56-43.27,33.05,4.06,62.24,26.5,82.19,63.2C512.87,293.78,521,343,514.77,393.77Z" transform="translate(-48.04 0)"/></svg>