<svg id="Capa_1" enable-background="new 0 0 512 512" height="512" viewBox="0 0 512 512" width="512" xmlns="http://www.w3.org/2000/svg"><g><path d="m211 225h90c8.284 0 15-6.716 15-15v-15c0-33.084-26.916-60-60-60s-60 26.916-60 60v15c0 8.284 6.716 15 15 15zm45-60c16.542 0 30 13.458 30 30h-60c0-16.542 13.458-30 30-30z"/><path d="m377 332h-31c-8.271 0-15-6.729-15-15v-39.859c16.891-11.252 31.104-26.232 41.422-43.737 10.023-17.003 16.149-36.071 17.989-55.77 17.766-6.023 30.589-22.86 30.589-42.634v-30c0-19.556-12.539-36.239-30-42.43v-47.57c0-8.284-6.716-15-15-15h-240c-8.284 0-15 6.716-15 15v47.57c-17.461 6.191-30 22.874-30 42.43v30c0 19.774 12.823 36.611 30.588 42.634 1.84 19.699 7.966 38.767 17.989 55.77 10.318 17.504 24.531 32.484 41.422 43.737v39.859c0 8.271-6.729 15-15 15h-31c-74.438 0-134.999 60.561-134.999 135v30c0 8.284 6.716 15 15 15h482c8.284 0 15-6.716 15-15v-30c0-74.439-60.561-135-135-135zm-226-167c0-8.284-6.716-15-15-15-8.271 0-15-6.729-15-15v-30c0-8.271 6.729-15 15-15 8.284 0 15-6.716 15-15v-45h210v45c0 8.284 6.716 15 15 15 8.271 0 15 6.729 15 15v30c0 8.271-6.729 15-15 15-8.284 0-15 6.716-15 15 0 37.393-20.108 72.183-52.477 90.795-4.654 2.676-7.523 7.635-7.523 13.003v18.202h-90v-18.201c0-5.369-2.869-10.328-7.523-13.003-32.369-18.613-52.477-53.403-52.477-90.796zm331 317h-60v-15c0-8.284-6.716-15-15-15s-15 6.716-15 15v15h-272v-15c0-8.284-6.716-15-15-15s-15 6.716-15 15v15h-60v-15c0-57.897 47.103-105 105-105h31c24.813 0 45-20.187 45-45h90c0 24.813 20.187 45 45 45h31c57.897 0 105 47.103 105 105z"/><path d="m376 272c-8.284 0-15 6.716-15 15s6.716 15 15 15h30c8.284 0 15-6.716 15-15s-6.716-15-15-15z"/><path d="m136 302c8.284 0 15-6.716 15-15s-6.716-15-15-15h-30c-8.284 0-15 6.716-15 15s6.716 15 15 15z"/></g></svg>