<svg id="Capa_1" data-name="Capa 1" xmlns="http://www.w3.org/2000/svg" viewBox="0 0 600 600"><title>dolencias</title><path d="M300,594.5A294.5,294.5,0,0,1,91.76,91.76,294.5,294.5,0,1,1,508.24,508.24,292.54,292.54,0,0,1,300,594.5Zm0-573C146.43,21.5,21.5,146.43,21.5,300S146.43,578.5,300,578.5,578.5,453.57,578.5,300,453.57,21.5,300,21.5Z"/><path d="M438.77,268c-8.87-31.53-18-64.14-12.79-113.81a79.71,79.71,0,0,0,15-17.36,10.55,10.55,0,0,0-17.77-11.36,57.89,57.89,0,0,1-97.61,0,12.29,12.29,0,0,0-19.53,0,57.89,57.89,0,0,1-97.61,0,10.55,10.55,0,0,0-17.77,11.36,79.4,79.4,0,0,0,15,17.36A244.61,244.61,0,0,1,203,227.3c.25-.69-17.42,15.53-17.76,15.76l-17.09-35.87c-6.46-12.38-24.57-3.78-19,9.06l23.17,48.64c2.77,6.24,11.61,8,16.57,3.29l5.35-4.82C172.19,328.27,173.78,396.24,211,473.24a10.52,10.52,0,0,0,9.57,6.13c7.47.14,12.89-8.18,9.57-14.95-19.55-42.84-22.57-59.11-27.65-89.73,42,2.71,74.91,16.75,102.78,43.85v50.29a10.55,10.55,0,0,0,21.09,0V418.71c26.53-24.44,60.37-39.48,103-45.75-5.13,31.75-8,47.84-27.89,91.46-3.32,6.76,2.09,15.11,9.56,14.95a10.53,10.53,0,0,0,9.58-6.13c36.21-74.59,39.05-142.9,18.09-205.22ZM257.28,173.34a78.59,78.59,0,0,0,58.57-26c21.07,24.14,58.14,32.7,87.9,20.38-3.27,61,13,91.89,23.57,141-.27-.08-222.55,0-222.93,0,2.93-14.67,7.13-28.64,11.1-43l11.95,18a10.52,10.52,0,0,0,8.79,4.71c8.19.17,13.49-9.6,8.77-16.38l-22.58-33.93A259.09,259.09,0,0,0,228,167.73a79.29,79.29,0,0,0,29.33,5.61ZM316,399.67c-31.28-28.68-69.18-43.83-115.44-46.21a183.38,183.38,0,0,1,.67-23.72s228-.24,229.12-.65a181.7,181.7,0,0,1,.8,22.33c-47.18,6.17-85,22-115.15,48.25Z"/><path d="M351.68,250.55l14.7,3.86L352.49,277c-4.39,6.81.93,16.24,9,16.07a10.53,10.53,0,0,0,9-5l21.36-34.67a10.55,10.55,0,0,0-6.3-15.73l-15.41-4,9.22-16.83a10.54,10.54,0,0,0-18.49-10.13l-15.71,28.66a10.61,10.61,0,0,0,6.57,15.27Z"/></svg>