<?xml version="1.0" encoding="utf-8"?>
<!-- Generator: Adobe Illustrator 24.0.2, SVG Export Plug-In . SVG Version: 6.00 Build 0)  -->
<svg version="1.1" id="Capa_1" xmlns="http://www.w3.org/2000/svg" xmlns:xlink="http://www.w3.org/1999/xlink" x="0px" y="0px"
	 viewBox="0 0 600 600" style="enable-background:new 0 0 600 600;" xml:space="preserve">
<g>
	<path d="M511.09,376.7l-37.61-61.25c-4.52-10.51-6.81-21.63-6.81-33.11c-0.02-28.62-6.22-82.31-47.58-120.43
		c-35.19-32.44-87.42-46.1-155.27-40.63c-71.92,5.81-125.95,37.86-152.14,90.25c-26.12,52.24-21.08,118.38,13.14,172.61
		c12.23,19.41,19.64,41.38,21.41,63.56c2.87,36.22,1.58,87.46-20.94,125.84c-3.19,5.44-3.22,12.16-0.09,17.63
		c3.14,5.47,8.95,8.85,15.26,8.85h216.73c11.23,0,19.59-10.41,17.16-21.39c-1.73-7.82-3.22-16.44-4.46-25.8
		c24.5,3.64,52.37,3.75,74.72-7.07c26.13-12.63,23.79-37.5,21.08-66.3c-1.35-14.2-2.95-31.27-2.85-52.69l24.8-3.21
		c0.27-0.04,0.54-0.07,0.81-0.12C511.55,419.32,521.18,393.13,511.09,376.7L511.09,376.7z M443.34,393.82
		c-8.5,1.1-14.95,8.16-15.3,16.72c-1.27,30.93,0.98,54.77,2.63,72.19c2.87,30.58,1.16,30.14-1.38,31.36
		c-16.2,7.84-42.87,7.76-75.12-0.22c0,0,0,0-0.01,0c-12.7-3.15-17.23-4.78-18.08-5.1c0.21,0.09,0.34,0.15,0.39,0.19
		c-0.79-0.22-16.66-4.59-23.36,9.84c-6.71,14.51,8.29,21.91,8.29,21.91c2.19,1.04,6.36,2.44,12.15,4.08
		c0.73,6.97,1.57,13.68,2.53,20.05H168.09c15.15-40.75,15.86-86.23,13.17-119.94c-2.21-27.83-11.45-55.32-26.72-79.52
		c-27.7-43.9-32.07-96.82-11.43-138.13c20.78-41.55,63.49-66.08,123.54-70.92c57.66-4.66,100.93,5.92,128.61,31.43
		c31.5,29.04,36.23,71.74,36.25,94.59c0,23.43,7.78,44.6,11.37,50.46l34.73,56.57L443.34,393.82z"/>
	<path d="M323.57,248.57h-38.25l29.78-42.16c5.6-7.93,3.71-18.9-4.22-24.5c-7.93-5.6-18.9-3.71-24.5,4.22l-49.35,69.88
		c-8.22,11.64,0.14,27.72,14.36,27.72h38.25l-29.76,42.14c-5.6,7.93-3.71,18.9,4.22,24.5c7.93,5.6,18.9,3.71,24.5-4.22
		c1.79-2.53,48.31-68.4,49.39-69.94C346.17,264.49,337.62,248.57,323.57,248.57L323.57,248.57z"/>
	<path d="M287.48,92.16c9.71,0,17.58-7.87,17.58-17.58V17.58c0-9.71-7.87-17.58-17.58-17.58c-9.71,0-17.58,7.87-17.58,17.58v57.01
		C269.9,84.29,277.77,92.16,287.48,92.16z"/>
	<path d="M444.57,112.62l40.31-40.31c6.86-6.86,6.86-17.99,0-24.86c-6.86-6.86-17.99-6.86-24.86,0l-40.31,40.31
		c-6.86,6.86-6.86,17.99,0,24.86C426.57,119.48,437.7,119.48,444.57,112.62z"/>
	<path d="M155.25,112.62c6.86-6.86,6.86-17.99,0-24.86l-40.31-40.31c-6.86-6.86-17.99-6.86-24.86,0s-6.86,17.99,0,24.86l40.31,40.31
		C137.25,119.48,148.38,119.48,155.25,112.62z"/>
</g>
</svg>
