<svg id="Capa_1" data-name="Capa 1" xmlns="http://www.w3.org/2000/svg" viewBox="0 0 600 600"><title>duro</title><path d="M598,114.63c-6.37-38.4-27-70.63-58.14-90.76A149.21,149.21,0,0,0,458.55,0c-48.37,0-95.36,22.88-125.73,61.24A1637,1637,0,0,1,61.22,332.83,161.58,161.58,0,0,0,2.8,429.15c-7.43,38.91.06,78.22,21.07,110.68C48.23,577.5,91.37,600,139.3,600h0c36.49,0,73.23-13.14,103.45-37A1930.81,1930.81,0,0,0,563,242.76C592.53,205.35,605.29,158.65,598,114.63ZM535.41,221A1896.3,1896.3,0,0,1,221,535.4c-24.06,19-53.06,29.44-81.68,29.44h0c-35.94,0-68.05-16.48-85.91-44.11C20.54,470,33.57,399.57,83,360.42A1673,1673,0,0,0,360.4,83c23.74-30,60.43-47.88,98.15-47.88a114.15,114.15,0,0,1,62.2,18.23c22.71,14.69,37.82,38.48,42.55,67C569,154.66,558.82,191.32,535.41,221Z"/></svg>