<svg id="Capa_1" data-name="Capa 1" xmlns="http://www.w3.org/2000/svg" viewBox="0 0 600 600"><title>duro_bolitas</title><path d="M223.13,111.77a21.13,21.13,0,0,1,0-23.44l.63-1A36.87,36.87,0,0,0,193.31,30,45.25,45.25,0,0,0,148.52,68a194.23,194.23,0,0,0,0,64.1A45.26,45.26,0,0,0,193.31,170h.08a36.87,36.87,0,0,0,30.34-57.37Zm-16.6,11.13.6.89A16.88,16.88,0,0,1,193.26,150a25.34,25.34,0,0,1-25-21.24,174.66,174.66,0,0,1,0-57.53,25.31,25.31,0,0,1,25-21.22,16.88,16.88,0,0,1,13.93,26.19l-.66,1A41.11,41.11,0,0,0,206.53,122.9Z"/><path d="M440,40a40,40,0,1,0,40,40A40,40,0,0,0,440,40Zm0,60a20,20,0,1,1,20-20A20,20,0,0,1,440,100Z"/><path d="M60,310a40,40,0,1,0,40,40A40,40,0,0,0,60,310Zm0,60a20,20,0,1,1,20-20A20,20,0,0,1,60,370Z"/><path d="M260,400a40,40,0,1,0,40,40A40,40,0,0,0,260,400Zm0,60a20,20,0,1,1,20-20A20,20,0,0,1,260,460Z"/><path d="M200,180a40,40,0,1,0,40,40A40,40,0,0,0,200,180Zm0,60a20,20,0,1,1,20-20A20,20,0,0,1,200,240Z"/><path d="M470,220a40,40,0,1,0,40,40A40,40,0,0,0,470,220Zm0,60a20,20,0,1,1,20-20A20,20,0,0,1,470,280Z"/><path d="M420,340a40,40,0,1,0,40,40A40,40,0,0,0,420,340Zm0,60a20,20,0,1,1,20-20A20,20,0,0,1,420,400Z"/><path d="M290,520a40,40,0,1,0,40,40A40,40,0,0,0,290,520Zm0,60a20,20,0,1,1,20-20A20,20,0,0,1,290,580Z"/><path d="M560,148.31,551.7,140a67.9,67.9,0,0,0-48.28-20H485.14a10,10,0,0,0-10,10v18.28a67.84,67.84,0,0,0,20,48.29l8.28,8.28a67.85,67.85,0,0,0,48.28,20A28.3,28.3,0,0,0,580,196.6,67.84,67.84,0,0,0,560,148.31Zm-8.28,56.57a48,48,0,0,1-34.14-14.14l-8.28-8.28a48,48,0,0,1-14.14-34.15V140h8.28a48,48,0,0,1,34.14,14.14l8.28,8.28A47.94,47.94,0,0,1,560,196.6,8.28,8.28,0,0,1,551.7,204.88Z"/><path d="M384.84,125.18H366.57a67.93,67.93,0,0,0-48.29,20L310,153.46a67.88,67.88,0,0,0-20,48.29A28.31,28.31,0,0,0,318.28,230a67.89,67.89,0,0,0,48.29-20l8.27-8.28a67.84,67.84,0,0,0,20-48.29V135.18A10,10,0,0,0,384.84,125.18Zm-10,28.28a48,48,0,0,1-14.13,34.15l-8.28,8.28A48,48,0,0,1,318.28,210a8.28,8.28,0,0,1-8.28-8.28,48,48,0,0,1,14.14-34.15l8.28-8.28a48,48,0,0,1,34.15-14.14h8.27Z"/><path d="M384.84,255.17H366.57a67.93,67.93,0,0,0-48.29,20L310,283.45a67.88,67.88,0,0,0-20,48.29A28.32,28.32,0,0,0,318.28,360a67.94,67.94,0,0,0,48.29-20l8.27-8.28a67.84,67.84,0,0,0,20-48.29V265.17A10,10,0,0,0,384.84,255.17Zm-10,28.28a48,48,0,0,1-14.13,34.15l-8.28,8.28A48,48,0,0,1,318.28,340a8.28,8.28,0,0,1-8.28-8.28,48,48,0,0,1,14.14-34.15l8.28-8.28a48,48,0,0,1,34.15-14.14h8.27Z"/><path d="M100,145.89,87.08,133a10,10,0,0,0-14.14,0L60,145.89a67.8,67.8,0,0,0-20,48.28v11.72a67.8,67.8,0,0,0,20,48.27,28.31,28.31,0,0,0,40,0,67.8,67.8,0,0,0,20-48.27V194.17A67.8,67.8,0,0,0,100,145.89Zm0,60A48,48,0,0,1,85.87,240a8.32,8.32,0,0,1-11.72,0A48,48,0,0,1,60,205.89V194.17A48,48,0,0,1,74.15,160L80,154.17,85.87,160A48,48,0,0,1,100,194.17Z"/><path d="M154.86,458.29,146.58,450a67.88,67.88,0,0,0-48.29-20H80a10,10,0,0,0-10,10v18.28a67.87,67.87,0,0,0,20,48.29l8.28,8.28a67.87,67.87,0,0,0,48.29,20,28.3,28.3,0,0,0,28.28-28.27A67.93,67.93,0,0,0,154.86,458.29Zm-8.28,56.57a48,48,0,0,1-34.15-14.14l-8.28-8.28A48,48,0,0,1,90,458.29V450h8.28a48,48,0,0,1,34.15,14.14l8.28,8.28a48,48,0,0,1,14.14,34.15A8.28,8.28,0,0,1,146.58,514.86Z"/><path d="M379.25,32a36.81,36.81,0,0,0-9.92-18.68,45.27,45.27,0,0,0-58.51-4.83A193.82,193.82,0,0,0,265.5,53.83a45.26,45.26,0,0,0,4.83,58.49l.06.06A36.3,36.3,0,0,0,296,123a37.29,37.29,0,0,0,11-1.68,36.33,36.33,0,0,0,25.32-28l.24-1.14a21.09,21.09,0,0,1,16.7-16.58l1.07-.22A36.86,36.86,0,0,0,379.25,32Zm-20,12.2a16.68,16.68,0,0,1-12.85,11.6l-1.07.22A41,41,0,0,0,313,88.27l-.24,1.14a16.86,16.86,0,0,1-28.35,8.74,25.3,25.3,0,0,1-2.68-32.7A173.89,173.89,0,0,1,322.4,24.78a25.32,25.32,0,0,1,32.69,2.64A16.68,16.68,0,0,1,359.23,44.22Z"/><path d="M573.11,401.75a21.13,21.13,0,0,1,0-23.44l.65-1A36.88,36.88,0,0,0,543.28,320,45.25,45.25,0,0,0,498.5,358a194.23,194.23,0,0,0,0,64.1A45.25,45.25,0,0,0,543.28,460h.08a36.87,36.87,0,0,0,30.35-57.37Zm-16.64,11.16.6.89A16.87,16.87,0,0,1,543.23,440a25.32,25.32,0,0,1-25-21.24,174.33,174.33,0,0,1,0-57.52,25.3,25.3,0,0,1,25-21.23,16.88,16.88,0,0,1,13.93,26.2l-.66,1A41.12,41.12,0,0,0,556.47,412.91Z"/><path d="M461.52,493.8a193.82,193.82,0,0,0-45.32-45.32,45.24,45.24,0,0,0-58.49,4.83l-.06.06a36.87,36.87,0,0,0,19,62l1.14.24a21.06,21.06,0,0,1,16.59,16.61l.22,1.07a36.36,36.36,0,0,0,25.4,28A37.29,37.29,0,0,0,431,563a36.39,36.39,0,0,0,25.71-10.71A45.24,45.24,0,0,0,461.52,493.8Zm-18.91,44.3a16.89,16.89,0,0,1-28.4-8.75l-.22-1.07A41,41,0,0,0,381.75,496l-1.14-.24a16.86,16.86,0,0,1-8.74-28.35,25.32,25.32,0,0,1,32.71-2.68,174.08,174.08,0,0,1,40.67,40.67A25.3,25.3,0,0,1,442.61,538.1Z"/><path d="M239.65,290.69h-.06a36.87,36.87,0,0,0-62,19l-.24,1.14a21.08,21.08,0,0,1-16.62,16.59l-1.07.22a36.86,36.86,0,0,0-19,62,45.26,45.26,0,0,0,58.51,4.83,193.74,193.74,0,0,0,45.31-45.31A45.26,45.26,0,0,0,239.65,290.69Zm-11.42,46.89a174,174,0,0,1-40.66,40.66,25.34,25.34,0,0,1-32.69-2.64,16.88,16.88,0,0,1,8.75-28.39l1.07-.22A41,41,0,0,0,197,314.75l.24-1.14a16.81,16.81,0,0,1,28.3-8.75A25.32,25.32,0,0,1,228.23,337.58Z"/></svg>