<svg id="Capa_1" data-name="Capa 1" xmlns="http://www.w3.org/2000/svg" viewBox="0 0 600 600"><title>embarazo</title><path d="M155.52,246.62c7.92,26.94,4.39,56.68-9.93,83.76-14.62,27.63-23,60.86-23,91.15a161.82,161.82,0,0,0,23.86,84.6c15.27,24.93,23,50.48,23,76v.34A17.58,17.58,0,0,0,187.05,600h187.5a17.58,17.58,0,0,0,17.57-17.58v-2a138.24,138.24,0,0,0-17.47-67c69.29-27.44,92.74-71.1,99.9-104.39,11-51.2-10.24-110.41-56-159.53,17.47-11.75,32.85-32.57,42.81-59.39a17.6,17.6,0,0,0-5.06-19.48,478.65,478.65,0,0,0-48.67-36.5A483.09,483.09,0,0,0,306.23,83.7a29.47,29.47,0,0,1-19.58-27.6V17.58A17.58,17.58,0,0,0,269.08,0h-82a17.58,17.58,0,0,0-17.58,17.58V38.46c0,25.14-4.29,51.94-13.1,81.94-11.54,39.26-13.15,81.18-2.47,120.67.38,1.4,1.62,5.55,1.62,5.55Zm284.66,155c-7.9,36.71-38,65-87.32,82.38A137.07,137.07,0,0,0,325,461.88,17.58,17.58,0,1,0,306.91,492a103.67,103.67,0,0,1,48.85,72.81H203.67c-2.86-26.08-12.13-52.42-27.24-77.08a126.69,126.69,0,0,1-18.68-66.23c0-24.38,7.07-52.31,18.92-74.71,18.63-35.23,23.1-74.33,12.58-110.12l-1.33-4.49a195.19,195.19,0,0,1,2.18-101.9c9.77-33.26,14.52-63.31,14.52-91.85v-3.3H251.5V56.1a64.71,64.71,0,0,0,42.85,60.69,447.78,447.78,0,0,1,94,46.74c12.1,7.92,23.91,16.52,35.23,25.64C412.21,212.74,396.91,225,386.26,225a41.15,41.15,0,0,1-12.21-1.84,17.58,17.58,0,0,0-10.44,33.57A75.64,75.64,0,0,0,379,259.8c47.37,43.36,70.73,97.27,61.15,141.83Z"/><path d="M336.28,283.59a54.83,54.83,0,0,0-26.55,6.79,55.13,55.13,0,0,0-65.52,87.31l53.09,53.1a17.58,17.58,0,0,0,24.86,0l53.1-53.1a55.13,55.13,0,0,0-39-94.1Zm14.12,69.24L309.73,393.5l-40.66-40.67A20,20,0,1,1,297.3,324.6a17.58,17.58,0,0,0,24.86,0,20,20,0,0,1,28.24,28.23Z"/></svg>