<svg id="Capa_1" data-name="Capa 1" xmlns="http://www.w3.org/2000/svg" viewBox="0 0 593.9 544"><title>enfermedades</title><path d="M416.49,28A178.84,178.84,0,0,0,300,70.65,178.84,178.84,0,0,0,183.51,28C84,28,3.05,109,3.05,208.47A176.33,176.33,0,0,0,55.18,333.88c2.3,2.3,229.23,229.21,232.93,232.93A17.4,17.4,0,0,0,300.22,572h.28a17.37,17.37,0,0,0,12.3-5.1l.07-.06c2.56-2.58,230.64-230.66,233-233C579.27,300.43,597,257.06,597,208.47,597,109,516,28,416.49,28ZM521.21,309.27,300.5,530,79.79,309.27C52.35,281.84,37.85,247,37.85,208.47c0-80.33,65.34-145.67,145.66-145.67a144.57,144.57,0,0,1,104.06,43.78,17.39,17.39,0,0,0,24.86,0A144.57,144.57,0,0,1,416.49,62.8c80.32,0,145.66,65.34,145.66,145.67C562.15,247.63,548,282.49,521.21,309.27Z" transform="translate(-3.05 -28)"/><path d="M300,145.46c-77.59,0-140.72,63.08-140.72,140.62S222.41,426.7,300,426.7s140.72-63.08,140.72-140.62S377.59,145.46,300,145.46Zm0,246.44A105.82,105.82,0,1,1,405.92,286.08,106,106,0,0,1,300,391.9Z" transform="translate(-3.05 -28)"/><path d="M335.54,286.49,308,270.59l27.56-15.89a17.4,17.4,0,0,0-17.38-30.15l-53.7,31a17.4,17.4,0,0,0,0,30.15L292,301.57l-27.57,15.89a17.4,17.4,0,1,0,17.38,30.15l53.71-31a17.41,17.41,0,0,0,0-30.15Z" transform="translate(-3.05 -28)"/></svg>