<?xml version="1.0" encoding="utf-8"?>
<!-- Generator: Adobe Illustrator 24.0.2, SVG Export Plug-In . SVG Version: 6.00 Build 0)  -->
<svg version="1.1" id="Capa_1" xmlns="http://www.w3.org/2000/svg" xmlns:xlink="http://www.w3.org/1999/xlink" x="0px" y="0px"
	 viewBox="0 0 600 600" style="enable-background:new 0 0 600 600;" xml:space="preserve">
<g id="surface1">
	<path d="M582.42,225.94H444.35c-9.71,0-17.58,7.87-17.58,17.58v95.39h-93.25c-7.36-21.86-28.04-37.66-52.35-37.66h-20.08v-40.16
		h20.08c30.46,0,55.23-24.78,55.23-55.24V55.23C336.41,24.78,311.63,0,281.17,0c-20.45,0-38.32,11.18-47.87,27.74
		C216.83,10.66,193.74,0,168.2,0c-49.89,0-90.48,40.59-90.48,90.48c0,20.82,7.09,40.01,18.96,55.32H55.23
		C24.78,145.8,0,170.58,0,201.03v150.62c0,30.46,24.78,55.24,55.23,55.24c7.08,0,13.85-1.34,20.08-3.78v141.65
		c0,30.46,24.77,55.23,55.23,55.23c8.84,0,17.21-2.1,24.62-5.81c3.22,3.56,7.86,5.81,13.03,5.81h367.15C571,600,600,571,600,535.35
		V243.52C600,233.81,592.13,225.94,582.42,225.94z M112.88,90.48c0-30.51,24.82-55.32,55.32-55.32c30.51,0,55.32,24.82,55.32,55.32
		c0,30.5-24.82,55.32-55.32,55.32C137.7,145.8,112.88,120.98,112.88,90.48z M55.23,371.74c-11.07,0-20.08-9.01-20.08-20.08V201.03
		c0-11.07,9.01-20.08,20.08-20.08h188.28c9.71,0,17.58-7.87,17.58-17.58V55.23c0-11.07,9.01-20.08,20.08-20.08
		c11.07,0,20.08,9.01,20.08,20.08v150.63c0,11.07-9,20.08-20.08,20.08h-37.66c-9.71,0-17.58,7.87-17.58,17.58v57.73H110.47v-57.73
		c0-9.71-7.87-17.58-17.58-17.58c-9.71,0-17.58,7.87-17.58,17.58v108.14C75.32,362.73,66.31,371.74,55.23,371.74z M130.55,564.84
		c-11.07,0-20.08-9-20.08-20.08V336.41h170.7c11.07,0,20.08,9.01,20.08,20.08v75.32c0,11.07-9.01,20.08-20.08,20.08
		c-11.07,0-20.08-9.01-20.08-20.08v-37.66c0-9.71-7.87-17.58-17.58-17.58H168.2c-9.71,0-17.58,7.87-17.58,17.58v150.62
		C150.62,555.84,141.62,564.84,130.55,564.84z M229.73,451.88h-43.95v-40.16h40.16v20.08C225.94,438.88,227.29,445.65,229.73,451.88
		z M564.84,535.35c0,16.26-13.23,29.49-29.49,29.49H185.78v-77.81h133.05c9.71,0,17.58-7.87,17.58-17.58v-95.39h107.94
		c9.71,0,17.58-7.87,17.58-17.58v-95.39h102.92V535.35z"/>
</g>
</svg>
