<svg id="Capa_1" enable-background="new 0 0 512.132 512.132" height="512" viewBox="0 0 512.132 512.132" width="512" xmlns="http://www.w3.org/2000/svg"><g><path d="m80.066 192.066v-57h-42v-27h-30v57h42v27z"/><path d="m192.066 80.066v-30h-27v-42h-57v30h27v42z"/><path d="m320.066 432.066v30h27v42h57v-30h-27v-42z"/><path d="m432.066 320.066v57h42v27h30v-57h-42v-27z"/><path d="m387.708 18.358c-17.546 17.545-41.521 27.831-69.333 29.744-62.485 4.298-122.703 35.012-178.981 91.291-56.279 56.279-86.994 116.497-91.292 178.982-1.913 27.813-12.198 51.788-29.745 69.333l-18.357 18.358 106.065 106.065 18.358-18.358c17.546-17.545 41.521-27.831 69.333-29.744 62.485-4.298 122.703-35.012 178.981-91.291s86.993-116.497 91.291-178.981c1.913-27.813 12.198-51.788 29.745-69.333l18.356-18.358-106.063-106.066zm82.045 87.756c-20.749 22.189-33.371 52.412-35.653 85.585-3.786 55.046-31.568 108.82-82.574 159.826-51.007 51.007-104.78 78.789-159.827 82.575-33.175 2.282-63.396 14.902-85.585 35.653l-21.261-21.261 49.305-49.305c17.987 1.906 39.531 1.576 61.05-1.596 52.044-7.672 98.762-30.936 135.104-67.278 36.343-36.343 59.606-83.061 67.278-135.104 4.054-27.503 2.794-49.746 1.595-61.049l49.307-49.307zm-181.868 181.772c42.604-42.603 61.537-94.167 66.26-108.686l16.134-16.134c-.203 8.45-.912 18.222-2.532 28.856-6.979 45.816-26.712 85.241-58.648 117.177-31.938 31.937-71.361 51.669-117.178 58.649-10.634 1.62-20.407 2.329-28.857 2.532l16.134-16.134c14.517-4.722 66.083-23.655 108.687-66.26zm-89.989 26.318c9.394-19.746 24.687-45.868 47.563-68.745 22.791-22.791 48.979-38.106 68.775-47.531-9.394 19.745-24.688 45.87-47.563 68.744-22.79 22.792-48.98 38.109-68.775 47.532zm135.038-156.219c-14.517 4.722-66.083 23.656-108.687 66.261-42.604 42.603-61.537 94.167-66.26 108.686l-16.134 16.134c.203-8.45.912-18.222 2.532-28.856 6.979-45.816 26.712-85.241 58.648-117.177 31.938-31.937 71.361-51.669 117.178-58.649 10.634-1.62 20.407-2.328 28.856-2.532zm45.039-45.039c-11.302-1.199-33.546-2.46-61.048 1.595-52.044 7.672-98.762 30.936-135.104 67.278-36.343 36.343-59.606 83.061-67.278 135.104-4.054 27.503-2.794 49.746-1.595 61.049l-49.307 49.307-21.261-21.261c20.749-22.189 33.371-52.412 35.653-85.585 3.786-55.046 31.568-108.82 82.574-159.826 51.007-51.007 104.78-78.789 159.827-82.575 33.175-2.282 63.396-14.902 85.585-35.653l21.261 21.261z"/></g></svg>