<svg id="Capa_1" data-name="Capa 1" xmlns="http://www.w3.org/2000/svg" viewBox="0 0 600 600"><title>estacional</title><path d="M300,594.5A294.5,294.5,0,0,1,91.76,91.76,294.5,294.5,0,1,1,508.24,508.24,292.54,292.54,0,0,1,300,594.5Zm0-573C146.43,21.5,21.5,146.43,21.5,300S146.43,578.5,300,578.5,578.5,453.57,578.5,300,453.57,21.5,300,21.5Z"/><path d="M426.15,173.63A179.68,179.68,0,0,0,119.42,300.68a176.61,176.61,0,0,0,17.35,77.1A41.47,41.47,0,0,0,147,396.43c.51.81,1,1.59,1.49,2.35a48.83,48.83,0,0,0,71,67,41.82,41.82,0,0,0,47.1,11.64,172.44,172.44,0,0,0,32.46,2.92,179.68,179.68,0,0,0,127-306.73Zm-193.6,273.9a1.3,1.3,0,0,0-.08-.17,20.46,20.46,0,0,1-1.56-4.88A10.53,10.53,0,0,0,210.6,441a27.8,27.8,0,1,1-38.26-34.13A10.53,10.53,0,0,0,171,387.33a20.68,20.68,0,0,1-8.12-4.85l-.32-.3a20.68,20.68,0,0,1,22.09-33.86,10.71,10.71,0,0,0,2.24.59,152.38,152.38,0,0,0,89.63-13.55c4.43,23.54,10.6,73.13-6.07,111.33-5.87,9.78-16,12.63-19.21,12.63a20.67,20.67,0,0,1-18.67-11.79Zm178.71-34.68A157.58,157.58,0,0,1,299.1,459.31c-4,0-7.69-.13-11.33-.37a10.9,10.9,0,0,0,1-1.69c9.25-20.11,12.86-42.59,13.59-63.58L314.94,412a10.52,10.52,0,0,0,17.72-.09l15.83-23.07,16,23.39a10.53,10.53,0,0,0,17.36-11.91l-24.72-36a10.52,10.52,0,0,0-17.36,0l-16,23.37-16-23.37a10.48,10.48,0,0,0-6.45-4.33,278.66,278.66,0,0,0-7.42-43.66,10.53,10.53,0,0,0-16.37-5.73c-.35.25-34.75,24.89-86.51,17.66a41.7,41.7,0,0,0-45.5,12.39,158.68,158.68,0,1,1,265.78,72.24Z"/><path d="M386.24,231.61a10.52,10.52,0,0,0-14.38-3.85L324.33,255.2a10.53,10.53,0,0,0,0,18.23l47.53,27.44a10.53,10.53,0,1,0,10.53-18.23l-31.74-18.32L382.39,246A10.52,10.52,0,0,0,386.24,231.61Z"/><path d="M273.87,255.2l-47.52-27.44A10.53,10.53,0,1,0,215.82,246l31.73,18.33-31.73,18.32a10.53,10.53,0,1,0,10.53,18.23l47.52-27.44a10.52,10.52,0,0,0,0-18.23Z"/></svg>