<svg id="Capa_1" enable-background="new 0 0 512 512" height="512" viewBox="0 0 512 512" width="512" xmlns="http://www.w3.org/2000/svg"><g><path d="m457 422h-7v-125c0-41.355-33.645-75-75-75h-65v-207c0-8.284-6.716-15-15-15h-180c-8.284 0-15 6.716-15 15v49.58c-4.695-1.665-9.741-2.58-15-2.58h-40c-24.813 0-45 20.187-45 45 0 0 .002 210.231.003 210.276l1.134 61.587c.545 29.654 21.021 55.389 49.796 62.582 16.896 4.224 28.81 19.31 28.971 36.685.095 10.373.096 18.787.096 18.87 0 8.284 6.716 15 15 15h110c4.821 0 9.35-2.318 12.169-6.229s3.586-8.94 2.062-13.514l-13.42-40.259c63.039-.439 114.189-51.858 114.189-114.998v-5h30v165c0 8.284 6.716 15 15 15h132c8.284 0 15-6.716 15-15v-20c0-30.327-24.673-55-55-55zm-327-133.855c4.252 4.97 8.885 9.604 13.855 13.855h-13.855zm-100-181.145c0-8.271 6.729-15 15-15h40c8.271 0 15 6.729 15 15v195h-70zm260 230c0 46.869-38.131 85-85 85h-20c-4.821 0-9.35 2.318-12.169 6.229s-3.586 8.94-2.062 13.514l13.419 40.257h-74.252c-.011-1.335-.021-2.723-.035-4.147-.286-31.035-21.543-57.975-51.693-65.512-15.646-3.912-26.78-17.905-27.077-34.03l-.853-46.311h259.722zm192 145h-102v-165c0-8.284-6.716-15-15-15h-140c-52.383 0-95-42.617-95-95v-177h150v192h-34c-8.284 0-15 6.716-15 15s6.716 15 15 15h129c24.813 0 45 20.187 45 45v140c0 8.284 6.716 15 15 15h22c13.785 0 25 11.215 25 25z"/><path d="m347 137h49.5v58c0 6.468 4.146 12.208 10.286 14.24 1.551.513 3.14.761 4.712.761 4.653 0 9.155-2.171 12.039-6.051l85.5-115c3.384-4.55 3.912-10.62 1.365-15.686s-7.732-8.264-13.402-8.264h-42.644l29.799-41.211c3.302-4.566 3.766-10.597 1.202-15.614-2.563-5.017-7.722-8.175-13.357-8.175h-79c-5.994 0-11.413 3.569-13.78 9.076l-46 107c-1.993 4.635-1.521 9.961 1.253 14.175 2.775 4.213 7.482 6.749 12.527 6.749zm55.879-107h39.765l-29.799 41.211c-3.302 4.566-3.766 10.597-1.202 15.614 2.563 5.017 7.722 8.175 13.357 8.175h42.156l-40.656 54.684v-27.684c0-8.284-6.716-15-15-15h-41.724z"/></g></svg>