<svg id="Capa_1" data-name="Capa 1" xmlns="http://www.w3.org/2000/svg" viewBox="0 0 600 600"><title>feliz</title><path d="M300,0C134.58,0,0,134.58,0,300S134.58,600,300,600,600,465.42,600,300,465.42,0,300,0Zm0,564.84C154,564.84,35.16,446,35.16,300S154,35.16,300,35.16,564.84,154,564.84,300,446,564.84,300,564.84Z"/><path d="M228.39,243.75a17.58,17.58,0,1,0,33.26-11.39,76.76,76.76,0,0,0-145.26,0,17.58,17.58,0,1,0,33.27,11.37,41.61,41.61,0,0,1,78.73,0Z"/><path d="M411.08,180.47a76.76,76.76,0,0,0-72.64,51.94,17.58,17.58,0,1,0,33.27,11.37,41.61,41.61,0,0,1,78.73,0,17.58,17.58,0,1,0,33.26-11.38,76.75,76.75,0,0,0-72.62-51.9Z"/><path d="M414.7,373.38a17.56,17.56,0,0,0-24.09,6.1,105.47,105.47,0,0,1-181.08.22,17.58,17.58,0,0,0-30.16,18.07,140.62,140.62,0,0,0,241.44-.3,17.57,17.57,0,0,0-6.11-24.09Z"/></svg>