<svg id="Capa_1" enable-background="new 0 0 512 512" height="512" viewBox="0 0 512 512" width="512" xmlns="http://www.w3.org/2000/svg"><g><path d="m407 362h-76v-23.153c3.344-2.264 6.604-4.681 9.766-7.255 1.649.254 3.392.409 5.234.409 24.813 0 45-20.187 45-45 0-7.669-2.026-15.072-5.921-21.794 3.979-12.99 5.921-25.557 5.921-38.207v-152c0-41.355-33.645-75-75-75h-120c-41.355 0-75 33.645-75 75v152c0 46.708 23.846 87.947 60 112.194v22.806h-76c-57.897 0-105 47.103-105 105v30c0 8.284 6.716 15 15 15h482c8.284 0 15-6.716 15-15v-30c0-57.897-47.103-105-105-105zm-211-332h120c24.813 0 45 20.187 45 45v45h-75c-24.813 0-45-20.187-45-45 0-8.284-6.716-15-15-15h-30c-16.871 0-32.456 5.603-45 15.041v-.041c0-24.813 20.187-45 45-45zm-45 197v-92c0-24.813 20.187-45 45-45h16.507c6.969 34.191 37.274 60 73.493 60h75v77c0 11.539-2.174 23.161-6.648 35.53-1.843 5.097-.794 10.791 2.745 14.896 2.59 3.004 3.903 6.226 3.903 9.575 0 8.271-6.729 15-15 15-1.012 0-2.781-.548-4.506-1.109-5.145-1.674-10.795-.447-14.783 3.211-19.607 17.989-44.72 27.897-70.711 27.897-57.897 0-105-47.103-105-105zm105 135c15.451 0 30.645-2.702 45-7.873v22.873c0 24.813-20.187 45-45 45s-45-20.187-45-45v-22.722c14.082 4.994 29.227 7.722 45 7.722zm226 120h-60v-15c0-8.284-6.716-15-15-15s-15 6.716-15 15v15h-272v-15c0-8.284-6.716-15-15-15s-15 6.716-15 15v15h-60v-15c0-41.355 33.645-75 75-75h77.509c6.968 34.192 37.272 60 73.491 60s66.522-25.808 73.491-60h77.509c41.355 0 75 33.645 75 75z"/><path d="m199.754 267.386c-5.482 6.211-4.891 15.69 1.32 21.172s15.689 4.89 21.172-1.32c8.548-9.684 20.851-15.238 33.754-15.238s25.206 5.554 33.754 15.239c5.474 6.201 14.953 6.809 21.172 1.32 6.211-5.482 6.802-14.961 1.32-21.172-14.24-16.134-34.741-25.387-56.246-25.387s-42.006 9.253-56.246 25.386z"/><path d="m420.014 332.659 28.191 10.261c7.801 2.84 16.399-1.198 19.226-8.965 2.833-7.785-1.18-16.392-8.965-19.226l-28.191-10.261c-7.784-2.833-16.393 1.18-19.226 8.965s1.18 16.392 8.965 19.226z"/><path d="m436 272h30c8.284 0 15-6.716 15-15s-6.716-15-15-15h-30c-8.284 0-15 6.716-15 15s6.716 15 15 15z"/></g></svg>