<?xml version="1.0" encoding="utf-8"?>
<!-- Generator: Adobe Illustrator 24.0.2, SVG Export Plug-In . SVG Version: 6.00 Build 0)  -->
<svg version="1.1" id="Capa_1" xmlns="http://www.w3.org/2000/svg" xmlns:xlink="http://www.w3.org/1999/xlink" x="0px" y="0px"
	 viewBox="0 0 600 600" style="enable-background:new 0 0 600 600;" xml:space="preserve">
<g>
	<path d="M494.69,335.09c0,9.69,7.86,17.55,17.55,17.55c9.69,0,17.55-7.86,17.55-17.55c0-78.98-41.03-109.76-77.23-136.9
		c-33.91-25.43-63.19-47.39-63.19-108.82c0-9.69-7.86-17.55-17.55-17.55c-9.69,0-17.55,7.86-17.55,17.55
		c0,78.98,41.03,109.76,77.23,136.9C465.41,251.7,494.69,273.66,494.69,335.09z"/>
	<path d="M529.79,89.36c0-9.69-7.86-17.55-17.55-17.55c-9.69,0-17.55,7.86-17.55,17.55c0,75.52,20.22,105.85,38.05,132.6
		c16.54,24.81,32.16,48.23,32.16,113.13c0,9.69,7.86,17.55,17.55,17.55S600,344.78,600,335.09c0-75.52-20.22-105.85-38.05-132.6
		C545.41,177.69,529.79,154.26,529.79,89.36z"/>
	<path d="M582.45,387.75h-564c-9.69,0-17.55,7.86-17.55,17.55v105.31c0,9.69,7.86,17.55,17.55,17.55h564
		c9.69,0,17.55-7.86,17.55-17.55V405.3C600,395.6,592.14,387.75,582.45,387.75z M494.69,422.85v70.21h-246.9v-70.21H494.69z
		 M36,422.85h176.69v70.21H36V422.85z M564.9,493.06h-35.1v-70.21h35.1V493.06z"/>
</g>
</svg>
