<svg id="Capa_1" data-name="Capa 1" xmlns="http://www.w3.org/2000/svg" viewBox="0 0 600 600"><title>gastrico</title><path d="M300,594.5A294.5,294.5,0,0,1,91.76,91.76,294.5,294.5,0,1,1,508.24,508.24,292.54,292.54,0,0,1,300,594.5Zm0-573C146.43,21.5,21.5,146.43,21.5,300S146.43,578.5,300,578.5,578.5,453.57,578.5,300,453.57,21.5,300,21.5Z"/><path d="M398.21,258a52.46,52.46,0,0,0-52.4-52.4H330.64a31.21,31.21,0,0,0,1.82-10.54V132.17A10.45,10.45,0,0,0,322,121.72h-42a10.45,10.45,0,0,0-10.45,10.45v31.51H248.18A52.39,52.39,0,0,0,216.82,258a52.36,52.36,0,0,0,0,83.92,52.39,52.39,0,0,0,31.36,94.36H269.6v31.51a10.45,10.45,0,0,0,10.45,10.45h42a10.45,10.45,0,0,0,10.45-10.45V404.9a31.21,31.21,0,0,0-1.82-10.54h15.17A52.39,52.39,0,0,0,377.17,300,52.35,52.35,0,0,0,398.21,258Zm-52.4,31.51H253a10.45,10.45,0,0,0,0,20.9h92.8a31.51,31.51,0,0,1,0,63H253a10.45,10.45,0,1,0,0,20.89h48a10.55,10.55,0,0,1,10.53,10.54v52.49H290.5V425.87a10.45,10.45,0,0,0-10.45-10.44H248.18a31.52,31.52,0,0,1,0-63H341a10.45,10.45,0,1,0,0-20.89h-92.8a31.51,31.51,0,0,1,0-63H341a10.45,10.45,0,1,0,0-20.89h-92.8a31.52,31.52,0,0,1,0-63h31.87a10.45,10.45,0,0,0,10.45-10.44V142.61h21.06V195.1A10.55,10.55,0,0,1,301,205.64H253a10.45,10.45,0,1,0,0,20.89h92.8a31.51,31.51,0,0,1,0,63Z"/><path d="M164.82,310.45a10.45,10.45,0,1,0,0-20.9H133a10.45,10.45,0,0,0,0,20.9Z"/><path d="M174.37,249.35l-30-10.71a10.45,10.45,0,0,0-7,19.68l30,10.71a10.45,10.45,0,1,0,7-19.68Z"/><path d="M167.35,331l-30,10.71a10.45,10.45,0,1,0,7,19.68l30-10.71a10.45,10.45,0,1,0-7-19.68Z"/><path d="M467.05,289.55H435.18a10.45,10.45,0,0,0,0,20.9h31.87a10.45,10.45,0,0,0,0-20.9Z"/><path d="M462.67,341.68l-30-10.71a10.45,10.45,0,1,0-7,19.68l30,10.71a10.26,10.26,0,0,0,3.51.61,10.45,10.45,0,0,0,3.51-20.29Z"/><path d="M429.14,269.64a10.5,10.5,0,0,0,3.51-.61l30-10.71a10.45,10.45,0,0,0-7-19.68l-30,10.71a10.45,10.45,0,0,0,3.51,20.29Z"/></svg>