<svg id="Layer_1" enable-background="new 0 0 512 512" height="512" viewBox="0 0 512 512" width="512" xmlns="http://www.w3.org/2000/svg"><g><path d="m159.6 383.467c34.849 0 63.2-28.352 63.2-63.2v-144.6c0-8.284-6.716-15-15-15h-32.15c-80.446 0-145.65-65.083-145.65-145.667 0-8.284-6.716-14.992-15-14.992s-15 6.724-15 15.008c0 97.009 78.484 175.65 175.65 175.65h17.15v129.6c0 18.307-14.894 33.2-33.2 33.2h-16.082c-79.136.001-143.518 64.382-143.518 143.518v.016c0 8.284 6.716 14.992 15 14.992s15-6.724 15-15.008c0-62.593 50.924-113.517 113.518-113.517z"/><path d="m304.184 0c-56.664 0-103.14 42.152-110.39 96.4h-18.144c-44.875 0-81.384-36.509-81.384-81.384v-.016c0-8.284-6.716-14.992-15-14.992s-15 6.724-15 15.008c0 61.417 49.967 111.384 111.384 111.384h32.15c8.284 0 15-6.732 15-15.016 0-44.953 36.362-81.384 81.4-81.384 98.203 0 177.8 79.443 177.8 177.8 0 151.459-122.551 274.2-274.2 274.2h-16.066c-18.351 0-33.2-14.841-33.2-33.2v-16.066c0-8.284-6.731-15-15.016-15-43.692 0-79.251 35.544-79.251 79.267 0 8.284 6.716 14.992 15 14.992s15-6.724 15-15.008c0-11.705 6.152-37.875 34.279-46.892.684 34.263 28.62 61.907 63.187 61.907h16.067c168.031 0 304.2-135.959 304.2-304.2 0-115.434-93.777-207.8-207.816-207.8z"/></g></svg>