<svg id="Capa_1" enable-background="new 0 0 512.003 512.003" height="512" viewBox="0 0 512.003 512.003" width="512" xmlns="http://www.w3.org/2000/svg"><g><path d="m205.1 510.792c6.768 2.895 14.658.457 18.596-5.801l180-286c2.909-4.622 3.076-10.46.436-15.241s-7.669-7.749-13.131-7.749h-120.16l44.705-177.333c1.803-7.153-1.862-14.555-8.644-17.457-6.783-2.902-14.667-.442-18.596 5.801l-180 286c-2.909 4.622-3.076 10.46-.436 15.241s7.669 7.749 13.131 7.749h120.16l-44.705 177.333c-1.803 7.153 1.862 14.555 8.644 17.457zm-56.934-224.79 115.187-183.019-26.307 104.353c-1.13 4.484-.129 9.238 2.713 12.886 2.842 3.647 7.208 5.78 11.832 5.78h112.247l-115.188 183.019 26.307-104.353c1.13-4.484.129-9.238-2.713-12.886-2.842-3.647-7.208-5.78-11.832-5.78z"/></g></svg>