<svg id="Capa_1" enable-background="new 0 0 512 512" height="512" viewBox="0 0 512 512" width="512" xmlns="http://www.w3.org/2000/svg"><g><path d="m256 0c-141.477 0-255.97 114.484-255.97 255.97 0 68.372 26.627 132.655 74.971 180.999 100.039 100.039 261.956 100.042 361.998 0 48.344-48.344 74.971-112.627 74.971-180.999 0-141.476-114.483-255.97-255.97-255.97zm0 481.944c-124.606 0-225.974-101.368-225.974-225.974s101.368-225.973 225.974-225.973 225.974 101.368 225.974 225.973-101.368 225.974-225.974 225.974z"/><path d="m150.268 140.461h51.491c8.283 0 14.998-6.715 14.998-14.998s-6.715-14.998-14.998-14.998h-51.491c-8.283 0-14.998 6.715-14.998 14.998s6.714 14.998 14.998 14.998z"/><path d="m310.241 140.461h51.491c8.283 0 14.998-6.715 14.998-14.998s-6.715-14.998-14.998-14.998h-51.491c-8.283 0-14.998 6.715-14.998 14.998s6.715 14.998 14.998 14.998z"/><path d="m373.256 180.979h-234.512c-15.168 0-27.517 12.339-27.517 27.507 0 35.982 9.129 68.307 33.346 97.219v68.762c0 50.902 61.203 77.484 97.649 41.645 11.069-10.879 17.168-25.427 17.168-40.945v-17.048c67.044-1.237 103.668-48.127 104.668-48.624 23.812-26.657 36.716-59.315 36.716-101.008-.001-15.169-12.349-27.508-27.518-27.508zm-120.456 147.083c-12.544-.41-23.407 9.535-23.407 22.577v24.527c0 15.387-12.618 27.705-27.887 27.417-14.858-.26-26.937-12.868-26.937-28.117 0-6.805 0-61.183 0-68.932 41.372-46.903 113.05-49.244 157.112-6.079-19.582 17.749-48.714 29.615-78.881 28.607zm98.679-51.194c-53.193-50.926-137.337-51.087-191.048.13-13.957-20.593-19.208-42.26-19.208-66.022h229.553c.001 23.727-5.656 45.495-19.297 65.892z"/></g></svg>