<svg id="Capa_1" enable-background="new 0 0 512 512" height="512" viewBox="0 0 512 512" width="512" xmlns="http://www.w3.org/2000/svg"><g><path d="m505.523 105c4.302-9.589 6.477-19.647 6.477-30 0-41.355-33.645-75-75-75-10.354 0-20.411 2.174-30 6.477-25.878-11.61-54.768-6.926-75.926 8.852-20.96-15.973-49.39-20.376-75.074-8.852-25.679-11.521-54.11-7.124-75.075 8.852-33.6-25.056-80.422-18.807-105.598 14.673-.109-.002-.218-.002-.327-.002-41.355 0-75 33.645-75 75 0 16.299 5.444 32.071 15.271 45-20.375 26.806-20.337 63.244 0 90-20.375 26.806-20.337 63.244 0 90-25.104 33.028-18.547 79.616 14.729 104.689v62.311c0 8.284 6.716 15 15 15h60c8.284 0 15-6.716 15-15v-62.311c33.233-25.041 39.884-71.595 14.729-104.689 20.374-26.805 20.338-63.243 0-90 20.376-26.808 20.336-63.245 0-90.001.09 0 .181.001.272.001 16.511 0 32.836-5.568 45.925-15.328 20.961 15.973 49.39 20.375 75.075 8.851 25.68 11.521 54.11 7.124 75.074-8.851 9.44 7.039 20.562 11.897 32.224 14.06 2.155 11.312 6.943 22.019 13.974 31.269-13.19 17.353-18.577 39.99-13.225 62.205-15.841-3.892-32.422-2.738-48.047 4.272-9.589-4.302-19.646-6.477-30-6.477-41.355 0-75 33.645-75 75 0 13.174 3.491 25.922 10.167 37.346-6.671 16.086-10.168 34.107-10.168 52.653 0 49.905 27.32 107 75 107 47.832 0 75-57.34 75-107 0-5.43-.324-10.848-.982-16.328 11.545-2.191 22.554-7.026 31.907-14 12.943 9.863 28.744 15.328 45.075 15.328 41.355 0 75-33.645 75-75 0-16.3-5.444-32.071-15.271-45 20.374-26.805 20.338-63.243 0-90 16.126-21.216 20.173-49.637 8.794-75zm-29.809 7.546c11.298 19.408 6.87 42.043-9.281 56.161-6.838 5.977-6.829 16.617 0 22.587 20.665 18.062 20.89 49.151 0 67.413-6.838 5.977-6.829 16.617 0 22.587 10.039 8.774 15.567 20.744 15.567 33.706 0 24.813-20.187 45-45 45-12.962 0-24.932-5.528-33.706-15.566-5.977-6.838-16.617-6.83-22.587 0-8.075 9.238-21.039 16.245-37.528 15.217-10.059-.624-17.872 8.671-15.515 18.477 2.245 9.34 3.336 18.13 3.336 26.872 0 41.019-21.028 77-45 77s-45-35.981-45-77c0-17.06 3.688-33.398 10.667-47.25 2.573-5.106 2.019-11.231-1.429-15.792-6.043-7.999-9.238-17.321-9.238-26.958 0-24.813 20.187-45 45-45 7.734 0 15.289 2.115 22.454 6.286 4.664 2.716 10.429 2.716 15.093 0 20.359-11.851 44.057-5.709 57.16 9.281 5.978 6.838 16.618 6.829 22.588-.001 1.34-1.534 2.737-2.931 4.271-4.271 6.838-5.977 6.831-16.617.001-22.588-20.658-18.058-20.898-49.146 0-67.413 6.838-5.976 6.83-16.617 0-22.587-10.039-8.775-15.567-20.746-15.567-33.707 0-8.284-6.716-15-15-15-13.212 0-26.187-5.819-34.706-15.566-5.977-6.838-16.617-6.83-22.587 0-14.118 16.151-36.753 20.578-56.161 9.281-4.664-2.715-10.428-2.715-15.092 0-19.442 11.317-42.073 6.837-56.16-9.28-5.977-6.838-16.617-6.83-22.587 0-9.301 10.64-24.009 17.119-40.625 14.9-6.085-.802-12.044 2.174-15.05 7.524-2.532 4.508-5.762 8.495-9.599 11.849-6.838 5.976-6.83 16.617 0 22.587 20.665 18.062 20.89 49.151 0 67.413-6.838 5.977-6.829 16.617 0 22.587 20.665 18.062 20.89 49.151 0 67.413-6.838 5.977-6.829 16.617 0 22.587 23.509 20.548 19.8 56.835-6.979 72.419-4.615 2.685-7.454 7.623-7.454 12.964v55.322h-30v-55.322c0-5.34-2.839-10.278-7.455-12.964-26.784-15.588-30.479-51.877-6.979-72.42 6.838-5.976 6.83-16.617 0-22.587-20.658-18.058-20.898-49.146 0-67.413 6.838-5.976 6.83-16.617 0-22.587-20.658-18.058-20.898-49.146 0-67.413 6.838-5.976 6.83-16.617 0-22.587-10.038-8.775-15.566-20.746-15.566-33.707 0-24.813 20.187-45 45-45 3.527 0 15.018 3.732 20.967-6.855 15.91-28.316 53.854-30.326 73.739-7.578 5.977 6.837 16.617 6.83 22.587 0 14.118-16.15 36.755-20.577 56.16-9.28 4.664 2.716 10.429 2.716 15.093 0 19.407-11.297 42.043-6.869 56.16 9.281 5.977 6.837 16.617 6.83 22.587 0 13.019-14.893 36.659-21.214 57.16-9.28 4.664 2.716 10.429 2.716 15.093 0 7.165-4.173 14.72-6.288 22.454-6.288 24.813 0 45 20.187 45 45 0 7.733-2.115 15.288-6.286 22.454-2.715 4.664-2.715 10.428 0 15.092z"/><circle cx="286" cy="315" r="15"/><circle cx="437" cy="225" r="15"/><circle cx="407" cy="75" r="15"/><circle cx="75" cy="105" r="15"/><circle cx="75" cy="285" r="15"/></g></svg>