<svg id="Capa_1" enable-background="new 0 0 512 512" height="512" viewBox="0 0 512 512" width="512" xmlns="http://www.w3.org/2000/svg"><g><path d="m467 141h-7.58c1.665-4.695 2.58-9.741 2.58-15 0-24.813-20.187-45-45-45h-51.017c3.845-7.505 6.017-16.004 6.017-25 0-19.299-15.701-35-35-35h-175.969c-42.815 0-82.866 18.131-111.011 50h-35.02c-8.284 0-15 6.716-15 15v200c0 8.284 6.716 15 15 15h35.02c28.145 31.869 68.197 50 111.012 50h205.968c24.813 0 45-20.187 45-45 0-5.259-.915-10.305-2.58-15h7.58c24.813 0 45-20.187 45-45 0-5.259-.915-10.305-2.58-15h7.58c24.813 0 45-20.187 45-45s-20.187-45-45-45zm0 60h-160c-8.284 0-15 6.716-15 15s6.716 15 15 15h110c8.271 0 15 6.729 15 15s-6.729 15-15 15h-110c-8.284 0-15 6.716-15 15s6.716 15 15 15h60c8.271 0 15 6.729 15 15s-6.729 15-15 15h-205.969c-36.111 0-69.76-16.173-92.318-44.37-2.847-3.559-7.156-5.63-11.713-5.63h-27v-170h27c4.557 0 8.866-2.071 11.713-5.63 22.558-28.197 56.207-44.37 92.318-44.37h175.969c2.757 0 5 2.243 5 5 0 13.785-11.215 25-25 25h-120c-8.284 0-15 6.716-15 15 0 24.813-20.187 45-45 45-8.284 0-15 6.716-15 15s6.716 15 15 15c36.219 0 66.522-25.808 73.491-60h206.509c8.271 0 15 6.729 15 15s-6.729 15-15 15h-110c-8.284 0-15 6.716-15 15s6.716 15 15 15h160c8.271 0 15 6.729 15 15s-6.729 15-15 15z"/><path d="m239.72 388.05c-2.741-4.386-7.548-7.05-12.72-7.05s-9.979 2.664-12.72 7.05l-23.5 37.601c-8.35 13.359-8.776 29.562-1.139 43.343 7.638 13.779 21.604 22.006 37.359 22.006s29.721-8.227 37.358-22.007 7.212-29.983-1.139-43.343zm-1.601 66.4c-1.091 1.969-4.36 6.55-11.119 6.55s-10.027-4.581-11.119-6.55c-1.092-1.97-3.244-7.169.339-12.899l10.78-17.248 10.78 17.248c3.582 5.73 1.43 10.929.339 12.899z"/><path d="m237.006 154.825c-5.696-5.1-14.316-5.1-20.013 0-1.428 1.279-34.993 31.788-34.993 71.175s33.565 69.896 34.994 71.175c2.848 2.55 6.427 3.825 10.006 3.825s7.158-1.275 10.006-3.825c1.429-1.279 34.994-31.788 34.994-71.175s-33.565-69.896-34.994-71.175zm-9.992 108.727c-6.965-9.147-15.014-22.89-15.014-37.552 0-14.712 8.027-28.427 14.986-37.552 6.965 9.147 15.014 22.89 15.014 37.552 0 14.712-8.027 28.427-14.986 37.552z"/></g></svg>