<svg id="Capa_1" enable-background="new 0 0 512 512" height="512" viewBox="0 0 512 512" width="512" xmlns="http://www.w3.org/2000/svg"><g><path d="m422.195 362.547h-72.779c7.044-6.177 13.521-13.085 19.303-20.667 29.081-3.125 51.799-27.815 51.799-57.713 0-18.299-8.553-35.256-22.814-46.135v-97.881c23.325-16.45 38.591-43.598 38.591-74.247v-65.904h-231.199c-50.067 0-90.8 40.733-90.8 90.8v147.232c-14.262 10.879-22.814 27.836-22.814 46.135 0 29.897 22.719 54.587 51.8 57.713 5.781 7.582 12.258 14.49 19.302 20.667h-72.779l-67.912 77.65v71.803h30v-60.535l51.529-58.918h85.135v19.246c0 37.188 30.255 67.443 67.443 67.443s67.443-30.255 67.443-67.443v-19.246h85.135l51.529 58.918v60.535h30v-71.802zm-277.899-271.747c0-33.525 27.275-60.8 60.8-60.8h201.199v35.904c0 33.525-27.274 60.8-60.8 60.8h-201.2v-35.904zm5.232 221.414c-15.465 0-28.046-12.582-28.046-28.047 0-10.379 5.7-19.868 14.876-24.764l7.938-4.236v-98.464h201.2c7.659 0 15.099-.958 22.208-2.752v101.216l7.938 4.236c9.176 4.896 14.876 14.385 14.876 24.764 0 15.465-12.582 28.046-28.046 28.046h-9.599l-4.465 6.559c-20.859 30.639-55.404 48.931-92.408 48.931s-71.548-18.292-92.407-48.931l-4.465-6.559h-9.6zm106.472 137.022c-20.646 0-37.443-16.797-37.443-37.443v-19.129c12.056 3.303 24.632 5.041 37.443 5.041s25.386-1.738 37.443-5.041v19.129c0 20.646-16.797 37.443-37.443 37.443z"/><path d="m185.962 202.205h30v30h-30z"/><path d="m294.39 202.205h30v30h-30z"/><path d="m219.628 277.308h72.744v30h-72.744z"/></g></svg>