<svg id="Capa_1" data-name="Capa 1" xmlns="http://www.w3.org/2000/svg" viewBox="0 0 600 600"><title>hospitalización</title><path d="M547.06,0H52.94A53,53,0,0,0,0,52.94V547.06A53,53,0,0,0,52.94,600H547.06A53,53,0,0,0,600,547.06V52.94A53,53,0,0,0,547.06,0Zm17.65,547.06a17.67,17.67,0,0,1-17.65,17.65H52.94a17.67,17.67,0,0,1-17.65-17.65V52.94A17.67,17.67,0,0,1,52.94,35.29H547.06a17.67,17.67,0,0,1,17.65,17.65Z"/><path d="M478.82,348.24H259.47a93.08,93.08,0,0,0-91.23-75.3H138.82V215.29a17.65,17.65,0,0,0-35.29,0v273a17.65,17.65,0,0,0,35.29,0V458.82H461.18v48.24a17.65,17.65,0,1,0,35.29,0V365.88A17.65,17.65,0,0,0,478.82,348.24Zm-340-40h29.42a57.74,57.74,0,0,1,54.88,40h-84.3ZM461.18,423.53c-347.16,0-322.36.65-322.36-1.18V383.53H461.18Z"/><path d="M488.24,122.35H458.82V92.94a17.65,17.65,0,0,0-17.64-17.65h-75.3a17.65,17.65,0,0,0-17.64,17.65v29.41H318.82A17.65,17.65,0,0,0,301.18,140v75.29a17.65,17.65,0,0,0,17.64,17.65h29.42v29.41A17.65,17.65,0,0,0,365.88,280h75.3a17.65,17.65,0,0,0,17.64-17.65V232.94h29.42a17.65,17.65,0,0,0,17.64-17.65V140A17.65,17.65,0,0,0,488.24,122.35Zm-17.65,75.3H441.18a17.65,17.65,0,0,0-17.65,17.64v29.42h-40V215.29a17.65,17.65,0,0,0-17.65-17.64H336.47v-40h29.41A17.65,17.65,0,0,0,383.53,140V110.59h40V140a17.65,17.65,0,0,0,17.65,17.65h29.41Z"/></svg>