<svg id="Capa_1" data-name="Capa 1" xmlns="http://www.w3.org/2000/svg" viewBox="0 0 600 600"><title>incomodidad</title><path d="M300,594.5A294.5,294.5,0,0,1,91.76,91.76,294.5,294.5,0,1,1,508.24,508.24,292.54,292.54,0,0,1,300,594.5Zm0-573C146.43,21.5,21.5,146.43,21.5,300S146.43,578.5,300,578.5,578.5,453.57,578.5,300,453.57,21.5,300,21.5Z"/><path d="M300,121.76a179.09,179.09,0,0,0-139,67,10.44,10.44,0,0,0-16.92,1.63L126,221.69a31.25,31.25,0,0,0,1.5,33.61,177.92,177.92,0,0,0-5.69,44.7c0,98.14,80.11,178.24,178.24,178.24S478.24,398.13,478.24,300,398.13,121.76,300,121.76ZM144,232.13l9.05-15.68,9.06,15.68a10.32,10.32,0,0,1,1.39,5.21,10.45,10.45,0,0,1-20.89,0A10.32,10.32,0,0,1,144,232.13ZM300,457.35c-86.76,0-157.35-70.59-157.35-157.35A157.9,157.9,0,0,1,146,267.84a31.05,31.05,0,0,0,7.13.83,31.33,31.33,0,0,0,27.15-47l-7.83-13.55A157.35,157.35,0,0,1,300,142.65c86.76,0,157.35,70.59,157.35,157.35S386.76,457.35,300,457.35Z"/><path d="M216.45,247.78a56.78,56.78,0,0,1,44.38,21.11,81.13,81.13,0,0,0-51.76,23.73,10.44,10.44,0,1,0,14.77,14.76,60.47,60.47,0,0,1,43-17.82h12.23a10.45,10.45,0,0,0,9.34-15.12l-2.2-4.41a78,78,0,0,0-69.8-43.13,10.44,10.44,0,0,0,0,20.88Z"/><path d="M320.89,289.56h12.23a60.47,60.47,0,0,1,43,17.82,10.44,10.44,0,0,0,14.77-14.76,81.13,81.13,0,0,0-51.76-23.73,56.78,56.78,0,0,1,44.38-21.11,10.44,10.44,0,0,0,0-20.88A78,78,0,0,0,313.75,270l-2.2,4.41a10.45,10.45,0,0,0,9.34,15.12Z"/><path d="M355.28,355.28a19.13,19.13,0,0,1-27,0,40,40,0,0,0-56.54,0,19.13,19.13,0,0,1-27,0,40,40,0,0,0-56.54,0A10.44,10.44,0,0,0,203,370.05a19.1,19.1,0,0,1,27,0,40,40,0,0,0,56.55,0,19.07,19.07,0,0,1,27,0,40,40,0,0,0,56.55,0,19.1,19.1,0,0,1,27,0,10.44,10.44,0,0,0,14.77-14.77,40,40,0,0,0-56.54,0Z"/></svg>