<svg id="Capa_1" enable-background="new 0 0 510 510" height="512" viewBox="0 0 510 510" width="512" xmlns="http://www.w3.org/2000/svg"><g><path d="m480 167.58v-40.71c0-41.294-44.602-67.244-80.502-46.714l-29.922 17.098c-16.691-49.449-63.027-82.254-114.576-82.254-51.571 0-97.893 32.828-114.576 82.254l-29.919-17.097c-35.855-20.495-80.505 5.355-80.505 46.713v40.71c-17.459 6.192-30 22.865-30 42.42 0 24.813 20.186 45 45 45 24.813 0 45-20.187 45-45 0-19.555-12.541-36.228-30-42.42v-40.71c0-18.275 19.732-29.749 35.617-20.667l38.66 22.091.038-.067c-.846 13.215.789 23.209.865 24.152l14.215 43.19c-.466 4.047-10.763 28.419 1.866 58.907 6.77 16.344 18.366 29.793 33.534 38.894 15.548 9.328 25.205 26.386 25.205 44.516v157.114h90v-157.114c0-18.13 9.657-35.188 25.204-44.516 15.168-9.101 26.765-22.55 33.534-38.894 12.666-30.578 2.348-54.73 1.866-58.907l14.215-43.19c.116-1.432 1.759-10.189.865-24.152l.038.067 38.663-22.092c15.859-9.071 35.615 2.37 35.615 20.668v40.71c-17.459 6.192-30 22.865-30 42.42 0 24.813 20.186 45 45 45s45-20.187 45-45c0-19.555-12.541-36.228-30-42.42zm-435 57.42c-8.272 0-15-6.729-15-15s6.728-15 15-15c8.271 0 15 6.729 15 15s-6.729 15-15 15zm195 150h30v30h-30zm0 90v-30h30v30zm105.395-319.18-16 48.61 4.028 16.108c5.579 22.32-3.927 45.27-23.655 57.107-24.53 14.719-39.768 41.633-39.768 70.241v7.114h-30v-7.114c0-28.607-15.238-55.522-39.769-70.24-19.729-11.837-29.234-34.786-23.655-57.106l4.028-16.109-16-48.61c-5.886-53.834 36.336-100.821 90.396-100.821 54.147 0 96.271 47.082 90.395 100.82zm119.605 79.18c-8.272 0-15-6.729-15-15s6.728-15 15-15 15 6.729 15 15-6.728 15-15 15z"/><path d="m255 158.787-19.394-19.394-21.212 21.213 25.606 25.607v38.787h30v-38.787l25.606-25.607-21.212-21.213z"/></g></svg>