<svg id="_x31__px" height="512" viewBox="0 0 24 24" width="512" xmlns="http://www.w3.org/2000/svg"><path d="m1.5 18c-.441 0-.875-.117-1.253-.338-.238-.14-.318-.446-.179-.685.14-.239.444-.317.685-.179.222.13.487.202.747.202.827 0 1.5-.673 1.5-1.5s-.673-1.5-1.5-1.5c-.26 0-.525.072-.747.202-.239.138-.544.06-.685-.179-.14-.238-.06-.545.179-.685.378-.221.812-.338 1.253-.338 1.379 0 2.5 1.122 2.5 2.5s-1.121 2.5-2.5 2.5z"/><path d="m23 18c-1.103 0-2-.897-2-2s.897-2 2-2c.236 0 .457.04.676.122.259.097.39.385.292.644-.097.259-.388.387-.644.292-.609-.228-1.324.274-1.324.942s.715 1.169 1.324.942c.257-.096.547.034.644.292.098.259-.033.547-.292.644-.219.082-.44.122-.676.122z"/><path d="m21.5 22h-19c-1.379 0-2.5-1.122-2.5-2.5v-8c0-.827.673-1.5 1.5-1.5h2.076c1.825 0 3.522-.553 4.778-1.557 2.42-1.936 4.871-1.936 7.291 0 1.255 1.004 2.953 1.557 4.779 1.557h2.076c.827 0 1.5.673 1.5 1.5v8c0 1.378-1.121 2.5-2.5 2.5zm-20-11c-.275 0-.5.224-.5.5v8c0 .827.673 1.5 1.5 1.5h19c.827 0 1.5-.673 1.5-1.5v-8c0-.276-.225-.5-.5-.5h-2.076c-2.053 0-3.972-.631-5.403-1.776-2.033-1.627-4.008-1.627-6.041 0-1.433 1.145-3.352 1.776-5.404 1.776z"/><path d="m12 5c-.276 0-.5-.224-.5-.5v-2c0-.276.224-.5.5-.5s.5.224.5.5v2c0 .276-.224.5-.5.5z"/><path d="m15.5 6c-.128 0-.256-.049-.354-.146-.195-.195-.195-.512 0-.707l1-1c.195-.195.512-.195.707 0s.195.512 0 .707l-1 1c-.097.097-.225.146-.353.146z"/><path d="m8.5 6c-.128 0-.256-.049-.354-.146l-1-1c-.195-.195-.195-.512 0-.707s.512-.195.707 0l1 1c.195.195.195.512 0 .707-.097.097-.225.146-.353.146z"/><path d="m10.5 17c-.827 0-1.5-.673-1.5-1.5s.673-1.5 1.5-1.5 1.5.673 1.5 1.5-.673 1.5-1.5 1.5zm0-2c-.275 0-.5.224-.5.5s.225.5.5.5.5-.224.5-.5-.225-.5-.5-.5z"/><path d="m16.5 19c-.827 0-1.5-.673-1.5-1.5s.673-1.5 1.5-1.5 1.5.673 1.5 1.5-.673 1.5-1.5 1.5zm0-2c-.275 0-.5.224-.5.5s.225.5.5.5.5-.224.5-.5-.225-.5-.5-.5z"/></svg>