<svg id="Capa_1" enable-background="new 0 0 512.008 512.008" height="512" viewBox="0 0 512.008 512.008" width="512" xmlns="http://www.w3.org/2000/svg"><g><path d="m398.233 92.628 16.418-74.392c2.063-9.351-5.062-18.232-14.647-18.232h-288c-9.576 0-16.714 8.872-14.647 18.232l16.417 74.392c9.187 41.628 1.642 84.36-21.245 120.326-12.773 20.072-19.525 43.257-19.525 67.05 0 5.627 3.139 10.701 8 13.265v103.186c0 35.793 5.632 71.189 16.741 105.206 2.015 6.17 7.769 10.344 14.259 10.344h288c6.49 0 12.244-4.174 14.259-10.344 11.108-34.019 16.741-69.415 16.741-105.206 0-10.923 0-92.315 0-103.186 4.861-2.563 8-7.638 8-13.265 0-23.792-6.751-46.977-19.524-67.05-22.888-35.965-30.433-78.697-21.247-120.326zm2.771 263.444-65.839 15.195c-20.38 4.697-38.805 16.283-51.89 32.633-13.931 17.433-40.571 17.484-54.554-.013-13.064-16.313-31.264-27.869-51.875-32.619l-65.843-15.196v-53.424c92.288 25.431 192.442 26.883 290 0v53.424zm-283.165-127.012c26.249-41.247 36.37-92.422 25.23-142.897l-12.394-56.159h250.657l-12.394 56.159c-10.536 47.745-2.52 99.288 25.23 142.896 7.77 12.21 12.607 25.935 14.228 40.2-98.715 30.442-206.07 30.442-304.785 0 1.621-14.265 6.458-27.989 14.228-40.199zm-6.835 167.394v-9.594l59.101 13.64c13.622 3.14 26.1 10.776 35.19 22.126 8.685 10.87 21.047 19.116 35.709 22.597v36.78h-117.92c-8.02-27.809-12.08-56.536-12.08-85.549zm277.92 85.55h-117.92v-36.78c14.654-3.479 27.034-11.739 35.701-22.588 8.874-11.088 21.374-18.949 35.202-22.137l59.097-13.639v9.594c0 29.012-4.06 57.739-12.08 85.55z"/><path d="m86.234 179.26-8-24c-2.042-6.125-7.774-10.256-14.23-10.256h-29.605l-5.35-14.267c-2.909-7.756-11.555-11.686-19.312-8.778-7.756 2.909-11.687 11.555-8.778 19.312l9 24c2.195 5.854 7.792 9.733 14.045 9.733h29.188l4.581 13.744c2.621 7.86 11.114 12.106 18.974 9.487 7.86-2.621 12.107-11.115 9.487-18.975z"/><path d="m33.774 84.748c2.042 6.125 7.774 10.256 14.23 10.256h13.188l4.581 13.744c2.096 6.286 7.948 10.261 14.229 10.26 10.209 0 17.473-10.025 14.232-19.748l-8-24c-2.042-6.125-7.774-10.256-14.23-10.256h-13.188l-4.582-13.744c-2.62-7.858-11.112-12.105-18.974-9.487-7.859 2.62-12.106 11.115-9.487 18.974z"/><path d="m427.261 118.235c7.858 2.619 16.353-1.628 18.974-9.487l4.581-13.744h13.188c6.456 0 12.188-4.131 14.23-10.256l8-24c2.619-7.859-1.628-16.354-9.487-18.974-7.856-2.62-16.354 1.628-18.974 9.487l-4.581 13.744h-13.188c-6.456 0-12.188 4.131-14.23 10.256l-8 24c-2.62 7.859 1.627 16.353 9.487 18.974z"/><path d="m502.271 121.959c-7.759-2.911-16.403 1.021-19.312 8.778l-5.351 14.267h-29.604c-6.456 0-12.188 4.131-14.23 10.256l-8 24c-2.619 7.859 1.628 16.354 9.487 18.974 7.858 2.619 16.353-1.628 18.974-9.487l4.581-13.744h29.188c6.253 0 11.85-3.878 14.045-9.733l9-24c2.909-7.756-1.022-16.402-8.778-19.311z"/><path d="m290.652 231.866c5.857 5.857 15.355 5.858 21.213 0 30.802-30.802 30.802-80.92 0-111.723-5.856-5.858-15.354-5.857-21.213 0-5.858 5.858-5.858 15.355 0 21.213 19.104 19.105 19.104 50.191 0 69.297-5.858 5.857-5.858 15.355 0 21.213z"/><path d="m221.356 120.143c-5.857-5.858-15.355-5.858-21.213 0-30.802 30.802-30.802 80.921 0 111.723 5.857 5.858 15.355 5.859 21.213 0 5.858-5.858 5.858-15.355 0-21.213-19.105-19.105-19.105-50.191 0-69.297 5.857-5.858 5.857-15.355 0-21.213z"/><path d="m271.024 176.004c0-8.215-6.642-15-15.01-15-8.284 0-14.995 6.716-14.995 15s6.721 15 15.005 15c8.285 0 15-6.716 15-15z"/></g></svg>