<?xml version="1.0" encoding="utf-8"?>
<!-- Generator: Adobe Illustrator 24.0.2, SVG Export Plug-In . SVG Version: 6.00 Build 0)  -->
<svg version="1.1" id="Capa_1" xmlns="http://www.w3.org/2000/svg" xmlns:xlink="http://www.w3.org/1999/xlink" x="0px" y="0px"
	 viewBox="0 0 600 600" style="enable-background:new 0 0 600 600;" xml:space="preserve">
<g>
	<path d="M593.14,283.43L316.57,6.87c-9.15-9.15-23.99-9.15-33.15,0L6.86,283.43c-11.71,11.71-7.9,31.59,7.34,38.12l68.57,29.38
		L93.78,577.7c0.6,12.49,10.91,22.3,23.41,22.3h365.63c12.5,0,22.8-9.81,23.41-22.3l11.01-226.77l68.57-29.38
		C601.01,315.02,604.86,295.15,593.14,283.43z M349.8,553.13h-99.61V417.19h99.61V553.13z M485.3,313.61
		c-8.24,3.53-13.74,11.45-14.18,20.41l-10.64,219.11h-63.81V393.75c0-12.94-10.49-23.44-23.44-23.44H226.76
		c-12.94,0-23.44,10.49-23.44,23.44v159.37h-63.81l-10.64-219.11c-0.43-8.95-5.94-16.87-14.18-20.41l-50.21-21.52L300,56.58
		L535.51,292.1L485.3,313.61z"/>
</g>
</svg>
