<?xml version="1.0" encoding="utf-8"?>
<!-- Generator: Adobe Illustrator 24.0.2, SVG Export Plug-In . SVG Version: 6.00 Build 0)  -->
<svg version="1.1" id="Capa_1" xmlns="http://www.w3.org/2000/svg" xmlns:xlink="http://www.w3.org/1999/xlink" x="0px" y="0px"
	 viewBox="0 0 600 600" style="enable-background:new 0 0 600 600;" xml:space="preserve">
<g>
	<path d="M510.94,106.64H361.38C388.8,59.69,354.85,0,300.06,0c-54.8,0-88.73,59.71-61.32,106.64H89.78
		c-28.8,0-52.77,23.1-53.43,51.48c-0.7,29.87,23.32,53.99,52.72,53.99h123.16v87.44c-56.72,69.17-87.95,156.5-87.95,245.96
		c0,29.75,24.21,54.2,53.96,54.49c29.86,0.39,55.03-23.79,55.03-54.49c1.34-9.68-9.4-80.61,44.09-149.36h45.42
		c53.84,69.2,42.66,139.04,44.09,149.36c0,30.34,24.79,54.86,55.03,54.49c29.75-0.29,53.96-24.74,53.96-54.49
		c0-89.47-31.18-176.61-87.83-245.79v-87.61h122.21c28.8,0,52.77-23.1,53.43-51.48C564.35,130.76,540.34,106.64,510.94,106.64
		L510.94,106.64z M264.24,70.97c0-19.75,16.07-35.82,35.81-35.82c19.75,0,35.82,16.07,35.82,35.82c0,18.69-14.39,34.07-32.67,35.67
		h-6.3C278.63,105.04,264.24,89.66,264.24,70.97z M71.49,158.94c0.22-9.45,8.42-17.14,18.29-17.14h16.86v35.16H89.06
		C79.22,176.95,71.26,168.87,71.49,158.94z M421.54,564.84c-11.27,0-19.53-8.98-19.53-19.33c-1.4-9.24,10.91-97.12-57.42-178.26
		c-3.34-3.97-8.26-6.26-13.45-6.26h-62.18c-5.19,0-10.11,2.29-13.45,6.26c-68.8,81.7-55.9,168.29-57.42,178.26
		c0,10.36-8.25,19.33-19.53,19.33c-10.56-0.1-19.14-8.78-19.14-19.33c0-81.17,28.28-160.41,79.64-223.24h121.96
		c51.38,62.86,79.65,142,79.65,223.24C440.68,556.06,432.09,564.74,421.54,564.84z M370.43,176.95c-9.71,0-17.58,7.87-17.58,17.58
		v92.58H247.38v-92.58c0-9.71-7.87-17.58-17.58-17.58H141.8V141.8h140.68v17.58c0,9.71,7.87,17.58,17.58,17.58
		s17.58-7.87,17.58-17.58V141.8h140.68v35.16H370.43z M510.22,176.95h-16.75V141.8h17.46c9.84,0,17.8,8.08,17.57,18.01
		C528.29,169.26,520.09,176.95,510.22,176.95L510.22,176.95z"/>
</g>
</svg>
