<svg id="Capa_1" enable-background="new 0 0 512 512" height="512" viewBox="0 0 512 512" width="512" xmlns="http://www.w3.org/2000/svg"><g><path d="m350.472 108.945 56.691-28.346 36.411 9.103c4.351 1.084 8.886-.851 11.108-4.74l40-70c2.187-3.826 1.61-8.632-1.418-11.833-3.029-3.203-7.798-4.042-11.736-2.072l-56.691 28.346-36.411-9.103c-4.353-1.086-8.886.851-11.108 4.74l-40 70c-2.187 3.826-1.61 8.632 1.418 11.833 3.008 3.18 7.77 4.055 11.736 2.072zm40.452-67.406 32.65 8.163c2.317.579 4.762.311 6.897-.757l30.46-15.229-19.855 34.747-32.65-8.163c-2.316-.578-4.761-.31-6.897.757l-30.46 15.229z"/><path d="m57.318 84.962c2.223 3.89 6.762 5.826 11.108 4.74l36.411-9.103 56.691 28.346c3.964 1.983 8.727 1.108 11.736-2.072 3.028-3.201 3.604-8.007 1.418-11.833l-40-70c-2.222-3.89-6.761-5.824-11.108-4.74l-36.411 9.103-56.691-28.347c-3.938-1.97-8.707-1.13-11.736 2.072-3.028 3.201-3.604 8.007-1.418 11.833zm24.211-36.017c2.135 1.067 4.581 1.335 6.897.757l32.65-8.163 19.855 34.747-30.46-15.229c-2.138-1.069-4.586-1.335-6.897-.757l-32.65 8.163-19.855-34.748z"/><path d="m226 306h40c5.522 0 10-4.477 10-10v-20c0-16.542-13.458-30-30-30s-30 13.458-30 30v20c0 5.523 4.478 10 10 10zm10-30c0-5.514 4.486-10 10-10s10 4.486 10 10v10h-20z"/><circle cx="246" cy="502" r="10"/><path d="m215.502 339.023c-.341 3.54-1.112 5.65-1.979 6.978h-97.523v-81.713c11.641-4.127 20-15.249 20-28.287v-20c0-16.542-13.458-30-30-30h-20c-16.542 0-30 13.458-30 30v160c0 27.57 22.43 50 50 50h50v76c0 5.523 4.478 10 10 10h35c5.522 0 10-4.477 10-10s-4.478-10-10-10h-25v-76c0-5.523-4.478-10-10-10h-30v-40h70.021c9.424 12.552 24.183 19.989 39.972 19.991h.008c15.786 0 30.548-7.437 39.977-19.991h70.022v40h-30c-5.522 0-10 4.477-10 10v76h-25c-5.522 0-10 4.477-10 10s4.478 10 10 10h35c5.522 0 10-4.477 10-10v-76h50c27.57 0 50-22.43 50-50v-160.001c0-16.542-13.458-30-30-30h-20c-16.542 0-30 13.458-30 30v20c0 13.038 8.359 24.159 20 28.287v81.713h-97.692c-.996-1.563-1.601-3.821-1.857-6.955 23.922-11.571 39.549-36.065 39.549-63.045v-51.006c22.795-4.646 40-24.847 40-48.994 0-27.57-22.43-50-50-50-5.522 0-10 4.477-10 10 0 5.514-4.486 10-10 10h-60c-27.57 0-50 22.43-50 50v80c0 26.962 15.607 51.442 39.502 63.023zm-99.502 66.977h-10c-16.542 0-30-13.458-30-30v-160c0-5.514 4.486-10 10-10h20c5.514 0 10 4.486 10 10v20c0 5.514-4.486 10-10 10-5.522 0-10 4.477-10 10v100c0 5.523 4.478 10 10 10h10zm270-40c5.522 0 10-4.477 10-10v-100c0-5.523-4.478-10-10-10-5.514 0-10-4.486-10-10v-20c0-5.514 4.486-10 10-10h20c5.514 0 10 4.486 10 10v160c0 16.542-13.458 30-30 30h-10v-40zm-90-90c0 21.023-13.277 39.932-33.04 47.052-3.861 1.391-6.48 5-6.605 9.103-.278 9.065.458 19.979 7.564 27.937-5.079 3.809-11.267 5.9-17.917 5.9-.001 0-.004 0-.005 0-6.704-.001-12.936-2.124-18.034-5.987 7.299-8.227 7.942-19.532 7.684-27.854-.127-4.101-2.746-7.708-6.605-9.098-19.764-7.121-33.042-26.03-33.042-47.053v-50h100zm-70-110h60c12.641 0 23.48-7.859 27.891-18.947 12.725 3.473 22.109 15.135 22.109 28.947 0 16.542-13.458 30-30 30h-110v-10c0-16.542 13.458-30 30-30z"/></g></svg>