<svg id="Capa_1" enable-background="new 0 0 512 512" height="512" viewBox="0 0 512 512" width="512" xmlns="http://www.w3.org/2000/svg"><g><path d="m448.63 218.09v-36.79c19.34-7.282 33.58-26.411 33.58-48.53 0-6.968-.003-6.087-.003-17.77 0-63.411-51.589-115-115-115h-192.414c-79.953 0-145 65.047-145 145 0 3.032-.003 11.137-.003 60 0 15.659 10.395 29.152 24.95 33.53-18.29 44.57-54.85 145.68-54.74 242.01.02 17.35 14.14 31.46 31.49 31.46h449.02c17.35 0 31.47-14.11 31.49-31.46.13-117.32-53.97-241.72-63.37-262.45zm-388.837-73.09c0-63.411 51.589-115 115-115h192.415c46.869 0 85 38.131 85 85 0 19.317.356 20.566-1.288 25.119-2.485 6.876-8.42 12.421-16.007 14.05-191.47 41.075-241.711 55.831-337.873 55.831-32.806 0-31.486.01-32.5-.025-2.841-.146-4.748-2.507-4.748-4.975v-60zm-28.303 337c-.82 0-1.49-.67-1.49-1.49-.07-62.87 17.09-129.46 33.37-178.46v17.32c0 68.31 35.73 128.42 89.49 162.63zm61.88-162.63v-79.37c103.04 0 144.939-12.976 325.26-51.656v131.026c0 89.67-72.95 162.63-162.63 162.63s-162.63-72.96-162.63-162.63zm387.14 162.63h-121.37c53.76-34.21 89.49-94.32 89.49-162.63v-17.66c16.27 49 33.44 115.71 33.37 178.8 0 .82-.67 1.49-1.49 1.49z"/><path d="m288.436 365.066c-25.04-25.062-68.234-13.419-76.923 21.244-2.014 8.036 2.867 16.184 10.903 18.197 8.037 2.014 16.183-2.868 18.197-10.902 4.035-16.097 26.834-15.722 30.775-.001 1.707 6.813 7.821 11.357 14.539 11.357 9.777 0 16.931-9.194 14.561-18.65-2.014-8.035-6.185-15.386-12.052-21.245z"/><path d="m227.054 291.112c0-13.736-11.676-23.489-22.577-23.489h-56.268c-8.284 0-15 6.716-15 15s6.716 15 15 15h32.878c2.823 9.779 11.834 16.934 22.522 16.934 12.948 0 23.445-10.496 23.445-23.445z"/><path d="m381.792 291.112c0-13.804-11.748-23.489-22.577-23.489h-56.269c-8.284 0-15 6.716-15 15s6.716 15 15 15h32.878c2.823 9.779 11.834 16.934 22.522 16.934 12.949 0 23.446-10.496 23.446-23.445z"/></g></svg>