<?xml version="1.0" encoding="utf-8"?>
<!-- Generator: Adobe Illustrator 24.0.2, SVG Export Plug-In . SVG Version: 6.00 Build 0)  -->
<svg version="1.1" id="Capa_1" xmlns="http://www.w3.org/2000/svg" xmlns:xlink="http://www.w3.org/1999/xlink" x="0px" y="0px"
	 viewBox="0 0 600 600" style="enable-background:new 0 0 600 600;" xml:space="preserve">
<path d="M582.42,421.99c-26.45,0-50.83,11.94-67.03,32.41l-160.73-5.32l78.65-94.69c1.88,0.19,3.76,0.28,5.64,0.28
	c14.53,0,29.05-5.53,40.11-16.58c10.72-10.72,16.63-24.97,16.63-40.14c0-15.16-5.91-29.42-16.63-40.14l-30.19-30.17
	c0.1-2.79,0.17-5.6,0.17-8.36C449.04,98.37,350.62,0,229.63,0S10.22,98.37,10.22,219.29c0,41.17,11.38,80.99,32.98,115.69
	l-24.44,20.27c-11.22,9.3-18.04,22.99-18.71,37.54c-0.67,14.55,4.85,28.81,15.16,39.11l152.99,152.9
	c9.74,9.73,23.01,15.2,36.73,15.2c0.79,0,1.59-0.02,2.39-0.06c14.55-0.67,28.24-7.49,37.55-18.69l8.68-10.45
	c0.66,0.05,1.33,0.08,2,0.05l259.93-8.42c16.21,20.39,40.54,32.3,66.93,32.3c9.71,0,17.58-7.87,17.58-17.58V439.57
	C600,429.86,592.13,421.99,582.42,421.99L582.42,421.99z M460.54,297.96c0,5.77-2.25,11.19-6.33,15.27c-8.41,8.41-22.1,8.41-30.52,0
	L291.67,181.28c-4.08-4.08-6.33-9.5-6.33-15.27s2.25-11.19,6.33-15.27c4.21-4.2,9.73-6.31,15.26-6.31c5.53,0,11.05,2.1,15.26,6.31
	l132.03,131.95C458.29,286.77,460.54,292.19,460.54,297.96L460.54,297.96z M45.37,219.29c0-101.53,82.66-184.13,184.26-184.13
	c91.77,0,168.08,67.4,181.99,155.26l-64.58-64.54c-22.12-22.1-58.1-22.1-80.22,0c-10.06,10.05-15.88,23.22-16.56,37.32L70.58,312.26
	C54.07,284.13,45.37,252.24,45.37,219.29L45.37,219.29z M205.7,564.83c-4.78,0.23-9.26-1.52-12.64-4.89L40.06,407.03
	c-3.37-3.37-5.11-7.85-4.89-12.62c0.22-4.76,2.36-9.06,6.04-12.11l220.07-182.57c1.67,2.25,3.52,4.4,5.54,6.41L398.84,338.1
	c0.42,0.42,0.86,0.82,1.29,1.22l-182.3,219.47C214.78,562.46,210.47,564.6,205.7,564.83L205.7,564.83z M564.84,556.43
	c-10.41-3.87-19.39-11.17-25.49-21.08c-3.3-5.37-9.25-8.56-15.54-8.36l-240.34,7.78l42.75-51.46l197.5,6.54
	c6.33,0.2,12.27-2.99,15.57-8.39c6.1-9.96,15.1-17.29,25.54-21.17L564.84,556.43L564.84,556.43z"/>
</svg>
