<svg id="Capa_1" enable-background="new 0 0 512 512" height="512" viewBox="0 0 512 512" width="512" xmlns="http://www.w3.org/2000/svg"><g><path d="m413.435 413.299-40.532-15.659c-7.943-16.722-22.056-30.333-39.891-37.224l-50.748-19.606c-2.118-.819-3.542-2.895-3.542-5.166v-183.935c0-16.06-10.736-29.489-25.171-33.829v-102.88c0-8.284-6.716-15-15-15s-15 6.716-15 15v101.386h-102.15v-101.386c0-8.284-6.716-15-15-15s-15 6.716-15 15v102.879c-14.545 4.372-25.174 17.88-25.174 33.83v324.968c.001 19.445 15.843 35.323 35.323 35.323h246.122c9.66 0 18.339-4.263 24.271-11h33.29c22.354 0 40.54-18.186 40.54-40.54-.001-20.735-12.996-39.688-32.338-47.161zm-156.781 68.701-59.464-59.464 30.222-24.371 83.821 83.835zm-160.426-330.291c0-2.935 2.388-5.323 5.322-5.323 2.486 0-9.615.004 117.484.004l-122.806 99.028zm152.494 80.737-152.494 122.972v-71.461l152.494-122.967zm-152.494 161.51 152.494-122.972c0 71.237-.226 66.481.599 70.975l-153.093 123.453zm77.476 47.52 40.525 40.524h-90.779zm148.495-53.076c16.638 6.428 27.815 22.729 27.815 40.565v49.393l-99.115-99.132 15.769-12.716c3.214 1.842.469.617 55.531 21.89zm83.033 82.6h-25.218v-38.451l22.608 8.735c7.865 3.039 13.149 10.745 13.149 19.177.001 5.811-4.727 10.539-10.539 10.539z"/></g></svg>