<svg id="Layer_1" enable-background="new 0 0 512 512" height="512" viewBox="0 0 512 512" width="512" xmlns="http://www.w3.org/2000/svg"><path d="m345 257c-27.57 0-50-22.43-50-50 0-11.046 8.954-20 20-20s20 8.954 20 20c0 5.514 4.486 10 10 10s10-4.486 10-10c0-11.046 8.954-20 20-20s20 8.954 20 20c0 27.57-22.43 50-50 50zm-127-50c0-11.046-8.954-20-20-20s-20 8.954-20 20c0 5.514-4.486 10-10 10s-10-4.486-10-10c0-11.046-8.954-20-20-20s-20 8.954-20 20c0 27.57 22.43 50 50 50s50-22.43 50-50zm294 142c0-33.084-26.916-60-60-60h-80c-6.823 0-13.176 3.479-16.851 9.228-3.676 5.749-4.166 12.975-1.302 19.168.411.891 10.264 22.051 25.883 43.41 23.386 31.979 47.701 48.194 72.27 48.194 33.084 0 60-26.916 60-60zm-60-20c11.028 0 20 8.972 20 20s-8.972 20-20 20c-14.026 0-31.807-19.103-45.744-40zm-105 66c0-49.626-40.374-90-90-90s-90 40.374-90 90c0 11.046 8.954 20 20 20h140c11.046 0 20-8.954 20-20zm-90-50c20.464 0 38.095 12.355 45.825 30h-91.65c7.73-17.645 25.361-30 45.825-30zm146.123 120.525c9.035-6.354 11.208-18.83 4.853-27.864-6.354-9.035-18.828-11.208-27.864-4.853-36.454 25.639-79.371 39.192-124.112 39.192-119.103 0-216-96.897-216-216s96.897-216 216-216c112.57 0 205.053 84.424 215.122 196.378.174 1.927.325 3.915.45 5.908.695 11.024 10.188 19.382 21.218 18.704 11.023-.694 19.397-10.194 18.704-21.218-.148-2.348-.327-4.696-.532-6.978-5.702-63.394-34.751-122.114-81.796-165.342-47.338-43.497-108.836-67.452-173.166-67.452-68.38 0-132.667 26.629-181.02 74.98-48.351 48.353-74.98 112.64-74.98 181.02s26.629 132.667 74.98 181.02c48.353 48.351 112.64 74.98 181.02 74.98 53.022 0 103.896-16.07 147.123-46.475z"/></svg>