<svg id="Capa_1" data-name="Capa 1" xmlns="http://www.w3.org/2000/svg" viewBox="0 0 600 600"><title>liquido</title><path d="M112.47,14.29A108.47,108.47,0,0,0,4.12,122.64c0,38.94,20.44,70.92,42.08,104.77C75.33,273,105.46,320.12,95.57,394.28a17,17,0,0,0,11.89,18.55c11.55,3.54,18.6-5.37,20.25-8.68,48.36-96.7,93.1-197.74,93.1-281.51A108.47,108.47,0,0,0,112.47,14.29Zm15.28,311.3c-9-48.06-32.63-84.95-52.83-116.54-19.69-30.82-36.7-57.43-36.7-86.41a74.25,74.25,0,0,1,148.5,0C186.72,182,161,253.29,127.75,325.59Z"/><path d="M477.66,379.48c-39.41,0-85,9.67-139.38,29.57-49.53,18.12-99.65,42.28-142.14,63.53A17,17,0,0,0,206,504.72c74.16-9.89,121.29,20.24,166.87,49.38,33.84,21.64,65.82,42.07,104.77,42.07a108.35,108.35,0,0,0,0-216.69Zm0,182.6c-29,0-55.6-17-86.41-36.71-31.6-20.19-68.48-43.78-116.54-52.82,72.29-33.2,143.58-59,203-59a74.25,74.25,0,0,1,0,148.5Z"/><path d="M246,376c9.57-3.4,235.25-84,304.2-152.94a122.35,122.35,0,0,0-173-173C308.18,119,227.59,344.7,224.19,354.27A17,17,0,0,0,246,376ZM401.24,74.18A88.26,88.26,0,0,1,526.06,199c-48.34,48.33-190.52,106.53-256.79,132,25.43-66.26,83.61-208.42,132-256.77Z"/></svg>