<svg id="Capa_1" enable-background="new 0 0 511.985 511.985" height="512" viewBox="0 0 511.985 511.985" width="512" xmlns="http://www.w3.org/2000/svg"><g><g><path d="m511.308 440.374c-2.466-6.263-8.902-7.161-14.502-5.054-7.75 2.914-44.145 16.132-95.119 27.401-2.031-10.405-9.9-19.12-20.057-22.188l-37.1-11.179-1.555-162.022c-.124-12.966-4.055-25.481-11.366-36.192l-45.68-66.918c-5.49-8.043-8.275-17.829-7.842-27.557l1.006-22.643c20.421-36.068 22.635-88.356 22.721-90.61.103-2.716-.904-5.357-2.789-7.315s-4.486-3.064-7.204-3.064h-135.317c-5.351 0-9.753 4.211-9.99 9.556-.96 21.589 2.812 67.587 3.339 73.87l-2.091 47.05c-.69 15.541 4.204 30.851 13.781 43.108l24.193 30.964-16.192 56.386c-1.524 5.308 1.543 10.847 6.852 12.371 5.306 1.521 10.847-1.543 12.371-6.852l12.185-42.43 38.173 48.859c1.946 2.489 3.623 5.206 5.005 8.045l-55.356 133.009-38.294-14.152 13.98-48.688c1.524-5.308-1.543-10.847-6.852-12.371-5.309-1.526-10.847 1.542-12.371 6.852l-16.44 57.252-10.927 29.57c-2.237 6.053-2.633 12.511-1.275 18.65-52.136-11.092-90.251-24.622-100.296-28.35-5.929-2.207-12.858-2.312-15.6 4.643-2.025 5.138.498 10.945 5.637 12.971 137.066 54.012 289.871 58.621 431.463 21.385 22.88-6.017 45.834-12.701 67.871-21.385 5.054-1.994 7.635-7.905 5.638-12.972zm-242.866 39.239c-7.811.175-15.624.186-23.436.03-.448-11.269-6.307-21.9-15.928-28.437l-22.396-15.216 44.666-107.323 19.784 144.357c.222 2.253.715 4.421 1.442 6.476-1.376.041-2.754.079-4.132.113zm113.21-14.524c.208.56.357 1.13.452 1.704-23.857 4.651-81.355 11.201-83.134 11.328-4.014.112-7.532-2.984-7.933-7.056l-1.458-14.821 13.357-2.738 31.206-6.394 41.711 12.567c2.661.806 4.833 2.84 5.799 5.41zm-100.623-432.056c-1.533 15.351-5.82 44.716-17.259 67.263l-94.573-12.864c-.962-12.513-2.685-37.113-2.832-54.4h114.664zm-113.287 111.363 1.634-36.754 89.44 12.165-.71 15.969c-.624 14.021 3.391 28.128 11.305 39.722l45.679 66.918c5.073 7.432 7.8 16.113 7.885 25.108l1.547 161.144-37.396 7.663-19.069-131.873c-1.618-11.188-6.212-21.951-13.174-30.86l-77.58-99.295c-6.645-8.504-10.039-19.125-9.561-29.907zm-30.164 319.13c-1.966-3.405-2.312-7.475-.948-11.164l7.59-20.537 45.486 16.81 28.132 19.114c3.897 2.647 6.434 6.731 7.06 11.137-5.29-.29-10.577-.646-15.858-1.068-22.128-1.78-43.44-4.663-63.34-8.115-3.418-.894-6.34-3.092-8.122-6.177z"/><path d="m363.694 269.935c-.242 5.518 4.035 10.187 9.553 10.428.148.007.297.01.445.01 5.321 0 9.747-4.193 9.982-9.562 1.297-29.589-10.662-50.918-11.172-51.812-2.728-4.783-8.801-6.439-13.595-3.733-4.795 2.71-6.486 8.803-3.797 13.608.098.172 9.618 17.477 8.584 41.061z"/><path d="m133.145 206.164c2.096-.001 4.21-.657 6.013-2.017 4.409-3.324 5.289-9.595 1.964-14.005-15.104-20.033-11.716-46.879-11.665-47.262.758-5.457-3.042-10.502-8.501-11.276-5.471-.771-10.529 3.028-11.305 8.497-.203 1.427-4.725 35.254 15.502 62.082 1.964 2.608 4.959 3.981 7.992 3.981z"/><path d="m158.254 321.185c2.097 5.029 8.014 7.499 13.06 5.41 5.029-2.082 7.498-8.032 5.41-13.061-2.09-5.034-8.024-7.489-13.06-5.41-5.031 2.078-7.503 8.033-5.41 13.061z"/></g></g></svg>