<svg id="Capa_1" enable-background="new 0 0 512.01 512.01" height="512" viewBox="0 0 512.01 512.01" width="512" xmlns="http://www.w3.org/2000/svg"><g><path d="m68.992 388.884c-8.34 0-15.125-6.785-15.125-15.125s6.785-15.125 15.125-15.125h60.25c8.284 0 15-6.716 15-15s-6.716-15-15-15h-60.25c-8.34 0-15.125-6.785-15.125-15.125s6.785-15.125 15.125-15.125c8.284 0 15-6.716 15-15s-6.716-15-15-15c-24.882 0-45.125 20.243-45.125 45.125 0 11.568 4.38 22.13 11.563 30.125-7.183 7.995-11.563 18.557-11.563 30.125 0 24.882 20.243 45.125 45.125 45.125 8.284 0 15-6.716 15-15s-6.716-15-15-15z"/><path d="m146.116 423.403c-5.857-5.857-15.355-5.857-21.213 0l-3.536 3.536-3.536-3.536c-5.857-5.857-15.355-5.857-21.213 0s-5.858 15.355 0 21.213l3.536 3.536-3.536 3.536c-5.858 5.857-5.858 15.355 0 21.213 2.929 2.929 6.768 4.394 10.606 4.394s7.678-1.465 10.606-4.394l3.536-3.536 3.536 3.536c2.929 2.929 6.768 4.394 10.606 4.394s7.678-1.465 10.606-4.394c5.858-5.857 5.858-15.355 0-21.213l-3.536-3.536 3.536-3.536c5.86-5.858 5.86-15.356.002-21.213z"/><path d="m41.047 198.589c3.082-7.689-.652-16.421-8.343-19.503-.014-.006-1.625-1.21-2.283-3.317-.631-2.022-1.833-9.922 9.214-26.624 13.117-19.832 17.434-37.366 12.828-52.115-4.961-15.891-18.259-21.621-19.759-22.223-7.691-3.082-16.422.654-19.504 8.344-3.081 7.689.654 16.422 8.344 19.504.015.005 1.625 1.209 2.283 3.315.631 2.023 1.833 9.922-9.214 26.624-13.117 19.832-17.433 37.366-12.828 52.116 4.961 15.89 18.26 21.621 19.76 22.222 1.829.733 3.718 1.081 5.575 1.081 5.949 0 11.579-3.564 13.927-9.424z"/><path d="m62.035 184.71c4.961 15.89 18.26 21.621 19.76 22.222 1.829.733 3.718 1.081 5.575 1.081 5.949 0 11.579-3.563 13.928-9.424 3.082-7.689-.652-16.421-8.343-19.503-.014-.006-1.625-1.21-2.283-3.317-.631-2.022-1.833-9.922 9.214-26.624 13.117-19.832 17.434-37.366 12.828-52.115-4.961-15.891-18.259-21.621-19.759-22.223-7.692-3.082-16.422.654-19.504 8.344-3.081 7.689.654 16.422 8.344 19.504.015.005 1.625 1.209 2.283 3.315.631 2.023 1.833 9.922-9.214 26.624-13.118 19.832-17.434 37.366-12.829 52.116z"/><path d="m45.134 479.259c-7.846 0-15.363 6.899-15 15 .364 8.127 6.591 15 15 15 7.846 0 15.363-6.899 15-15-.364-8.127-6.591-15-15-15z"/><path d="m458.643 59.207c-35.216-36.066-81.942-56.114-131.571-56.452-40.815-.274-79.651 12.41-112.307 36.689-31.546 23.456-55.301 56.952-66.887 94.318-.073.237-.142.477-.203.717l-32.964 128.573c-1.15 4.49-.162 9.26 2.68 12.921 2.841 3.662 7.216 5.805 11.851 5.805h33.615v31.73c0 8.284 6.716 15 15 15h25.189c5.618 0 10.189 4.571 10.189 10.189s-4.571 10.189-10.189 10.189h-25.189c-8.284 0-15 6.716-15 15v33.557c0 28.433 23.132 51.564 51.564 51.564h58.939v45.25c0 8.284 6.716 15 15 15h155.342c8.284 0 15-6.716 15-15v-174.842c33.593-34.175 52.46-79.094 53.28-127.205.846-49.676-18.096-96.91-53.339-133.003zm23.344 132.491c-.719 42.189-17.984 81.452-48.616 110.558-2.98 2.832-4.668 6.763-4.668 10.874v166.129h-125.342v-45.25c0-8.284-6.716-15-15-15h-73.939c-11.891 0-21.564-9.674-21.564-21.564v-18.557h10.189c22.16 0 40.189-18.029 40.189-40.189s-18.029-40.189-40.189-40.189h-10.189v-31.73c0-8.284-6.716-15-15-15h-29.284l28.068-109.479c20.523-65.66 80.314-109.548 149.126-109.548.363 0 .737.001 1.102.004 41.558.282 80.733 17.12 110.311 47.411 29.602 30.316 45.515 69.925 44.806 111.53z"/><g><path d="m258.236 198.134c-24.882 0-45.125-20.243-45.125-45.125 0-8.284 6.716-15 15-15s15 6.716 15 15c0 8.34 6.785 15.125 15.125 15.125s15.125-6.785 15.125-15.125c0-8.284 6.716-15 15-15s15 6.716 15 15c0 24.882-20.243 45.125-45.125 45.125z"/></g></g></svg>