<svg id="Capa_1" enable-background="new 0 0 512 512" height="512" viewBox="0 0 512 512" width="512" xmlns="http://www.w3.org/2000/svg"><g><path d="m316 15v-15h-120v15c0 24.813-20.187 45-45 45h-151v121h15c41.907 0 76 33.645 76 75v256h330v-256c0-41.355 34.093-75 76-75h15v-121h-151c-24.813 0-45-20.187-45-45zm166 137.048c-51.371 7.239-91 51.097-91 103.952v226h-270v-226c0-52.854-39.629-96.713-91-103.952v-62.048h121c36.219 0 66.524-25.809 73.493-60h63.014c6.969 34.191 37.274 60 73.493 60h121z"/><path d="m211 181h-30v30h-30v30h30v30h-30v30h30v30h-30v30h30v30h-30v30h30v31h30v-31h30v-30h-30v-30h30v-30h-30v-30h30v-30h-30v-30h30v-30h-30z"/></g></svg>