<svg id="Layer_1" enable-background="new 0 0 512.293 512.293" height="512" viewBox="0 0 512.293 512.293" width="512" xmlns="http://www.w3.org/2000/svg"><path d="m94.702 511.935c-61.859-5.61-94.555-41.55-94.555-103.935 0-51.003 23.779-75.138 42.886-94.53 16.266-16.51 29.114-29.55 29.114-57.47 0-37.982-72-60.977-72-120 0-16.523 4.812-29.633 14.303-38.966 18.808-18.494 50.153-17.965 89.833-17.298 36.539.616 42.352 4.179 81.444-37.055 19.894-20.983 40.466-42.681 70.42-42.681 57.855 0 97.066 63.292 87.902 145.767-2.049 18.441-5.582 35.253-8.699 50.087-10.592 50.408-9.997 60.955 20.677 68.624 38.614 9.653 156.12 39.03 156.12 151.522 0 14.905-5.653 37.879-21.52 57.657-14.032 17.492-41.12 38.343-90.48 38.343-72.617 0-103.489-55.643-143.379-60.464-11.196-1.351-29.893-.218-62.866 25.146-26.897 20.69-64.821 38.372-99.2 35.253zm-10.586-400.427c-44.455 0-51.97 5.69-51.97 24.492 0 41.579 72 63.689 72 120 0 41.035-20.358 61.698-38.32 79.928-18.072 18.343-33.68 34.185-33.68 72.072 0 45.735 20.184 67.961 65.445 72.065 33.566 3.042 69.864-23.413 76.799-28.748 32.17-24.745 59.57-34.769 86.215-31.551 52.599 6.357 78.051 60.234 139.542 60.234 29.44 0 51.484-8.871 65.52-26.367 11.431-14.249 14.48-30.36 14.48-37.633 0-78.437-75.266-106.324-131.88-120.478-28.501-7.125-44.735-21.323-49.628-43.404-6.412-28.935 8.583-64.676 13.606-109.886 6.451-58.057-16.282-110.232-56.098-110.232-16.197 0-30.563 15.153-47.197 32.698-53.085 55.992-65.819 46.81-124.834 46.81z"/><path d="m461.777 255.658c-28.704 0-61.231-18.214-74.943-38.783-38.711-58.067-.129-112.542 45.313-112.542 55.198 0 80 39.618 80 96 0 33.168-18.694 55.325-50.37 55.325zm-29.63-119.325c-9.934 0-20.11 6.543-25.322 16.282-6.998 13.077-4.642 29.594 6.635 46.509 9.38 14.07 39.186 28.574 55.679 23.577 3.011-.911 11.008-3.333 11.008-22.369 0-57.364-27.395-63.999-48-63.999z"/></svg>