<svg id="Capa_1" enable-background="new 0 0 512.003 512.003" height="512" viewBox="0 0 512.003 512.003" width="512" xmlns="http://www.w3.org/2000/svg"><g><path d="m456.524 48.743c0-20.843-22.19-37.084-65.953-48.272-8.029-2.051-16.196 2.792-18.248 10.817-2.052 8.026 2.792 16.196 10.817 18.248 29.853 7.631 40.786 15.947 43.08 19.169-1.387 1.864-7.032 7.693-26.613 14.388-7.174 2.453-15.316 4.708-24.263 6.736-6.016-10.693-13.52-20.636-22.411-29.565-25.656-25.764-59.813-40.062-96.179-40.259-.414-.002-1.092-.002-1.506 0-36.364.197-70.521 14.495-96.178 40.26-8.89 8.928-16.394 18.87-22.409 29.561-35.578-8.059-48.427-17.418-50.91-21.076 2.223-3.189 13.118-11.547 43.112-19.215 8.026-2.052 12.869-10.222 10.817-18.248-2.052-8.026-10.219-12.866-18.248-10.817-43.763 11.189-65.953 27.43-65.953 48.273 0 21.446 23.322 37.942 69.349 49.121-3.662 12.432-5.566 25.457-5.566 38.773v58.083c0 52.77 30.556 98.535 74.912 120.579-2.699 11.537-6.791 22.655-12.232 33.19l-60.996 14.518c-.368.087-.732.189-1.093.304-31.133 9.949-52.051 38.588-52.051 71.266v62.425c0 8.284 6.716 15 15 15h346.398c8.284 0 15-6.716 15-15v-62.425c0-32.677-20.918-61.317-52.051-71.266-.36-.115-.725-.217-1.093-.304l-60.997-14.518c-5.442-10.537-9.533-21.653-12.232-33.19 44.357-22.045 74.913-67.81 74.913-120.58v-58.083c0-13.316-1.903-26.342-5.566-38.774 10.31-2.513 19.63-5.328 27.778-8.411 27.585-10.436 41.572-24.133 41.572-40.708zm-358.721 385.835c0-19.398 12.307-36.421 30.682-42.526l56.284-13.396c13.301 19.001 33.493 31.799 56.233 35.737v67.61h-143.199zm316.397 0v47.425h-143.198v-67.61c22.74-3.938 42.932-16.736 56.233-35.737l56.284 13.396c18.375 6.105 30.681 23.128 30.681 42.526zm-111.351-73.403c-10.583 15.278-27.931 24.504-46.848 24.504s-36.264-9.227-46.847-24.505c5.763-11.351 10.243-23.255 13.391-35.572 10.08 2.415 20.594 3.703 31.405 3.703h4.103c10.812 0 21.327-1.288 31.408-3.704 3.148 12.317 7.624 24.22 13.388 35.574zm-44.796-61.87h-4.103c-57.725 0-104.688-46.916-104.688-104.584v-22.557h72.95c5.359 0 10.311-2.859 12.99-7.5l20.799-36.024 20.799 36.024c2.679 4.641 7.631 7.5 12.99 7.5h72.95v22.557c.001 57.668-46.962 104.584-104.687 104.584zm104.688-162.668v5.526h-64.29l-29.459-51.024c-2.679-4.641-7.631-7.5-12.99-7.5s-10.311 2.859-12.99 7.5l-29.459 51.024h-64.29v-5.526c0-58.481 47.617-106.316 106.145-106.632.325-.002.86-.002 1.186 0 35.853.194 67.608 18.221 86.835 45.601-5.666.806-11.508 1.54-17.523 2.191-8.236.89-14.191 8.289-13.301 16.525.831 7.689 7.333 13.389 14.895 13.389.539 0 1.083-.029 1.631-.088 9.903-1.071 19.385-2.356 28.405-3.826 3.372 10.355 5.205 21.392 5.205 32.84z"/></g></svg>