<svg id="Capa_1" data-name="Capa 1" xmlns="http://www.w3.org/2000/svg" viewBox="0 0 600 600"><title>medicamentos</title><path d="M300,594.5A294.5,294.5,0,0,1,91.76,91.76,294.5,294.5,0,1,1,508.24,508.24,292.54,292.54,0,0,1,300,594.5Zm0-573C146.43,21.5,21.5,146.43,21.5,300S146.43,578.5,300,578.5,578.5,453.57,578.5,300,453.57,21.5,300,21.5Z"/><path d="M392.07,200.79a10.55,10.55,0,0,0,10.55-10.55V153.09A31.69,31.69,0,0,0,371,121.44H255.62A31.69,31.69,0,0,0,224,153.09v37.15a10.55,10.55,0,0,0,10.55,10.55h23.22v24.83A53.07,53.07,0,0,0,224,275v96.37A33.28,33.28,0,0,0,205.47,387a33.11,33.11,0,0,0-39.33,5.57l-31.83,31.83a33.06,33.06,0,0,0,46.75,46.75l20.54-20.54a33.09,33.09,0,0,0,32.92,30.22H392.07a10.55,10.55,0,0,0,10.55-10.55V275a53,53,0,0,0-33.76-49.41V200.79Zm-10.55-47.7v26.6H352V142.54h19A10.56,10.56,0,0,1,381.52,153.09Zm-85.81,26.6V142.54h35.17v37.15Zm-50.64-26.6a10.56,10.56,0,0,1,10.55-10.55h19v37.15H245.07ZM381.52,323.25v68.93H324.81V368.27h22.58a10.55,10.55,0,0,0,0-21.1H324.81V323.25Zm-77.81,23.92h-24.5a10.55,10.55,0,1,0,0,21.1h24.5v23.91H265.85a33.22,33.22,0,0,0-20.77-20.77V323.25h58.63v23.92Zm-69.19,43.6a12,12,0,0,1,12,12v12H222.57v-12A12,12,0,0,1,234.52,390.77ZM149.23,456.2a12,12,0,0,1,0-16.91l8.45-8.45,16.91,16.9-8.45,8.46a12,12,0,0,1-16.91,0ZM198,424.37l-8.46,8.46L172.6,415.92c8.54-8.54,10.67-12,16.91-12A12,12,0,0,1,198,424.37Zm24.6,11.42h23.91v11.95a12,12,0,1,1-23.91,0Zm42.76,23.91c3-7.6,2.25-9.72,2.25-46.42H381.52V459.7ZM381.52,275v27.11H245.07V275a31.8,31.8,0,0,1,31.65-31.88h73.15A31.8,31.8,0,0,1,381.52,275Zm-33.76-53H278.84V200.79h68.92Z"/></svg>