<svg id="Capa_1" data-name="Capa 1" xmlns="http://www.w3.org/2000/svg" viewBox="0 0 600 600"><title>mejorar_sueño</title><path d="M300,594.5A294.5,294.5,0,0,1,91.76,91.76,294.5,294.5,0,1,1,508.24,508.24,292.54,292.54,0,0,1,300,594.5Zm0-573C146.43,21.5,21.5,146.43,21.5,300S146.43,578.5,300,578.5,578.5,453.57,578.5,300,453.57,21.5,300,21.5Z"/><path d="M443.72,363.35A16.93,16.93,0,0,0,430,363c-.2.08-.39.17-.59.27A126,126,0,0,1,267.59,193.46a16.86,16.86,0,0,0-8-22.46,16.9,16.9,0,0,0-13.68-.34,159.85,159.85,0,1,0,205.9,215.12,16.89,16.89,0,0,0-8.06-22.43ZM253.88,190l0,0ZM359.51,447C288.57,476.13,207.16,442.16,178,371.3c-27.83-67.7,2-145,66.59-177.12A146.94,146.94,0,0,0,428.23,386a138.65,138.65,0,0,1-68.72,61Z"/><path d="M442.93,166.38H425.65l25-27.3a10.45,10.45,0,0,0-7.72-17.5h-41a10.45,10.45,0,1,0,0,20.89H419.2l-25,27.3a10.44,10.44,0,0,0,7.72,17.49h41a10.44,10.44,0,1,0,0-20.88Z"/><path d="M315.1,199.32a10.46,10.46,0,0,0,9.57,6.23h32.78a10.44,10.44,0,1,0,0-20.88H348.4l16.77-18.32a10.44,10.44,0,0,0-7.72-17.49H324.67a10.45,10.45,0,1,0,0,20.89h9.05L317,188.07A10.42,10.42,0,0,0,315.1,199.32Z"/><path d="M382.71,260.77a10.45,10.45,0,0,0,9.57,6.23h32.78a10.44,10.44,0,1,0,0-20.88H416l16.76-18.32a10.44,10.44,0,0,0-7.72-17.49H392.27a10.45,10.45,0,1,0,0,20.89h9.05l-16.76,18.31A10.43,10.43,0,0,0,382.71,260.77Z"/></svg>