<svg id="Capa_1" enable-background="new 0 0 511.998 511.998" height="512" viewBox="0 0 511.998 511.998" width="512" xmlns="http://www.w3.org/2000/svg"><g><path d="m53.069 511.998h209.505l20-61h134.132v-151h68.536c-.371-.797 7.044 15.112-93.319-200.204-38.424-68.566-116.073-110.347-200.732-97.472-82.681 12.576-149.336 79.075-162.091 161.713-8.885 57.559 7.671 115.462 45.424 158.864 10.154 11.674 14.199 26.377 11.086 40.385zm5.679-343.386c10.777-69.821 67.095-126.005 136.953-136.63 69.13-10.516 135.712 21.661 169.782 82l72.687 156.016h-51.464v60c-33.084 0-60 26.916-60 60h30c0-16.542 13.458-30 30-30v61h-125.867l-20 61h-150.496l24.563-112.253c5.189-23.351-1.279-47.602-17.747-66.534-31.945-36.726-45.945-85.785-38.411-134.599z"/><path d="m221.706 149.998c8.271 0 15 6.729 15 15 0 5.591-3.079 10.684-8.035 13.292-13.549 7.128-21.965 21.89-21.965 38.523h30c0-5.294 2.385-10.107 5.934-11.974 14.844-7.811 24.066-23.077 24.066-39.841 0-24.813-20.187-45-45-45s-45 20.187-45 45h30c0-8.271 6.729-15 15-15z"/><path d="m206.706 239.998h30v30h-30z"/><path d="m221.706 329.998c74.439 0 135-60.561 135-135s-60.561-135-135-135-135 60.561-135 135 60.56 135 135 135zm0-240c57.897 0 105 47.103 105 105s-47.103 105-105 105-105-47.103-105-105 47.103-105 105-105z"/></g></svg>