<?xml version="1.0" encoding="utf-8"?>
<!-- Generator: Adobe Illustrator 24.0.2, SVG Export Plug-In . SVG Version: 6.00 Build 0)  -->
<svg version="1.1" id="Capa_1" xmlns="http://www.w3.org/2000/svg" xmlns:xlink="http://www.w3.org/1999/xlink" x="0px" y="0px"
	 viewBox="0 0 600 600" style="enable-background:new 0 0 600 600;" xml:space="preserve">
<g>
	<g>
		<g>
			<path d="M576.56,276.56H23.44C10.49,276.56,0,287.06,0,300c0,12.94,10.49,23.44,23.44,23.44h553.13
				c12.94,0,23.44-10.49,23.44-23.44S589.51,276.56,576.56,276.56z"/>
		</g>
	</g>
	<g>
		<g>
			<path d="M576.56,89.06H23.44C10.49,89.06,0,99.56,0,112.5s10.49,23.44,23.44,23.44h553.13c12.94,0,23.44-10.49,23.44-23.44
				S589.51,89.06,576.56,89.06z"/>
		</g>
	</g>
	<g>
		<g>
			<path d="M576.56,464.06H23.44C10.49,464.06,0,474.56,0,487.5s10.49,23.44,23.44,23.44h553.13c12.94,0,23.44-10.49,23.44-23.44
				S589.51,464.06,576.56,464.06z"/>
		</g>
	</g>
</g>
</svg>
