<?xml version="1.0" encoding="utf-8"?>
<!-- Generator: Adobe Illustrator 24.0.2, SVG Export Plug-In . SVG Version: 6.00 Build 0)  -->
<svg version="1.1" id="Capa_1" xmlns="http://www.w3.org/2000/svg" xmlns:xlink="http://www.w3.org/1999/xlink" x="0px" y="0px"
	 viewBox="0 0 600 600" style="enable-background:new 0 0 600 600;" xml:space="preserve">
<g>
	<g>
		<path d="M300.45,206.9c-51.33,0-93.09,41.76-93.09,93.09s41.76,93.09,93.09,93.09s93.09-41.76,93.09-93.09
			S351.78,206.9,300.45,206.9z M300.45,346.53c-25.66,0-46.54-20.88-46.54-46.54s20.88-46.54,46.54-46.54s46.54,20.88,46.54,46.54
			S326.11,346.53,300.45,346.53z"/>
	</g>
</g>
<g>
	<g>
		<path d="M586.88,369.38l-60.26-46.17c1.69-15.97,1.59-31.44,0-46.44l60.26-46.17c9.34-7.16,11.87-20.16,5.89-30.3l-58.36-98.88
			c-5.81-9.85-17.93-14.02-28.57-9.82l-71.5,28.16c-13.06-9.34-27.03-17.26-41.78-23.67l-10.73-74.04
			C380.18,10.6,370.37,2.11,358.8,2.11H242.09c-11.56,0-21.37,8.49-23.03,19.93l-10.73,74.04c-14.74,6.41-28.72,14.32-41.78,23.67
			l-71.5-28.16c-10.65-4.19-22.76-0.03-28.57,9.82L8.13,200.29c-5.98,10.14-3.45,23.14,5.89,30.3l60.26,46.17
			c-1.69,15.97-1.59,31.44,0,46.44l-60.26,46.17c-9.34,7.16-11.87,20.16-5.89,30.3l58.35,98.88c5.81,9.85,17.92,14.02,28.57,9.82
			l71.5-28.16c13.06,9.34,27.03,17.26,41.78,23.67l10.73,74.04c1.66,11.44,11.47,19.93,23.03,19.93H358.8
			c11.56,0,21.37-8.49,23.03-19.93l10.73-74.04c14.74-6.41,28.72-14.32,41.78-23.67l71.5,28.16c10.65,4.19,22.76,0.03,28.57-9.82
			l58.36-98.88C598.75,389.54,596.22,376.54,586.88,369.38z M504.42,457.8l-65.22-25.68c-7.81-3.08-16.67-1.71-23.19,3.58
			c-15.74,12.77-33.4,22.76-52.49,29.69c-8.06,2.93-13.86,10.05-15.09,18.54l-9.77,67.4h-76.43l-9.77-67.4
			c-1.23-8.49-7.03-15.61-15.09-18.54c-19.1-6.93-36.76-16.92-52.49-29.69c-6.52-5.29-15.38-6.66-23.19-3.58L96.48,457.8
			l-37.78-64.02l54.64-41.87c6.87-5.26,10.25-13.9,8.78-22.43c-3.43-19.87-3.31-39.78,0-58.99c1.47-8.53-1.91-17.17-8.78-22.43
			l-54.64-41.87l37.78-64.02l65.22,25.68c7.81,3.08,16.67,1.71,23.19-3.58c15.74-12.77,33.4-22.76,52.49-29.69
			c8.06-2.93,13.86-10.05,15.09-18.54l9.77-67.4h76.43l9.77,67.4c1.23,8.49,7.03,15.61,15.09,18.54
			c19.1,6.93,36.76,16.92,52.49,29.69c6.52,5.29,15.38,6.66,23.19,3.58l65.22-25.68l37.78,64.02l-54.64,41.87
			c-6.87,5.26-10.25,13.9-8.78,22.43c3.43,19.87,3.31,39.78,0,58.99c-1.47,8.53,1.91,17.17,8.78,22.43l54.64,41.87L504.42,457.8z"/>
	</g>
</g>
</svg>
