<svg id="Capa_1" data-name="Capa 1" xmlns="http://www.w3.org/2000/svg" viewBox="0 0 600 600"><title>Mi_guia_nutricional</title><path d="M541.3,0H97.83a58.76,58.76,0,0,0-58.7,58.7v45.65H19.57a19.57,19.57,0,1,0,0,39.13H39.13v78.26H19.57a19.57,19.57,0,1,0,0,39.13H39.13v78.26H19.57a19.57,19.57,0,1,0,0,39.13H39.13v78.26H19.57a19.57,19.57,0,1,0,0,39.13H39.13V541.3A58.76,58.76,0,0,0,97.83,600H541.3A58.76,58.76,0,0,0,600,541.3V58.7A58.76,58.76,0,0,0,541.3,0ZM156.52,560.87H97.83A19.59,19.59,0,0,1,78.26,541.3V495.65H97.83a19.57,19.57,0,0,0,0-39.13H78.26V378.26H97.83a19.57,19.57,0,0,0,0-39.13H78.26V260.87H97.83a19.57,19.57,0,0,0,0-39.13H78.26V143.48H97.83a19.57,19.57,0,0,0,0-39.14H78.26V58.7A19.59,19.59,0,0,1,97.83,39.13h58.69V560.87ZM560.87,541.3a19.59,19.59,0,0,1-19.57,19.57H195.65V39.13H541.3A19.59,19.59,0,0,1,560.87,58.7Z"/><path d="M499.83,262.12a78.91,78.91,0,0,0-59.42-26.27c-24.57,0-46,10.85-62.15,31.43-16.17-20.58-37.58-31.43-62.15-31.43a78.91,78.91,0,0,0-59.42,26.27c-14.37,16-22.29,37.3-22.29,60,0,49,37.29,79.22,88.91,121.07,12.72,10.31,27.14,22,42.22,34.93a19.56,19.56,0,0,0,25.46,0c15.09-12.93,29.5-24.62,42.22-34.93,51.62-41.85,88.92-72.08,88.92-121.07C522.13,299.42,514.21,278.1,499.83,262.12Zm-91.27,150.7c-9.31,7.55-19.52,15.83-30.3,24.84-10.78-9-21-17.29-30.3-24.84-50.27-40.75-74.43-61.63-74.43-90.68,0-22.86,14.92-47.16,42.58-47.16,31.48,0,42.81,37.27,43.34,39.07a19.55,19.55,0,0,0,37.63,0c.46-1.59,11.76-39.08,43.33-39.08,27.66,0,42.59,24.3,42.59,47.16C483,351.19,458.83,372.07,408.56,412.82Z"/><path d="M502.17,104.35H254.35a19.57,19.57,0,1,0,0,39.13H502.17a19.57,19.57,0,1,0,0-39.13Z"/></svg>