<?xml version="1.0" encoding="utf-8"?>
<!-- Generator: Adobe Illustrator 24.0.2, SVG Export Plug-In . SVG Version: 6.00 Build 0)  -->
<svg version="1.1" id="Capa_1" xmlns="http://www.w3.org/2000/svg" xmlns:xlink="http://www.w3.org/1999/xlink" x="0px" y="0px"
	 viewBox="0 0 600 600" style="enable-background:new 0 0 600 600;" xml:space="preserve">
<g>
	<g>
		<path d="M437.3,138.4c-36.92-5.95-73.76,1.93-104.96,22.24c9.31-20.45,23.87-38.95,43.57-55.25
			c23.47-19.42,45.73-28.28,45.91-28.35c9.22-3.56,13.8-13.92,10.24-23.14c-3.56-9.21-13.92-13.8-23.14-10.24
			c-2.82,1.09-47.14,18.71-82.14,59.85c-1.31-6.48-3.14-12.99-5.62-19.46C300.34,29.8,243.12,2.78,240.7,1.66
			c-4.39-2.03-9.42-2.2-13.93-0.47c-4.52,1.73-8.14,5.22-10.04,9.67c-1.05,2.46-25.49,60.82-4.66,115.07
			c1.88,4.89,4.05,9.55,6.45,14c-18.09-4-36.95-4.58-55.82-1.54C79.93,151.75,23.12,231.64,36.07,316.49
			c9.22,60.39,22.69,112.27,40.05,154.17c19.69,47.53,44.56,82.48,73.92,103.88c23.25,16.94,49.14,25.46,77.24,25.46
			c7.77,0,15.72-0.65,23.82-1.96c18.69-3.02,35.07-9.87,48.89-20.43c13.82,10.56,30.2,17.42,48.89,20.43
			c37.38,6.03,71.38-1.88,101.06-23.5c29.36-21.39,54.23-56.34,73.92-103.88c17.36-41.91,30.84-93.78,40.05-154.17
			C576.88,231.64,520.07,151.75,437.3,138.4z M243.54,44.77c14.81,10.25,34.88,27.78,44.22,52.11c9.28,24.18,6.07,50.75,1.93,68.34
			c-14.81-10.25-34.88-27.78-44.22-52.11C236.19,88.93,239.4,62.36,243.54,44.77z M528.56,311.09
			c-18.19,119.17-52.65,200.27-99.68,234.53c-21.99,16.02-46.29,21.62-74.3,17.09c-17.16-2.77-30.72-9.76-41.45-21.38
			c-3.39-3.66-8.15-5.75-13.14-5.75s-9.75,2.08-13.14,5.75c-10.73,11.62-24.29,18.61-41.45,21.38c-28.01,4.52-52.31-1.07-74.3-17.09
			c-47.02-34.26-81.49-115.36-99.68-234.53c-10-65.51,33.5-127.14,96.96-137.37c6.09-0.98,12.18-1.47,18.22-1.47
			c24.7,0,48.66,8.12,68.92,23.6c26.17,20,62.74,20,88.91,0c25.22-19.27,56.17-27.13,87.15-22.13h0
			C495.06,183.96,538.56,245.58,528.56,311.09z"/>
	</g>
</g>
</svg>
