<svg id="Capa_1" data-name="Capa 1" xmlns="http://www.w3.org/2000/svg" viewBox="0 0 600 600"><title>Mi_Guia_Nutricional</title><path d="M581.57,0c-9.45.45-16.73,8.59-16.73,18.06V166.41H529.69V18.09C529.69,8.62,522.41.48,513,0a17.59,17.59,0,0,0-18.43,17.56V166.42H459.38V18.09C459.38,8.62,452.1.48,442.65,0a17.58,17.58,0,0,0-18.43,17.56V233.27c0,18.76,8.94,36.78,24.72,46.92a21.13,21.13,0,0,1,9.62,18.47l-9.09,236.25a62.69,62.69,0,1,0,125.28,0l-9.09-236.25A21.14,21.14,0,0,1,575,280.38a56,56,0,0,0,25-46.72V17.59A17.58,17.58,0,0,0,581.57,0ZM564.84,233.66a21,21,0,0,1-9.36,17.48,56.53,56.53,0,0,0-25,48.87l9.09,236.25a27.53,27.53,0,1,1-55,0L493.69,300a56.51,56.51,0,0,0-25-48.87,21,21,0,0,1-9.36-17.48V201.57H564.84v32.09Z" transform="translate(0)"/><path d="M276.56,0c-30.81,0-59.4,16-80.51,45-19.87,27.32-30.82,63.37-30.82,101.48s11,74.16,30.82,101.49a121.21,121.21,0,0,0,26.31,26.75L213.68,535a62.91,62.91,0,1,0,125.76,0l-8.67-260.26A121.18,121.18,0,0,0,357.07,248c19.88-27.33,30.82-63.37,30.82-101.49S377,72.33,357.07,45C336,16,307.38,0,276.56,0Zm0,564.83a27.75,27.75,0,0,1-27.74-28.68L257,290.77a88.1,88.1,0,0,0,39.13,0l8.18,245.39A27.76,27.76,0,0,1,276.56,564.84ZM328.64,227.3c-14.31,19.68-32.81,30.52-52.08,30.52S238.8,247,224.49,227.3c-15.54-21.36-24.1-50.06-24.1-80.81s8.56-59.44,24.1-80.81C238.8,46,257.29,35.17,276.56,35.17S314.33,46,328.64,65.68c15.54,21.37,24.09,50.07,24.09,80.81s-8.55,59.45-24.09,80.81Z" transform="translate(0)"/><path d="M128.91,300.81V17.58A17.58,17.58,0,0,0,103.47,1.86,187.2,187.2,0,0,0,0,169.27V277.73a41.06,41.06,0,0,0,22.87,36.78L13.69,534.86A62.54,62.54,0,0,0,76.17,600a62.54,62.54,0,0,0,62.49-65.14Zm-33,255.61a27.38,27.38,0,0,1-47.12-20.1L58.58,301.9A17.58,17.58,0,0,0,41,283.59a5.86,5.86,0,0,1-5.86-5.86V169.27a151,151,0,0,1,58.59-120V301.17c0,.25,0,.49,0,.73l9.76,234.42a27.12,27.12,0,0,1-7.6,20.1Z" transform="translate(0)"/></svg>