<svg id="Capa_1" data-name="Capa 1" xmlns="http://www.w3.org/2000/svg" viewBox="0 0 215 215"><defs><style>.cls-1{fill:#ff1202;}.cls-2{fill:#fff;}</style></defs><path class="cls-1" d="M202.86,64.87c.64,42.31,0,90,0,130,0,8.44-32.55,20.48-67,19.16-60.53-2.33-124-56.85-124-122.94,0-52.23,33.31-90.22,39-90.22,10.21,0,38.72.2,84.26.2C195.12,1.07,202.86,64.87,202.86,64.87Z"/><path class="cls-2" d="M151.78,85.86a3.65,3.65,0,0,0-2.91-1.45H80.59l-2-6.8A3.62,3.62,0,0,0,75.12,75H63.32a3.63,3.63,0,0,0,0,7.25h9.09l14.46,49.4a3.62,3.62,0,0,0,3.48,2.61H136.4a3.62,3.62,0,0,0,3.48-2.61l12.47-42.6A3.64,3.64,0,0,0,151.78,85.86ZM133.69,127H93.06L82.71,91.66H144Z"/><circle class="cls-2" cx="103.61" cy="146.23" r="4.89"/><circle class="cls-2" cx="123.14" cy="146.23" r="4.89"/></svg>