<svg id="Capa_1" data-name="Capa 1" xmlns="http://www.w3.org/2000/svg" viewBox="0 0 215 215"><defs><style>.cls-1{fill:#52035f;}.cls-2{fill:#fff;}</style></defs><path class="cls-1" d="M202.86,64.87c.64,42.31,0,90,0,130,0,8.44-32.55,20.48-67,19.16-60.53-2.33-124-56.85-124-122.94,0-52.23,33.31-90.22,39-90.22,10.21,0,38.72.2,84.26.2C195.12,1.07,202.86,64.87,202.86,64.87Z"/><path class="cls-2" d="M142.08,85.32l-3.87-11.59a2.53,2.53,0,0,0-2.4-1.73H82.89a2.54,2.54,0,0,0-2.4,1.73L76.63,85.32a2.44,2.44,0,0,0-.13.8V140.2a2.8,2.8,0,0,0,.13.81L80.5,152.4a2.53,2.53,0,0,0,2.39,1.72h52.92a2.53,2.53,0,0,0,2.4-1.72L142.07,141a2.51,2.51,0,0,0,.14-.81V86.12A2.73,2.73,0,0,0,142.08,85.32ZM84.72,77.06H134l2.17,6.53H82.54Zm49.28,72H84.71l-2.15-6.33h53.58Zm3.14-11.39H81.56v-49h55.58Z"/></svg>