<svg id="Capa_1" data-name="Capa 1" xmlns="http://www.w3.org/2000/svg" viewBox="0 0 215 215"><defs><style>.cls-1{fill:#00850b;}.cls-2{fill:#fff;}</style></defs><path class="cls-1" d="M202.86,64.87c.64,42.31,0,90,0,130,0,8.44-32.55,20.48-67,19.16-60.53-2.33-124-56.85-124-122.94,0-52.23,33.31-90.22,39-90.22,10.21,0,38.72.2,84.26.2C195.12,1.07,202.86,64.87,202.86,64.87Z"/><path class="cls-2" d="M119.84,88.3H114.9V71H110V88.3H105V71h-4.94V95.88a12.4,12.4,0,0,0,4.94,9.88V148a7.42,7.42,0,0,0,14.83,0V105.76a12.41,12.41,0,0,0,5-9.88V71h-5Zm-3.71,14-1.23.71V148a2.47,2.47,0,1,1-4.94,0V103l-1.24-.71A7.43,7.43,0,0,1,105,95.88V93.24h14.83v2.64A7.43,7.43,0,0,1,116.13,102.3Z"/><path class="cls-2" d="M80.13,71c-4.22,0-8.1,2.46-10.94,6.94a28.92,28.92,0,0,0-4,15.3,15,15,0,0,0,7.58,13V148a7.42,7.42,0,0,0,14.83,0V106.28a15,15,0,0,0,7.58-13,28.92,28.92,0,0,0-4-15.3C88.24,73.46,84.36,71,80.13,71Zm4,31.48-1.49.64V148a2.48,2.48,0,0,1-5,0V103.12l-1.49-.64a10.05,10.05,0,0,1-6.09-9.24c0-9.37,4.61-17.3,10-17.3s10.05,7.93,10.05,17.3A10,10,0,0,1,84.1,102.48Z"/><path class="cls-2" d="M147,71a17.32,17.32,0,0,0-17.3,17.3v27.63l1.23.72a7.43,7.43,0,0,1,3.71,6.42V148a7.42,7.42,0,0,0,14.83,0V71ZM144.56,148a2.48,2.48,0,0,1-4.95,0V123.07a12.42,12.42,0,0,0-4.94-9.89V88.3a12.38,12.38,0,0,1,9.89-12.11Z"/></svg>