<svg id="Capa_1" data-name="Capa 1" xmlns="http://www.w3.org/2000/svg" viewBox="0 0 215 215"><defs><style>.cls-1{fill:#2d0136;}.cls-2{fill:#fff;}</style></defs><path class="cls-1" d="M202.86,64.87c.64,42.31,0,90,0,130,0,8.44-32.55,20.48-67,19.16-60.53-2.33-124-56.85-124-122.94,0-52.23,33.31-90.22,39-90.22,10.21,0,38.72.2,84.26.2C195.12,1.07,202.86,64.87,202.86,64.87Z"/><path class="cls-2" d="M142.93,139.62l-8.26-12.47V99c0-12.16-8.74-22.25-20.07-24V71.4a3.4,3.4,0,1,0-6.8,0v3.68c-11.34,1.71-20.08,11.8-20.08,24v28.11l-8.26,12.47a3.41,3.41,0,0,0,2.83,5.28H98.42a13.11,13.11,0,0,0,25.55,0H140.1a3.41,3.41,0,0,0,3-1.8A3.38,3.38,0,0,0,142.93,139.62Zm-31.73,8.63a6.35,6.35,0,0,1-5.53-3.35h11A6.35,6.35,0,0,1,111.2,148.25ZM88.63,138.09l5.33-8a3.36,3.36,0,0,0,.56-1.87V99c0-9.6,7.48-17.41,16.68-17.41S127.87,89.44,127.87,99v29.14a3.36,3.36,0,0,0,.56,1.87l5.33,8Z"/></svg>