<svg id="Capa_1" data-name="Capa 1" xmlns="http://www.w3.org/2000/svg" viewBox="0 0 215 215"><defs><style>.cls-1{fill:#06058d;}.cls-2{fill:#fff;}</style></defs><path class="cls-1" d="M202.86,64.87c.64,42.31,0,90,0,130,0,8.44-32.55,20.48-67,19.16-60.53-2.33-124-56.85-124-122.94,0-52.23,33.31-90.22,39-90.22,10.21,0,38.72.2,84.26.2C195.12,1.07,202.86,64.87,202.86,64.87Z"/><path class="cls-2" d="M148,76.45H130.58V72.89a3.53,3.53,0,0,0-7.06,0v3.56H89.1V72.89a3.53,3.53,0,0,0-7.06,0v3.56H64.65A3.53,3.53,0,0,0,61.12,80v69.17a3.53,3.53,0,0,0,3.53,3.53H148a3.53,3.53,0,0,0,3.53-3.53V80A3.53,3.53,0,0,0,148,76.45Zm-3.53,69.17H68.18V83.51H82v3.56a3.53,3.53,0,0,0,7.06,0V83.51h34.42v3.56a3.53,3.53,0,1,0,7.06,0V83.51h13.86Z"/><circle class="cls-2" cx="106.31" cy="107.3" r="4.77"/><circle class="cls-2" cx="106.31" cy="128.05" r="4.77"/><circle class="cls-2" cx="85.57" cy="107.3" r="4.77"/><circle class="cls-2" cx="127.05" cy="107.3" r="4.77"/><circle class="cls-2" cx="85.57" cy="128.05" r="4.77"/><circle class="cls-2" cx="127.05" cy="128.05" r="4.77"/></svg>