<svg id="Capa_1" data-name="Capa 1" xmlns="http://www.w3.org/2000/svg" viewBox="0 0 215 215"><defs><style>.cls-1{fill:#a7050a;}.cls-2{fill:#fff;}</style></defs><path class="cls-1" d="M202.86,64.87c.64,42.31,0,90,0,130,0,8.44-32.55,20.48-67,19.16-60.53-2.33-124-56.85-124-122.94,0-52.23,33.31-90.22,39-90.22,10.21,0,38.72.2,84.26.2C195.12,1.07,202.86,64.87,202.86,64.87Z"/><path class="cls-2" d="M79.6,119a11.51,11.51,0,0,0-11.5,11.5v13.4a11.51,11.51,0,0,0,23,0V130.5A11.52,11.52,0,0,0,79.6,119Zm4.83,24.9a4.83,4.83,0,0,1-9.66,0V130.5a4.83,4.83,0,0,1,9.66,0Z"/><path class="cls-2" d="M110.8,70A11.51,11.51,0,0,0,99.3,81.5v62.4a11.5,11.5,0,0,0,23,0V81.5A11.51,11.51,0,0,0,110.8,70Zm4.83,73.9a4.83,4.83,0,0,1-9.66,0V81.5a4.83,4.83,0,0,1,9.66,0Z"/><path class="cls-2" d="M142,94.5A11.52,11.52,0,0,0,130.49,106v37.9a11.51,11.51,0,0,0,23,0V106A11.51,11.51,0,0,0,142,94.5Zm4.83,49.4a4.83,4.83,0,1,1-9.66,0V106a4.83,4.83,0,0,1,9.66,0Z"/></svg>