<svg id="Capa_1" data-name="Capa 1" xmlns="http://www.w3.org/2000/svg" viewBox="0 0 215 215"><defs><style>.cls-1{fill:#e4d517;}.cls-2{fill:#fff;}</style></defs><path class="cls-1" d="M202.86,64.87c.64,42.31,0,90,0,130,0,8.44-32.55,20.48-67,19.16-60.53-2.33-124-56.85-124-122.94,0-52.23,33.31-90.22,39-90.22,10.21,0,38.72.2,84.26.2C195.12,1.07,202.86,64.87,202.86,64.87Z"/><path class="cls-2" d="M149.79,70.71a2.43,2.43,0,0,0-3.44,0l-7.08,7.08a8.07,8.07,0,0,0-1.38-.49l-22-5.44A7.34,7.34,0,0,0,109,73.78L69.63,113a7.3,7.3,0,0,0,0,10.31l27.52,27.52a7.3,7.3,0,0,0,10.31,0l39.26-39.32a7.34,7.34,0,0,0,1.92-6.93l-5.44-22a8.07,8.07,0,0,0-.49-1.38l7.08-7.08A2.43,2.43,0,0,0,149.79,70.71Zm-5.87,35.09a2.46,2.46,0,0,1-.64,2.31L104,147.43a2.43,2.43,0,0,1-3.44,0L73.07,119.92a2.43,2.43,0,0,1,0-3.44l39.32-39.26a2.45,2.45,0,0,1,1.73-.71,2.3,2.3,0,0,1,.58.07l20.68,5.1-5.86,5.86A7.3,7.3,0,1,0,133,91l5.86-5.86Zm-15.82-10a2.43,2.43,0,1,1,0-3.44h0A2.45,2.45,0,0,1,128.1,95.84Z"/><path class="cls-2" d="M107.46,99.28a7.3,7.3,0,1,0,0,10.32A7.32,7.32,0,0,0,107.46,99.28ZM104,106.16a2.43,2.43,0,1,1,0-3.44A2.43,2.43,0,0,1,104,106.16Z"/><path class="cls-2" d="M110.9,123.35a7.3,7.3,0,1,0,0,10.32A7.3,7.3,0,0,0,110.9,123.35Zm-3.44,6.88a2.43,2.43,0,1,1,0-3.44A2.43,2.43,0,0,1,107.46,130.23Z"/><path class="cls-2" d="M121.92,114.49a2.44,2.44,0,0,0-2.69-2.15l-30.95,3.44a2.43,2.43,0,0,0,.26,4.85l.28,0,31-3.44A2.44,2.44,0,0,0,121.92,114.49Z"/></svg>