<svg id="Capa_1" data-name="Capa 1" xmlns="http://www.w3.org/2000/svg" viewBox="0 0 215 215"><defs><style>.cls-1{fill:#ff4d05;}.cls-2{fill:#fff;}</style></defs><path class="cls-1" d="M202.86,64.87c.64,42.31,0,90,0,130,0,8.44-32.55,20.48-67,19.16-60.53-2.33-124-56.85-124-122.94,0-52.23,33.31-90.22,39-90.22,10.21,0,38.72.2,84.26.2C195.12,1.07,202.86,64.87,202.86,64.87Z"/><path class="cls-2" d="M127.71,91.2c-6.92-1.74-14.25-.07-18.25,4.16a3.84,3.84,0,0,1-.68.59,17.66,17.66,0,0,1,17.55-15.87,2.52,2.52,0,1,0,0-5,22.62,22.62,0,0,0-18,8.93A17.68,17.68,0,0,0,91.06,70H81a2.52,2.52,0,0,0-2.52,2.52A17.65,17.65,0,0,0,96.09,90.15H105a22.7,22.7,0,0,0-1.24,5.9,4.17,4.17,0,0,1-.83-.69c-4.2-4.45-11-6.19-17.85-4.54a20.34,20.34,0,0,0-15,14.24,50.34,50.34,0,0,0,7.63,41.75c4.43,5.93,9.71,9.19,14.87,9.19a12.31,12.31,0,0,0,5.91-1.51,16.05,16.05,0,0,1,15.41,0,12.24,12.24,0,0,0,5.9,1.51c5.17,0,10.45-3.26,14.88-9.19a50.56,50.56,0,0,0,7.81-41.12A20,20,0,0,0,127.71,91.2ZM96.09,85.12A12.62,12.62,0,0,1,83.75,75h7.31A12.61,12.61,0,0,1,103.4,85.12Zm42.12,40.27a43.83,43.83,0,0,1-7.59,18.4c-3.4,4.56-7.35,7.17-10.84,7.17a7.24,7.24,0,0,1-3.5-.9,21.08,21.08,0,0,0-20.21,0,7.25,7.25,0,0,1-3.51.9c-3.48,0-7.43-2.61-10.84-7.17a45.43,45.43,0,0,1-6.82-37.33A15.17,15.17,0,0,1,86.21,95.72c5-1.21,10.09,0,13,3.1a9.64,9.64,0,0,0,7,3h0a9.62,9.62,0,0,0,7-3c2.73-2.9,8.22-4,13.35-2.73A14.9,14.9,0,0,1,137.61,107,44.68,44.68,0,0,1,138.21,125.39Z"/></svg>