<svg id="Capa_1" data-name="Capa 1" xmlns="http://www.w3.org/2000/svg" viewBox="0 0 215 215"><defs><style>.cls-1{fill:#019ba9;}.cls-2{fill:#fff;}</style></defs><path class="cls-1" d="M202.86,64.87c.64,42.31,0,90,0,130,0,8.44-32.55,20.48-67,19.16-60.53-2.33-124-56.85-124-122.94,0-52.23,33.31-90.22,39-90.22,10.21,0,38.72.2,84.26.2C195.12,1.07,202.86,64.87,202.86,64.87Z"/><path class="cls-2" d="M152.54,102.73l-1.41-4.32A3.56,3.56,0,0,0,148.26,96l-20.71-3,5-6.86a3.57,3.57,0,0,0-5.78-4.19l-5,6.85L112.53,70a3.56,3.56,0,0,0-3.2-2h-4.54a3.57,3.57,0,0,0-3.2,2L92.34,88.77l-5-6.85a3.57,3.57,0,0,0-5.78,4.19l5,6.86L65.86,96A3.56,3.56,0,0,0,63,98.41l-1.41,4.32a3.59,3.59,0,0,0,.91,3.65l15,14.63-8,2.62a3.57,3.57,0,1,0,2.21,6.78l8-2.62-3.54,20.65a3.61,3.61,0,0,0,1.42,3.49l3.67,2.67a3.59,3.59,0,0,0,3.76.27l18.51-9.75v8.47a3.57,3.57,0,1,0,7.14,0v-8.47l18.51,9.75a3.6,3.6,0,0,0,3.76-.27l3.67-2.67a3.59,3.59,0,0,0,1.42-3.49l-3.54-20.65,8,2.62a3.57,3.57,0,1,0,2.21-6.78l-8-2.62,15-14.63a3.56,3.56,0,0,0,.91-3.65ZM127.48,120a3.64,3.64,0,0,0-1,3.25l4.15,24.23-.08.06-21.73-11.44a3.59,3.59,0,0,0-3.41,0L83.62,147.52l-.08-.06,4.15-24.23a3.61,3.61,0,0,0-1-3.25L69.05,102.82l0-.1,24.35-3.54a3.59,3.59,0,0,0,2.7-2L107,75.13h.1L118,97.18a3.56,3.56,0,0,0,2.71,2L145,102.72l0,.1Z"/></svg>