<svg id="Capa_1" data-name="Capa 1" xmlns="http://www.w3.org/2000/svg" viewBox="0 0 215 215"><defs><style>.cls-1{fill:#1331fd;}.cls-2,.cls-3{fill:#fff;}.cls-3{stroke:#fff;stroke-miterlimit:10;stroke-width:2px;}</style></defs><path class="cls-1" d="M202.86,64.87c.64,42.31,0,90,0,130,0,8.44-32.55,20.48-67,19.16-60.53-2.33-124-56.85-124-122.94,0-52.23,33.31-90.22,39-90.22,10.21,0,38.72.2,84.26.2C195.12,1.07,202.86,64.87,202.86,64.87Z"/><path class="cls-2" d="M140.87,76.81h.18a2.46,2.46,0,0,0,0-4.91H84.54a9,9,0,0,0-9,9v65.71a9,9,0,0,0,9,9h49.94a9,9,0,0,0,9-9V94.06a9,9,0,0,0-2.63-6.36V76.81Zm-56.33,0H136v8.35a9.08,9.08,0,0,0-1.49-.12H84.54a4.12,4.12,0,1,1,0-8.23Zm54.05,69.82a4.11,4.11,0,0,1-4.11,4.11H84.54a4.12,4.12,0,0,1-4.12-4.11V89a9,9,0,0,0,4.12,1h49.94a4.06,4.06,0,0,1,2.37.76l.19.13a4.14,4.14,0,0,1,1.55,3.22Z"/><path class="cls-3" d="M109.82,134.15a1.79,1.79,0,0,1-1.21-.46c-1.27-1.1-2.49-2.14-3.57-3.06h0a65.49,65.49,0,0,1-7.79-7.31,11.66,11.66,0,0,1-3.11-7.64A9.78,9.78,0,0,1,96.63,109a8.43,8.43,0,0,1,6.27-2.73,7.89,7.89,0,0,1,4.93,1.7,10.39,10.39,0,0,1,2,2.08,10.39,10.39,0,0,1,2-2.08,7.89,7.89,0,0,1,4.93-1.7A8.43,8.43,0,0,1,123,109a9.78,9.78,0,0,1,2.49,6.69,11.66,11.66,0,0,1-3.11,7.64,65.49,65.49,0,0,1-7.79,7.31c-1.07.92-2.3,2-3.57,3.08A1.83,1.83,0,0,1,109.82,134.15Zm-6.92-26.06A6.61,6.61,0,0,0,98,110.23a8,8,0,0,0-2,5.44,9.83,9.83,0,0,0,2.68,6.47,64.43,64.43,0,0,0,7.57,7.08h0c1.08.92,2.31,2,3.59,3.08,1.28-1.12,2.51-2.16,3.59-3.09a64.43,64.43,0,0,0,7.57-7.08,9.83,9.83,0,0,0,2.68-6.47,8,8,0,0,0-2-5.44,6.61,6.61,0,0,0-4.92-2.14,6.11,6.11,0,0,0-3.8,1.31,8.86,8.86,0,0,0-2.12,2.46,1.17,1.17,0,0,1-2,0,8.86,8.86,0,0,0-2.12-2.46A6.11,6.11,0,0,0,102.9,108.09Z"/></svg>