<svg id="Capa_1" data-name="Capa 1" xmlns="http://www.w3.org/2000/svg" viewBox="0 0 215 215"><defs><style>.cls-1{fill:#ff1669;}.cls-2{fill:#fff;}</style></defs><path class="cls-1" d="M202.86,64.87c.64,42.31,0,90,0,130,0,8.44-32.55,20.48-67,19.16-60.53-2.33-124-56.85-124-122.94,0-52.23,33.31-90.22,39-90.22,10.21,0,38.72.2,84.26.2C195.12,1.07,202.86,64.87,202.86,64.87Z"/><path class="cls-2" d="M135.15,69H85a3.35,3.35,0,0,0-3.34,3.35v79a3.35,3.35,0,0,0,5.83,2.24l22.61-25,22.62,25a3.35,3.35,0,0,0,5.83-2.24v-79A3.35,3.35,0,0,0,135.15,69Zm-3.34,73.65-19.28-21.28a3.35,3.35,0,0,0-5,0L88.3,142.65v-67h43.51Z"/></svg>