<?xml version="1.0" encoding="utf-8"?>
<!-- Generator: Adobe Illustrator 24.0.2, SVG Export Plug-In . SVG Version: 6.00 Build 0)  -->
<svg version="1.1" id="Capa_1" xmlns="http://www.w3.org/2000/svg" xmlns:xlink="http://www.w3.org/1999/xlink" x="0px" y="0px"
	 viewBox="0 0 600 600" style="enable-background:new 0 0 600 600;" xml:space="preserve">
<g>
	<path d="M26.06,427.01c225.01-63.96,307.25,65.29,557.01,0.1c9.27-2.42,14.82-11.9,12.4-21.16c-2.42-9.27-11.9-14.82-21.16-12.4
		c-49.03,12.8-91.54,17.54-130.03,17.59l-50.29-81.05c29.73,36.94,84.97,39.07,117.34,4.64c14.23-15.13,21.72-34.9,21.08-55.67
		c-2.13-69.61-87.42-100.84-134.39-50.9c-22.63,24.06-26.73,58.27-13.99,85.87l-68.81-110.9l102.11-29.47
		c31.71-9.15,46.7-45.45,30.59-74.32c-11.7-20.96-35.98-30.96-59.04-24.3l-154.59,44.61c-40.08,11.57-58.03,58.16-36.02,93.63
		l46.73,75.31c-33.68,20.91-140.51,87.16-141.65,87.94c-26.82,2.83-55.53,8.22-86.77,17.11c-9.21,2.62-14.56,12.21-11.94,21.43
		C7.25,424.29,16.84,429.63,26.06,427.01L26.06,427.01z M423.3,251.93c16.33-17.36,43.58-18.15,60.9-1.87
		c17.34,16.31,18.18,43.55,1.87,60.9c-16.31,17.34-43.55,18.18-60.9,1.87C407.82,296.52,406.99,269.28,423.3,251.93z M283.62,285.05
		L227.75,195c-9.87-15.9-1.83-36.82,16.16-42.01l154.59-44.61c7.48-2.16,15.34,1.08,19.13,7.87c5.23,9.37,0.34,21.12-9.91,24.08
		L283.6,176.15c-11.05,3.19-15.98,16.06-9.93,25.81l128.69,207.41c-80.93-6.79-146.69-31.2-229.96-34.91l105.62-65.53
		C286.16,303.88,288.67,293.19,283.62,285.05L283.62,285.05z"/>
	<path d="M574.31,474.49c-238.96,62.38-322.81-66.68-557.74,0.1c-9.21,2.62-14.56,12.21-11.94,21.43s12.22,14.56,21.43,11.94
		c225.01-63.96,307.25,65.29,557.01,0.1c9.27-2.42,14.82-11.9,12.4-21.16C593.05,477.63,583.58,472.08,574.31,474.49L574.31,474.49z
		"/>
</g>
</svg>
