<svg id="Capa_1" enable-background="new 0 0 512 512" height="512" viewBox="0 0 512 512" width="512" xmlns="http://www.w3.org/2000/svg"><path d="m256 0c-74.14 0-148.873 33.139-199.683 96.159-2.818-3.241-6.93-5.159-11.317-5.159-5.358 0-10.31 2.858-12.99 7.499l-25.997 45.02c-3.934 6.813-6.013 14.586-6.013 22.481 0 9.592 3.027 18.486 8.161 25.797-5.414 20.876-8.161 42.433-8.161 64.203 0 140.959 115.05 256 256 256 140.959 0 256-115.05 256-256 0-140.959-115.05-256-256-256zm-224.007 158.521 13.007-22.525 13.007 22.523c1.323 2.291 1.993 4.808 1.993 7.481 0 8.271-6.729 15-15 15s-15-6.729-15-15c0-2.673.67-5.189 1.993-7.479zm224.007 323.479c-124.617 0-226-101.383-226-226 0-15.601 1.601-31.071 4.753-46.191 3.294.77 6.722 1.191 10.247 1.191 24.813 0 45-20.187 45-45 0-7.895-2.079-15.668-6.013-22.482l-11.239-19.462c42.735-59.056 110.557-94.056 183.252-94.056 124.617 0 226 101.383 226 226s-101.383 226-226 226z"/><path d="m136 181c25.214 0 48.375 11.287 63.742 30.314-28.095 2.04-54.229 13.959-74.349 34.08-5.858 5.858-5.858 15.355 0 21.213 5.857 5.858 15.355 5.859 21.213 0 16.513-16.513 38.468-25.607 61.82-25.607h17.574c11.128 0 18.402-11.736 13.417-21.708l-3.167-6.335c-18.978-37.954-57.777-61.957-100.25-61.957-8.284 0-15 6.716-15 15s6.716 15 15 15z"/><path d="m286 241h17.574c23.353 0 45.307 9.094 61.82 25.606 5.857 5.858 15.355 5.859 21.213 0 5.858-5.858 5.858-15.355 0-21.213-20.12-20.12-46.253-32.04-74.348-34.08 15.366-19.024 38.529-30.313 63.741-30.313 8.284 0 15-6.716 15-15s-6.716-15-15-15c-42.433 0-81.254 23.968-100.25 61.958l-3.167 6.334c-4.976 9.953 2.268 21.708 13.417 21.708z"/><path d="m335.394 335.394c-10.694 10.693-28.093 10.693-38.787 0-22.391-22.391-58.822-22.391-81.213 0-10.694 10.693-28.093 10.693-38.787 0-22.441-22.442-58.769-22.445-81.213 0-5.858 5.858-5.858 15.355 0 21.213 5.857 5.858 15.355 5.858 21.213 0 10.694-10.693 28.093-10.693 38.787 0 22.441 22.442 58.769 22.445 81.213 0 5.18-5.18 12.068-8.033 19.394-8.033s14.213 2.853 19.394 8.033c22.441 22.442 58.769 22.445 81.213 0 10.694-10.693 28.093-10.693 38.787 0 5.857 5.858 15.355 5.858 21.213 0s5.858-15.355 0-21.213c-22.443-22.443-58.77-22.445-81.214 0z"/></svg>