<?xml version="1.0" encoding="utf-8"?>
<!-- Generator: Adobe Illustrator 24.0.2, SVG Export Plug-In . SVG Version: 6.00 Build 0)  -->
<svg version="1.1" id="Capa_1" xmlns="http://www.w3.org/2000/svg" xmlns:xlink="http://www.w3.org/1999/xlink" x="0px" y="0px"
	 viewBox="0 0 600 600" style="enable-background:new 0 0 600 600;" xml:space="preserve">
<g>
	<path d="M300,0C134.58,0,0,134.58,0,300s134.58,300,300,300s300-134.58,300-300S465.42,0,300,0z M300,564.84
		C153.96,564.84,35.16,446.04,35.16,300S153.96,35.16,300,35.16S564.84,153.96,564.84,300S446.04,564.84,300,564.84z"/>
	<path d="M261.18,222.07c0-33.28-27.07-60.35-60.35-60.35s-60.35,27.07-60.35,60.35s27.07,60.35,60.35,60.35
		S261.18,255.35,261.18,222.07z M175.63,222.07c0-13.89,11.3-25.2,25.2-25.2s25.2,11.3,25.2,25.2s-11.3,25.2-25.2,25.2
		S175.63,235.96,175.63,222.07z"/>
	<path d="M399.18,161.72c-33.28,0-60.35,27.07-60.35,60.35s27.07,60.35,60.35,60.35s60.35-27.07,60.35-60.35
		S432.45,161.72,399.18,161.72z M399.18,247.27c-13.89,0-25.2-11.3-25.2-25.2s11.3-25.2,25.2-25.2c13.89,0,25.2,11.3,25.2,25.2
		S413.07,247.27,399.18,247.27z"/>
	<path d="M405.47,396.09H194.53c-9.71,0-17.58,7.87-17.58,17.58s7.87,17.58,17.58,17.58h210.94c9.71,0,17.58-7.87,17.58-17.58
		S415.18,396.09,405.47,396.09z"/>
</g>
</svg>
