<?xml version="1.0" encoding="utf-8"?>
<!-- Generator: Adobe Illustrator 24.0.2, SVG Export Plug-In . SVG Version: 6.00 Build 0)  -->
<svg version="1.1" id="Capa_1" xmlns="http://www.w3.org/2000/svg" xmlns:xlink="http://www.w3.org/1999/xlink" x="0px" y="0px"
	 viewBox="0 0 600 600" style="enable-background:new 0 0 600 600;" xml:space="preserve">
<g>
	<g>
		<path d="M518.75,493.61l-56.97-85.92V213.93c0-83.81-60.21-153.38-138.35-165.13V23.44C323.44,10.49,312.94,0,300,0
			s-23.44,10.49-23.44,23.44v25.37c-78.14,11.75-138.35,81.32-138.35,165.13v193.76l-56.97,85.92c-4.77,7.2-5.2,16.43-1.12,24.04
			c4.08,7.61,12.02,12.35,20.65,12.35h111.17c10.15,40.22,45.78,70,88.05,70s77.9-29.79,88.05-70h111.17
			c8.63,0,16.57-4.75,20.65-12.35C523.95,510.04,523.52,500.8,518.75,493.61z M300,553.13c-16.22,0-30.42-9.3-38.08-23.13h76.15
			C330.42,543.82,316.22,553.13,300,553.13z M144.44,483.12l36.74-55.42c2.55-3.84,3.9-8.34,3.9-12.95V213.93
			c0-66.17,51.55-120.01,114.91-120.01s114.91,53.83,114.91,120.01v200.82c0,4.61,1.36,9.11,3.9,12.95l36.74,55.42
			C441.72,483.12,150.38,483.12,144.44,483.12z"/>
	</g>
</g>
</svg>
