<svg id="Capa_1" enable-background="new 0 0 512 512" height="512" viewBox="0 0 512 512" width="512" xmlns="http://www.w3.org/2000/svg"><g><path d="m509.222 194.083c-1.158-1.209-28.863-29.932-73.849-58.984-41.747-26.96-106.754-59.099-179.373-59.099s-137.626 32.139-179.374 59.1c-44.985 29.052-72.691 57.775-73.849 58.984-3.704 3.867-3.704 9.966 0 13.833 1.158 1.209 28.863 29.932 73.849 58.984 41.747 26.96 106.755 59.099 179.374 59.099 41.936 0 81.323-10.726 115.169-24.975-1.535 2.37-3.095 4.818-4.659 7.325-7.47 11.99-13.45 22.79-17.77 32.11-2.69 5.81-4.7 10.93-6.15 15.64-1.75 5.77-2.57 10.5-2.59 14.9 0 8.1 1.59 15.96 4.72 23.36 3.02 7.14 7.34 13.56 12.85 19.07 5.51 5.5 11.93 9.83 19.07 12.85 7.4 3.13 15.26 4.72 23.36 4.72 11.09 0 21.92-3.05 31.33-8.82 9.15-5.62 16.65-13.58 21.67-23.03 1.25-2.36 1.51-5.06.73-7.62-.78-2.55-2.51-4.65-4.86-5.9-1.45-.77-3.07-1.18-4.69-1.18-3.71 0-7.1 2.03-8.84 5.31-6.99 13.1-20.52 21.24-35.32 21.24h-.02c-10.67 0-20.72-4.16-28.28-11.71-7.55-7.57-11.72-17.62-11.72-28.29-.02-2.15.62-5.52 1.71-9.03 4.95-16.45 20.07-40.6 26.34-50.22 3.75-5.77 7.77-11.72 11.95-17.67 5.45 7.76 10.56 15.41 15.19 22.75 1.85 2.92 5.01 4.67 8.47 4.67 1.88-.01 3.73-.54 5.33-1.55 2.26-1.43 3.82-3.65 4.41-6.25.59-2.61.13-5.29-1.29-7.54-6.679-10.58-13.204-20.022-17.795-26.473 7.54-4.294 14.581-8.602 21.059-12.786 44.985-29.052 72.691-57.775 73.849-58.984 3.703-3.868 3.703-9.966-.001-13.834zm-148.222 6.917c0 56.947-45.571 103.45-102.16 104.96-.947.012-4.73.012-5.675 0-56.592-1.507-102.165-48.011-102.165-104.96 0-56.947 45.571-103.45 102.16-104.96.947-.012 4.73-.012 5.675 0 56.592 1.507 102.165 48.011 102.165 104.96zm-336.671-.004c10.708-10.048 32.976-29.61 63.148-49.096 21.447-13.851 49.335-29.136 81.187-40.221-19.456 19.027-32.732 44.333-36.528 72.608l-17.115-9.938c-2.89-1.68-6.65-1.77-9.62-.23l-27 14c-2.38 1.23-4.13 3.31-4.93 5.86-.81 2.54-.58 5.25.65 7.62 1.73 3.33 5.13 5.4 8.89 5.4 1.59 0 3.17-.39 4.59-1.12l22.13-11.47 21.422 12.437c.053 1.137.111 2.273.194 3.403l-25.756 9.35c-2.51.91-4.52 2.75-5.65 5.17s-1.25 5.13-.34 7.64c1.43 3.94 5.21 6.59 9.4 6.59 1.16 0 2.31-.2 3.41-.6l22.088-8.019c5.599 23.151 17.662 43.8 34.161 59.937-31.676-11.024-59.413-26.195-80.756-39.945-30.317-19.528-52.796-39.268-63.575-49.376zm400.194 49.103c-21.441 13.847-49.319 29.128-81.159 40.212 16.322-15.969 28.284-36.366 33.954-59.222l24.302 5.956c.8.196 1.6.29 2.388.29 4.499 0 8.586-3.058 9.705-7.622 1.315-5.364-1.968-10.778-7.332-12.093l-25.814-6.327c.278-3.395.433-6.826.433-10.293 0-5.662-.4-11.23-1.133-16.695l11.338-4.724 21.335 18.053c1.844 1.561 4.142 2.366 6.461 2.366 1.521 0 3.053-.347 4.47-1.056l8-4c4.94-2.47 6.942-8.477 4.472-13.417-2.47-4.939-8.475-6.942-13.417-4.472l-2.102 1.051-20.966-17.741c-2.863-2.423-6.843-3.038-10.306-1.597l-13.616 5.673c-6.204-20.246-17.425-38.312-32.201-52.763 31.678 11.024 59.417 26.196 80.762 39.947 30.313 19.528 52.791 39.267 63.573 49.377-10.707 10.05-32.975 29.612-63.147 49.097z"/><path d="m206 201c0 27.57 22.43 50 50 50s50-22.43 50-50-22.43-50-50-50-50 22.43-50 50zm80 0c0 16.542-13.458 30-30 30s-30-13.458-30-30 13.458-30 30-30 30 13.458 30 30z"/><circle cx="445.009" cy="351.13" r="10"/><path d="m100 305.5c-2.982 0-5.809 1.331-7.709 3.63-7.062 8.547-42.291 52.42-42.291 76.87 0 27.57 22.43 50 50 50s50-22.43 50-50c0-24.45-35.229-68.323-42.291-76.87-1.9-2.299-4.727-3.63-7.709-3.63zm0 110.5c-16.542 0-30-13.458-30-30 0-10.743 15.691-35.502 30-54.369 14.309 18.867 30 43.626 30 54.369 0 16.542-13.458 30-30 30z"/></g></svg>