<svg id="Capa_1" enable-background="new 0 0 512 512" height="512" viewBox="0 0 512 512" width="512" xmlns="http://www.w3.org/2000/svg"><g><path d="m507.562 195.443c-1.144-1.383-28.514-34.262-72.869-67.453-26.182-19.592-52.899-35.231-79.412-46.485-33.62-14.27-67.022-21.505-99.281-21.505s-65.661 7.235-99.28 21.505c-26.513 11.254-53.23 26.894-79.412 46.485-44.355 33.191-71.726 66.07-72.869 67.453-4.585 5.547-4.585 13.566 0 19.113 1.144 1.383 28.514 34.262 72.869 67.453 26.182 19.592 52.899 35.231 79.412 46.485 33.619 14.271 67.021 21.506 99.28 21.506s65.661-7.235 99.28-21.505c26.513-11.254 53.23-26.894 79.412-46.485 44.355-33.191 71.726-66.07 72.869-67.453 4.585-5.547 4.585-13.567.001-19.114zm-373.283 88.268c-14.35-8.236-27.299-16.996-38.425-25.293-27.772-20.71-48.752-41.656-59.729-53.412 15.552-16.629 51.209-51.678 98.17-78.739-14.729 22.686-23.295 49.727-23.295 78.733 0 28.996 8.559 56.028 23.279 78.711zm121.721 36.289c-63.411 0-115-51.589-115-115s51.589-115 115-115 115 51.589 115 115-51.589 115-115 115zm121.698-36.266c14.729-22.688 23.302-49.726 23.302-78.734 0-29.014-8.585-56.051-23.322-78.742 14.373 8.243 27.329 17.017 38.469 25.324 27.77 20.708 48.749 41.654 59.729 53.412-15.554 16.629-51.213 51.68-98.178 78.74z"/><path d="m25.949 131.361c52.176-46.24 134.442-101.361 230.051-101.361s177.875 55.121 230.051 101.361c2.855 2.531 6.406 3.774 9.943 3.774 4.144 0 8.268-1.707 11.231-5.051 5.495-6.2 4.923-15.681-1.276-21.175-33.186-29.41-68.054-53.456-103.637-71.472-49.069-24.84-98.295-37.437-146.312-37.437s-97.243 12.597-146.312 37.438c-35.584 18.016-70.452 42.062-103.637 71.472-6.199 5.494-6.771 14.975-1.276 21.175 5.492 6.199 14.972 6.77 21.174 1.276z"/><path d="m256 135c-38.599 0-70 31.401-70 70s31.401 70 70 70 70-31.401 70-70-31.401-70-70-70zm0 110c-22.056 0-40-17.944-40-40s17.944-40 40-40 40 17.944 40 40-17.944 40-40 40z"/><path d="m269.416 390.292c-2.541-5.082-7.734-8.292-13.416-8.292s-10.875 3.21-13.416 8.292l-27.64 55.278c-7.167 14.333-6.416 31.028 2.009 44.66 8.425 13.631 23.023 21.77 39.047 21.77s30.622-8.139 39.047-21.77c8.425-13.632 9.176-30.327 2.009-44.66zm.111 84.166c-2.963 4.793-7.892 7.542-13.527 7.542s-10.564-2.749-13.527-7.542c-2.962-4.793-3.216-10.432-.696-15.472l14.223-28.446 14.224 28.446c2.519 5.04 2.265 10.679-.697 15.472z"/><path d="m399.416 360.292c-2.541-5.082-7.734-8.292-13.416-8.292s-10.875 3.21-13.416 8.292l-27.64 55.278c-7.167 14.333-6.416 31.028 2.009 44.66 8.425 13.631 23.023 21.77 39.047 21.77s30.622-8.139 39.047-21.77c8.425-13.632 9.176-30.327 2.009-44.66zm.111 84.166c-2.963 4.793-7.892 7.542-13.527 7.542s-10.564-2.749-13.527-7.542c-2.962-4.793-3.216-10.432-.696-15.472l14.223-28.446 14.224 28.446c2.519 5.04 2.265 10.679-.697 15.472z"/><path d="m139.416 360.292c-2.541-5.082-7.734-8.292-13.416-8.292s-10.875 3.21-13.416 8.292l-27.64 55.278c-7.167 14.333-6.416 31.028 2.009 44.66 8.425 13.631 23.023 21.77 39.047 21.77s30.622-8.139 39.047-21.77c8.425-13.632 9.176-30.327 2.009-44.66zm.111 84.166c-2.963 4.793-7.892 7.542-13.527 7.542s-10.564-2.749-13.527-7.542c-2.962-4.793-3.216-10.432-.696-15.472l14.223-28.446 14.224 28.446c2.519 5.04 2.265 10.679-.697 15.472z"/></g></svg>