<svg id="Capa_1" enable-background="new 0 0 512 512" height="512" viewBox="0 0 512 512" width="512" xmlns="http://www.w3.org/2000/svg"><g><path d="m429.329 9.523c-26.387-17.434-61.865-10.268-79.396 16.082l-7.673 11.031c-.068.098-.135.197-.201.297-7.628 11.545-10.768 25.148-9.051 38.733-24.601.174-49.134 14.719-61.781 40.62l-52.418 101.985-8.68 15.384c-9.394 16.145-12.434 34.884-8.703 53.038l-4.45 40.807c-4.737 36.617-16.503 98.743-25.852 129.528-8.306 27.459 12.224 54.972 40.808 54.972 20.716 0 36.816-14.617 40.938-30.787l8.851-34.854 4.151 29.334c2.627 20.709 20.318 36.307 41.21 36.307 22.899 0 41.53-18.63 41.53-41.529 0-46.256-9.247-159.729-11.27-183.999l9.675-18.022c12.702 6.987 32.937 18.093 37.671 20.814 8.501 4.895 18.383 6.172 27.821 3.629 9.451-2.547 17.344-8.623 22.229-17.114 9.295-16.174 5.099-36.39-9.691-47.534-33.671-31.77-32.189-30.242-32.189-30.242.175-.305 4.848-8.95 5.015-9.26 11.685-20.01 12.601-43.835 4.135-64.145 14.105-3.038 27.091-11.326 35.69-24.247l7.673-11.033c.068-.098.135-.196.2-.295 17.481-26.457 10.22-62.017-16.242-79.5zm-205.424 463.864c-1.733 5.165-6.506 8.614-11.974 8.614-8.485 0-14.551-8.154-12.098-16.271 12.107-39.863 24.737-114.567 27.108-136.288 5.782 5.073 12.751 10.358 20.568 16.499l3.134 22.148zm83.177 8.614c-5.817 0-10.741-4.353-11.453-10.126-.011-.089-.022-.177-.035-.266-1.047-7.4-18.076-127.736-19.22-135.817-1.013-7.159-5.017-9.305-15.421-17.424-14.084-10.989-25.627-18.742-29.777-36.023-2.797-11.484-1.05-23.441 4.92-33.666.038-.063.074-.127.11-.191l1.059-1.877 70.422 45.299c2.385 28.967 10.925 135.702 10.925 178.561 0 6.357-5.173 11.53-11.53 11.53zm98.055-231.295c.518.488 1.07.939 1.652 1.35 2.832 1.997 3.665 5.769 1.94 8.77-1.823 3.168-5.87 4.283-9.083 2.435-8.243-4.737-58.205-32.022-65.004-35.935-6.956-4.003-9.778-12.522-6.605-19.87l.115-.244c2.23-4.608 17.39-35.361 17.542-35.672 3.663-7.43.608-16.423-6.822-20.085-7.429-3.663-16.423-.608-20.086 6.822-5.844 11.852-17.067 34.659-17.548 35.659-.211.436-.229.499-.378.817-.001.003-.165.354-.188.406 0 .001-.007.016-.006.015-9.499 21.45-1.325 46.45 19.013 58.153.286.164.651.372 1.077.612l-4.272 7.959-64.909-41.753 46.407-90.29c.052-.102.104-.203.153-.307 10.887-22.427 37.344-31.228 54.757-17.057.131.107 8.736 6.913 8.871 7.02 16.365 12.949 20.714 36.271 10.116 54.249-.093.158-.184.318-.271.479l-4.872 9.007c-7.434 13.151-4.047 29.505 7.858 38.641zm15.491-178.356-7.655 11.008c-.068.098-.135.196-.201.296-8.322 12.594-25.338 16.072-37.935 7.749v.001c-12.57-8.305-16.074-25.178-7.837-37.8l7.655-11.006c.068-.099.135-.197.201-.297 8.341-12.624 25.306-16.093 37.934-7.75 12.57 8.305 16.076 25.179 7.838 37.799z"/><path d="m127.794 149.801c4.542 10.531 18.771 12.257 25.708 3.146l15.102-19.834 14.927 34.512c3.288 7.602 12.116 11.102 19.722 7.813 7.604-3.288 11.102-12.118 7.813-19.721-.366-.846-24.765-57.265-25.135-58.105-4.499-10.289-18.612-12.278-25.668-3.064l-15.083 19.809-14.9-34.543c-3.281-7.606-12.107-11.115-19.714-7.833-7.607 3.28-11.114 12.106-7.833 19.713z"/><path d="m148.538 243.522-9.07-23.221c40.607 5.699 37.851 5.373 39.341 5.373 7.359 0 13.783-5.421 14.835-12.917 1.151-8.204-4.566-15.788-12.77-16.939-9.821-1.378-53.56-7.518-62.687-8.794-11.234-1.535-20.157 9.608-15.989 20.318l9.059 23.191-37.249-5.267c-8.201-1.159-15.792 4.55-16.952 12.752-1.16 8.203 4.549 15.793 12.752 16.953l62.658 8.86c11.405 1.602 20.221-9.685 16.072-20.309z"/><path d="m233.22 129.546c8.284 0 15-6.716 15-15v-42.05c0-8.284-6.716-15-15-15s-15 6.716-15 15v42.05c0 8.285 6.716 15 15 15z"/><path d="m174.099 278.652c-5.857-5.857-15.355-5.857-21.213 0l-29.734 29.734c-5.858 5.857-5.858 15.355 0 21.212 5.858 5.858 15.355 5.857 21.213 0l29.734-29.734c5.858-5.857 5.858-15.355 0-21.212z"/></g></svg>