<?xml version="1.0" encoding="utf-8"?>
<!-- Generator: Adobe Illustrator 24.0.2, SVG Export Plug-In . SVG Version: 6.00 Build 0)  -->
<svg version="1.1" id="Capa_1" xmlns="http://www.w3.org/2000/svg" xmlns:xlink="http://www.w3.org/1999/xlink" x="0px" y="0px"
	 viewBox="0 0 600 600" style="enable-background:new 0 0 600 600;" xml:space="preserve">
<g>
	<path d="M600,395.67v-0.03c0-58.07-43.49-106.97-101.16-113.75l-68.16-8.02c-85.95-10.11-150.76-82.99-150.76-169.53V17.58
		c0-5.73-2.8-11.11-7.49-14.4s-10.7-4.08-16.09-2.12L49.23,76.37c-6.95,2.53-11.57,9.13-11.57,16.52v122.38
		c0,22.65-6.87,35.43-15.57,51.61C11.73,286.14,0,307.97,0,347.07c0,28.99,11.1,66.72,41.37,90.07C16.54,452.76,0,480.38,0,511.82
		C0,560.44,39.56,600,88.18,600c28.85,0,54.51-13.93,70.61-35.41c16.1,21.48,41.76,35.41,70.61,35.41
		c28.85,0,54.51-13.92,70.61-35.4c16.1,21.48,41.75,35.4,70.6,35.4c28.85,0,54.51-13.93,70.61-35.41
		c16.1,21.48,41.76,35.41,70.61,35.41c48.62,0,88.18-39.56,88.18-88.18c0-25.18-10.63-47.91-27.61-64
		C589.04,436.44,600,417.31,600,395.67z M88.18,564.84c-29.24,0-53.03-23.79-53.03-53.03s23.79-53.03,53.03-53.03
		s53.03,23.79,53.03,53.03S117.42,564.84,88.18,564.84z M158.59,458.79h0.4c-0.06,0.09-0.13,0.17-0.2,0.25
		C158.72,458.96,158.66,458.87,158.59,458.79z M229.39,564.84c-29.24,0-53.03-23.79-53.03-53.03s23.79-53.03,53.03-53.03
		c29.18,0,52.93,23.69,53.03,52.85c0,0.06,0,0.12,0,0.18s0,0.12,0,0.18C282.33,541.15,258.58,564.84,229.39,564.84z M299.81,458.79
		h0.39c-0.06,0.08-0.13,0.16-0.2,0.25C299.94,458.95,299.87,458.87,299.81,458.79L299.81,458.79z M370.61,564.84
		c-29.18,0-52.92-23.69-53.02-52.85c0-0.06,0-0.12,0-0.18s0-0.12,0-0.18c0.1-29.16,23.84-52.85,53.02-52.85
		c29.24,0,53.03,23.79,53.03,53.03S399.84,564.84,370.61,564.84z M441.01,458.79h0.4c-0.06,0.09-0.13,0.17-0.2,0.25
		C441.15,458.96,441.08,458.87,441.01,458.79L441.01,458.79z M511.82,564.84c-29.24,0-53.03-23.79-53.03-53.03
		s23.79-53.03,53.03-53.03s53.03,23.79,53.03,53.03S541.06,564.84,511.82,564.84z M111.72,423.63c-66.55,0-76.56-54.11-76.56-76.56
		c0-30.25,8.69-46.42,17.9-63.54c9.26-17.23,19.76-36.75,19.76-68.26V105.2l171.95-62.53v61.65c0,14.62,1.54,28.91,4.46,42.72
		l-36.97,36.96c-6.86,6.86-6.86,17.99,0,24.86c6.86,6.86,17.99,6.87,24.86,0l24.04-24.04c6.11,14.35,13.8,27.88,22.87,40.38
		l-34.11,34.11c-6.86,6.86-6.86,17.99,0,24.86c6.86,6.86,17.99,6.87,24.86,0l32.32-32.32c10.75,10.47,22.65,19.78,35.52,27.73
		l-17.39,17.39c-6.86,6.86-6.86,17.99,0,24.86c6.86,6.86,17.99,6.87,24.86,0l25.71-25.71c16,6.24,33.01,10.55,50.78,12.64
		l68.16,8.02c39.97,4.7,70.11,38.59,70.11,78.84v0.03c0,15.42-12.55,27.97-27.97,27.97L111.72,423.63z"/>
</g>
</svg>
