<svg id="Capa_1" enable-background="new 0 0 512 512" height="512" viewBox="0 0 512 512" width="512" xmlns="http://www.w3.org/2000/svg"><g><path d="m495 272h-86.126c9.483-40.095 32.178-76.024 65.412-102.22 6.506-5.128 7.623-14.56 2.495-21.065s-14.559-7.624-21.066-2.495c-25.356 19.985-46.206 45.903-60.297 74.952-7.812 16.105-13.573 33.248-17.164 50.828h-237.137c9.483-40.095 32.178-76.024 65.412-102.22 6.506-5.128 7.623-14.56 2.495-21.065-5.128-6.506-14.559-7.624-21.066-2.495-25.356 19.985-46.206 45.903-60.297 74.952-7.812 16.105-13.573 33.248-17.164 50.828h-95.497c-8.284 0-15 6.716-15 15v210c0 8.284 6.716 15 15 15h480c8.284 0 15-6.716 15-15v-210c0-8.284-6.716-15-15-15zm-15 30v50.95c-14.306 1.928-23.449 6.474-31.743 10.604-6.641 3.307-12.29 6.104-20.769 7.484-.712-1.489-1.496-2.957-2.39-4.387l-21.22-33.953v-17.773c0-4.335.167-8.643.461-12.925zm-101.901 80.551 10.78-17.248 10.78 17.248c3.582 5.73 1.43 10.93.338 12.899-1.091 1.969-4.36 6.55-11.119 6.55s-10.027-4.58-11.119-6.55c-1.091-1.97-3.243-7.168.34-12.899zm-3.814-80.551c-.263 4.305-.406 8.616-.406 12.925v17.773l-13.893 22.23c-6.521-1.685-14.656-2.928-25.058-2.928-32.153 0-59.838 17.367-61 18.106-5.433 3.454-8.056 9.989-6.518 16.241.906 3.684-.01 7.742-2.452 10.856-1.405 1.792-4.566 4.797-9.958 4.797-5.387 0-8.546-3-9.95-4.788-2.441-3.11-3.361-7.165-2.46-10.848 1.527-6.246-1.096-12.771-6.523-16.222-1.165-.741-28.907-18.142-61.129-18.142-10.35 0-18.448 1.23-24.94 2.901l-13.877-22.203v-17.773c0-4.335.167-8.643.461-12.925zm-263.943 80.551 10.78-17.248 10.78 17.248c3.582 5.731 1.43 10.93.339 12.899-1.092 1.97-4.36 6.55-11.119 6.55s-10.027-4.581-11.119-6.55c-1.092-1.97-3.244-7.169.339-12.899zm-3.814-80.551c-.263 4.305-.406 8.616-.406 12.925v17.773l-21.22 33.953c-.896 1.433-1.682 2.905-2.395 4.398-8.5-1.377-14.152-4.178-20.799-7.491-8.285-4.129-17.418-8.675-31.708-10.605v-50.953zm-76.528 180v-98.635c7.175 1.491 12.356 4.066 18.325 7.041 8.273 4.124 17.409 8.677 31.708 10.609.894 3.066 2.123 6.078 3.73 8.978 7.638 13.78 21.604 22.007 37.359 22.007s29.721-8.227 37.358-22.007c4.742-8.557 6.37-18.048 4.928-27.212 3.283-.483 7.067-.781 11.53-.781 14.886 0 29.048 5.44 37.389 9.404.468 8.729 3.612 17.308 9.125 24.33 8.112 10.337 20.341 16.266 33.548 16.266 13.219 0 25.454-5.938 33.568-16.289 5.51-7.029 8.648-15.613 9.109-24.346 8.333-3.957 22.435-9.365 37.25-9.365 4.546 0 8.363.295 11.665.783-1.442 9.164.186 18.654 4.928 27.21 7.638 13.78 21.603 22.007 37.358 22.007s29.721-8.227 37.358-22.007c1.609-2.904 2.839-5.919 3.733-8.989 14.267-1.936 23.393-6.48 31.658-10.595 5.983-2.979 11.176-5.557 18.372-7.048v98.639z"/><path d="m294.075 214.231c6.711 3.875 14.042 5.809 21.366 5.809 7.567 0 15.129-2.064 21.99-6.188 13.504-8.115 21.237-22.36 20.686-38.105l-1.401-40.013 8.887-15.392c28.486-49.34 77.162-82.324 133.547-90.496 8.199-1.188 13.882-8.798 12.693-16.996-1.188-8.198-8.795-13.877-16.996-12.693-31.952 4.63-62.968 16.65-89.695 34.762-26.728 18.111-49.387 42.464-65.53 70.424l-8.886 15.391-35.354 18.793c-13.911 7.396-22.381 21.215-22.657 36.967s7.705 29.859 21.35 37.737zm15.389-48.215 17.96-9.548.712 20.328c.236 6.754-4.227 10.181-6.157 11.341-1.93 1.159-7.051 3.492-12.904.113-5.854-3.38-6.394-8.981-6.354-11.232.039-2.251.775-7.83 6.743-11.002z"/></g></svg>