<svg enable-background="new 0 0 60.179 55.315" height="512" viewBox="0 0 60.179 55.315" width="512" xmlns="http://www.w3.org/2000/svg"><path d="m41.588 32.279-.568-1.918c-.662.196-1.292.422-1.87.672l.793 1.836c.505-.218 1.058-.416 1.645-.59z"/><path d="m46.793 29.417.059 2c.101-.003.202-.005.306-.005.483 0 .965.021 1.425.069l.207-1.99c-.508-.053-1.035-.079-1.56-.079-.145.001-.288.001-.437.005z"/><path d="m45.089 31.567-.256-1.984c-.657.085-1.3.19-1.912.312l.393 1.961c.55-.11 1.141-.208 1.775-.289z"/><path d="m51.926 32.305.75-1.854c-.619-.251-1.262-.459-1.911-.618l-.479 1.941c.558.139 1.11.316 1.64.531z"/><path d="m58.919 35.351c-.38-.525-.816-1.044-1.296-1.539l-1.438 1.391c.516.532.89 1.012 1.112 1.32z"/><path d="m56.136 32.471c-.526-.415-1.084-.796-1.657-1.13l-1.008 1.727c.493.288.973.616 1.427.974z"/><path d="m20.694 35.485c.542-.242 1.104-.457 1.672-.638l-.607-1.906c-.638.203-1.271.445-1.883.72z"/><path d="m24.097 34.402c.583-.115 1.182-.2 1.778-.253l-.175-1.992c-.667.059-1.336.153-1.989.282z"/><path d="m16.495 35.313.744 1.857c.564-.227 1.135-.483 1.697-.765.022-.012.097-.055.118-.067l-.293-.566-.72-1.155c-.512.256-1.033.491-1.546.696z"/><path d="m27.674 34.084c.595.008 1.203.045 1.809.108l.211-1.988c-.667-.071-1.337-.111-1.992-.12z"/><path d="m31.281 34.462c.582.113 1.181.254 1.778.418l.531-1.928c-.647-.179-1.297-.331-1.929-.453z"/><path d="m36.508 36.107.803-1.832c-.603-.264-1.22-.509-1.835-.728l-.672 1.883c.627.225 1.199.456 1.704.677z"/><path d="m54.921 37.802c-7.586-2.1-15.316-.238-17.761.824-6.927-.974-11.006-.957-16.045.051-3.547.71-5.904-.974-6.646-1.616-.329-7.233-.431-18.504.503-22.101 2.563 1.45 8.291 4.191 10.349 1.105.75-1.125.858-2.316.303-3.354-.128-.239-.29-.449-.466-.648l1.831-2.218c1.039-1.389 1.061-3.27.053-4.68l-2.118-2.968c-1.214-1.709-3.317-2.524-5.365-2.078l-9.47 2.029c-1.464.315-2.664 1.39-3.129 2.803l-2.2 6.58c-.011.033-.021.066-.027.1-5.152 23.088-5.238 28.004-4.225 33.073 1.303 6.505 8.698 9.804 21.98 9.804 5.216 0 9.475-.63 12.703-1.861 2.678 1.671 8.189 2.67 13.336 2.669 2.656 0 5.215-.266 7.235-.842 2.396-.685 3.871-3.706 4.381-8.98.343-3.525-1.853-6.759-5.222-7.692zm3.233 7.497c-.405 4.19-1.477 6.833-2.939 7.25-5.128 1.465-13.657.677-17.734-.988 1.238-.744 1.739-1.362 1.807-1.453l-1.587-1.217c-.007.008-.705.849-2.756 1.713-2.087.867-5.941 1.902-12.456 1.902-12.194 0-18.931-2.758-20.02-8.196-.957-4.784-.854-9.521 4.204-32.194l2.186-6.536c.245-.744.877-1.31 1.649-1.476l9.473-2.03c1.27-.272 2.562.228 3.313 1.284l2.12 2.97c.499.699.488 1.631.002 2.282l-1.914 2.317c-.53-.216-1.079-.347-1.595-.392.329-.589.581-1.523.581-3.025h-2v2 .454c-.771-.693-1.613-1.919-2.105-2.903l-1.789.896c.38.76 2.402 4.553 4.895 4.553.97 0 2.034.514 2.371 1.144.073.137.296.553-.203 1.302-.994 1.49-5.741-.485-8.639-2.294-.459-.286-1.062-.155-1.361.294-2.077 3.116-1.337 21.041-1.167 24.603.012.236.106.462.269.635.135.145 3.357 3.517 8.75 2.444 4.857-.973 8.811-.971 15.662.01.2.029.407-.005.589-.096 1.085-.543 8.761-3.002 16.629-.822 2.428.673 4.012 3.015 3.765 5.569z"/><path d="m48.088 25.658c.304 0 .591-.138.781-.375l4-5-1.562-1.25-2.219 2.774v-16.149h-2v16.149l-2.219-2.774-1.562 1.25 4 5c.191.237.478.375.781.375z"/><path d="m34.088 28.658c.304 0 .591-.138.781-.375l4-5-1.562-1.25-2.219 2.774v-13.149h-2v13.149l-2.219-2.774-1.562 1.25 4 5c.191.237.478.375.781.375z"/></svg>