<svg id="Capa_1" enable-background="new 0 0 512 512" height="512" viewBox="0 0 512 512" width="512" xmlns="http://www.w3.org/2000/svg"><path d="m361 197c0-46.28 30-80.382 30-122 0-46.052-30.115-72.563-31.681-75h-206.638c-1.591 2.476-31.681 28.702-31.681 75 0 41.691 30 76.044 30 122 0 29.386-12.039 47.425-25.979 68.313-16.043 24.039-34.226 51.284-34.226 97.807 0 63.977 16.963 118.559 32.723 142.2l4.453 6.679h113.029v-60h30v60h113.028l4.453-6.679c11.38-17.07 32.636-76.123 32.636-141.581 0-47.097-18.208-74.428-34.272-98.542-13.869-20.816-25.845-38.793-25.845-68.197zm-194.61-167h179.22c9.965 13.087 15.39 28.842 15.39 45 0 14.114-5.325 28.505-11.662 45h-186.743c-6.314-16.424-11.595-30.781-11.595-45 0-16.158 5.425-31.913 15.39-45zm14.61 167c0-17.29-3.269-32.796-7.63-47h165.224c-4.345 14.211-7.594 29.719-7.594 47 0 38.482 15.697 62.044 30.876 84.83 4.448 6.677 8.82 13.248 12.776 20.17h-237.4c3.941-6.867 8.293-13.398 12.722-20.034 15.254-22.855 31.026-46.489 31.026-84.966zm-36.424 285c-8.959-17.208-17.637-46.906-21.575-81.094 33.688 1.036 65.723 16.102 87.999 41.564v39.53zm88.368-60c-28.402-32.049-69.291-50.69-112.047-51.149-.063-2.567-.102-5.144-.102-7.731 0-11.802 1.411-21.992 3.811-31.121h262.636c2.437 9.28 3.873 19.666 3.873 31.74 0 2.375-.041 4.736-.101 7.089-42.726.52-83.564 19.158-111.955 51.172zm134.214 60h-66.158v-39.527c22.223-25.384 54.133-40.45 87.721-41.588-4.558 36.234-14.649 66.554-21.563 81.115z"/><path d="m241 242h30v30h-30z"/><path d="m56.606 141.393-21.212 21.214 19.393 19.393h-54.787v30h54.787l-19.393 19.393 21.212 21.214 55.607-55.607z"/><path d="m512 182h-54.787l19.393-19.393-21.212-21.214-55.607 55.607 55.607 55.607 21.212-21.214-19.393-19.393h54.787z"/></svg>