<svg id="Capa_1" enable-background="new 0 0 512 512" height="512" viewBox="0 0 512 512" width="512" xmlns="http://www.w3.org/2000/svg"><g><path d="m138.03 77.44c1.47.8 3.13 1.22 4.789 1.22 3.66 0 7.03-1.99 8.79-5.21 2.641-4.83.851-10.92-3.979-13.57-1.47-.8-3.13-1.22-4.79-1.22-3.66 0-7.03 1.99-8.79 5.2-2.64 4.84-.85 10.93 3.98 13.58z"/><path d="m290 438c-5.522 0-10 4.477-10 10v14c0 5.523 4.478 10 10 10s10-4.477 10-10v-14c0-5.523-4.478-10-10-10z"/><path d="m290 379c-5.522 0-10 4.477-10 10v14c0 5.523 4.478 10 10 10s10-4.477 10-10v-14c0-5.523-4.478-10-10-10z"/><path d="m370 438c-5.522 0-10 4.477-10 10v14c0 5.523 4.478 10 10 10s10-4.477 10-10v-14c0-5.523-4.478-10-10-10z"/><path d="m370 379c-5.522 0-10 4.477-10 10v14c0 5.523 4.478 10 10 10s10-4.477 10-10v-14c0-5.523-4.478-10-10-10z"/><path d="m330 478c-5.522 0-10 4.477-10 10v14c0 5.523 4.478 10 10 10s10-4.477 10-10v-14c0-5.523-4.478-10-10-10z"/><path d="m330 360c-5.522 0-10 4.477-10 10v14c0 5.523 4.478 10 10 10s10-4.477 10-10v-14c0-5.523-4.478-10-10-10z"/><path d="m330 419c-5.522 0-10 4.477-10 10v14c0 5.523 4.478 10 10 10s10-4.477 10-10v-14c0-5.523-4.478-10-10-10z"/><path d="m446.95 307.009c-.51-5.114-4.813-9.009-9.951-9.009-12.576 0-25.406-23.554-34.322-63.006-7.377-32.646-9.925-65.858-10.179-69.362-.134-23.303-13.094-43.612-32.156-54.245-.698-13.702-3.744-27.006-9.083-39.627-5.91-13.99-14.39-26.55-25.18-37.34s-23.35-19.27-37.34-25.18c-14.489-6.13-29.88-9.24-45.739-9.24-14.05 0-27.95 2.4-41.34 7.12-12.99 4.59-25.091 11.21-35.95 19.7-2.11 1.64-3.44 4.01-3.771 6.66-.319 2.65.4 5.27 2.051 7.38 1.909 2.44 4.779 3.84 7.88 3.84 2.25 0 4.38-.74 6.16-2.12 18.619-14.56 41.68-22.58 64.93-22.58h.04c26.03.01 50.52 10.15 68.939 28.56 15.06 15.069 24.79 34.732 27.647 55.677-3.126-.483-6.327-.737-9.587-.737-3.618 0-7.158.326-10.609.919-2.952-17.324-11.744-33.183-25.001-44.929-6.939-6.15-14.82-10.96-23.43-14.29-8.91-3.45-18.32-5.2-27.96-5.2-10.46.01-20.771 2.04-30.65 6.03-9.569 3.87-18.27 9.38-25.87 16.4-7.71 7.11-13.8 15.37-18.109 24.55-4.561 9.72-6.87 19.99-6.87 30.52-.01 14.83 1.09 28.61 3.45 43.37 2.33 14.55 5.979 30.59 11.489 50.49 6.391 23.13 16.17 49.62 29.9 80.98 6.5 14.85 9.8 31.4 9.8 49.2.08 38.373-15.235 76.197-28.113 101.187-6.578-2.802-13.503-4.868-20.631-6.154 16.703-31.104 26.956-64.731 27.003-93.123.011-18.3-3.6-35.84-10.739-52.13-18.12-41.38-30.021-75.83-36.38-105.32-5.62-26.05-6.771-46.62-6.78-69.5 0-1.52.04-3.02.109-4.44.271-5.51-4.235-10.225-9.745-10.495-5.329 0-9.965 4.165-10.225 9.495-.09 1.8-.14 3.63-.14 5.44-.01 20.89.859 44.28 7.22 73.72 3.26 15.08 7.69 30.79 13.561 48.03 6.35 18.65 14.22 38.63 24.06 61.09 6.01 13.73 9.06 28.57 9.07 44.11.075 35.158-15.374 68.558-29.474 91.696-19.928 1.029-39.008 8.091-54.195 20.173-16.358 13.015-25.74 30.03-25.74 46.681 0 5.523 4.478 10 10 10h150c5.522 0 10-4.477 10-10 0-16.651-9.382-33.666-25.741-46.681-1.237-.984-2.508-1.924-3.795-2.841 7.687-14.88 14.035-29.686 18.866-44.129 7.8-23.28 11.77-45.76 11.81-66.81.004-7.531-.518-14.884-1.548-22.035 9.011.679 21.63.835 35.144-1.458 5.731-.973 11.149-2.326 16.281-4.007 8.954 17.283 31.125 25.96 43.983 25.96s35.029-8.677 43.983-25.96c5.133 1.681 10.551 3.034 16.281 4.007 8.361 1.419 16.38 1.901 23.414 1.901 14.396 0 24.664-2.017 25.294-2.144 5.038-1.013 8.487-5.68 7.978-10.794zm-233.889 184.991h-126.123c2.778-7.392 8.436-14.809 16.255-21.03 12.757-10.149 29.816-15.97 46.807-15.97s34.05 5.821 46.807 15.97c7.819 6.221 13.476 13.638 16.254 21.03zm16.094-195.858c-1.318-4.026-2.809-7.972-4.495-11.823-13.341-30.48-22.811-56.08-28.94-78.28-10.479-37.99-14.2-61.16-14.22-88.54 0-14.95 6.59-29.3 18.56-40.39 11.74-10.87 27.36-17.11 42.86-17.11h.08c15.35 0 29.79 5.98 40.66 16.84 9.337 9.354 15.055 21.344 16.478 34.271-19.328 10.557-32.502 31.02-32.637 54.52-.254 3.504-2.802 36.716-10.179 69.362-7.462 33.019-17.665 54.891-28.167 61.15zm100.845 23.858c-6.443 0-20.259-5.237-25.666-14.183 10.475-6.216 19.093-14.396 25.666-24.443 6.572 10.047 15.19 18.228 25.666 24.443-5.408 8.946-19.224 14.183-25.666 14.183zm63.086-21.762c-27.548-4.821-45.581-19.253-53.597-42.896-.558-1.767-8.49-27.208-8.49-45.676 0-5.523-4.478-10-10-10s-10 4.477-10 10c0 17.992 6.001 40.205 8.46 48.552-8.478 21.937-26.137 35.398-52.547 40.02-4.588.803-9.084 1.269-13.331 1.503 1.979-2.747 3.882-5.802 5.704-9.163 6.824-12.586 12.742-29.873 17.59-51.38 8.079-35.844 10.514-71.384 10.613-72.865 0-23.435 19.077-42.834 42.511-42.834s42.511 19.4 42.511 42.834c.099 1.481 2.534 37.02 10.613 72.865 4.848 21.508 10.766 38.794 17.59 51.38 1.822 3.36 3.725 6.416 5.704 9.163-4.246-.234-8.745-.7-13.331-1.503z"/></g></svg>