<svg id="Capa_1" enable-background="new 0 0 512 512" height="512" viewBox="0 0 512 512" width="512" xmlns="http://www.w3.org/2000/svg"><g><path d="m398.604 268.22v-129.63c0-25.69-21.17-46.591-47.19-46.591-6.062 0-11.862 1.135-17.191 3.2v-28.608c0-12.565-5.223-24.384-14.706-33.279-9.154-8.584-21.074-13.312-33.565-13.312-8.057 0-15.648 2.003-22.291 5.535-7.801-15.14-23.739-25.535-42.091-25.535-18.344 0-34.277 10.388-42.082 25.538-6.645-3.532-14.24-5.538-22.3-5.538-26.021 0-47.191 20.9-47.191 46.591v100.283c-5.329-2.065-11.129-3.2-17.191-3.2-26.021 0-47.19 20.9-47.19 46.591v100.444c0 26.887 7.051 53.437 20.39 76.781l26.688 46.704v62.806c0 8.284 6.716 15 15 15h228.831c71.604 0 129.858-58.228 129.858-129.799.001-49.111-27.43-91.937-67.779-113.981zm-275.91 213.78v-51.79c0-2.61-.681-5.176-1.977-7.442l-28.665-50.162c-10.753-18.818-16.437-40.222-16.437-61.897v-100.444c0-9.148 7.712-16.591 17.191-16.591s17.19 7.442 17.19 16.591v53.56c0 8.284 6.716 15 15 15s15-6.716 15-15v-197.234c0-9.148 7.712-16.591 17.191-16.591s17.19 7.442 17.19 16.657l.54 122.326c.037 8.261 6.745 14.934 14.999 14.934h.062c8.282-.034 14.97-6.774 14.938-15.057l-.54-142.269c0-9.148 7.712-16.591 17.191-16.591s17.191 7.442 17.191 16.647l.066 17.517c-.044.825-.066 1.657-.066 2.493l.539 122.222v.104c.037 8.261 6.745 14.934 14.999 14.934h.063c8.282-.034 14.97-6.774 14.938-15.057l-.47-123.774c.794-8.446 8.171-15.086 17.125-15.086 9.732 0 18.27 7.753 18.27 16.591v142.629c0 8.284 6.716 15 15 15s15-6.716 15-15v-70.629c0-9.148 7.712-16.591 17.191-16.591s17.19 7.442 17.19 16.591v117.823c-10.264-2.616-21.011-4.011-32.078-4.011-71.604 0-129.858 58.228-129.858 129.799 0 40.079 18.271 75.97 46.922 99.799h-130.895zm213.831 0c-55.062 0-99.858-44.77-99.858-99.799s44.796-99.799 99.858-99.799 99.858 44.77 99.858 99.799-44.795 99.799-99.858 99.799z"/><path d="m369.03 383.635-27.495-15.861 27.495-15.862c7.176-4.14 9.638-13.313 5.498-20.489-4.141-7.176-13.315-9.637-20.488-5.498l-50.019 28.855c-4.644 2.679-7.505 7.632-7.505 12.993s2.861 10.314 7.505 12.993l27.495 15.861-27.495 15.862c-7.176 4.14-9.638 13.313-5.498 20.489 2.778 4.815 7.821 7.507 13.007 7.507 2.543 0 5.121-.647 7.481-2.009l50.019-28.855c4.644-2.679 7.505-7.632 7.505-12.993s-2.861-10.314-7.505-12.993z"/></g></svg>