<?xml version="1.0" encoding="utf-8"?>
<!-- Generator: Adobe Illustrator 24.0.2, SVG Export Plug-In . SVG Version: 6.00 Build 0)  -->
<svg version="1.1" id="Capa_1" xmlns="http://www.w3.org/2000/svg" xmlns:xlink="http://www.w3.org/1999/xlink" x="0px" y="0px"
	 viewBox="0 0 600 600" style="enable-background:new 0 0 600 600;" xml:space="preserve">
<g>
	<path d="M494.64,294.55c35.57-30.78,58.11-76.23,58.11-126.84C552.75,75.23,477.52,0,385.04,0S217.33,75.23,217.33,167.71
		c0,83.25,60.98,152.51,140.61,165.51c-1.41,14.37-3.09,28.51-5.05,42.31c-26.13-13.98-57-17.47-85.9-9.17
		c-50.82-46.79-129.85-45.89-180.52,3.49c-52.3,50.98-52.32,132.76,0,183.76c42.45,41.38,105.22,48.91,154.43,22.17
		c13.8,7.51,32.06,12.78,47.6,15.46c28.81,4.87,69.1,8.77,104.82,8.77c47.49,0,84.79-6.52,111.07-19.44
		c18.3-9,29.82-27.98,29.36-48.36C531.57,431.44,512.08,349.02,494.64,294.55L494.64,294.55z M252.51,167.71
		c0-73.08,59.45-132.53,132.53-132.53s132.53,59.45,132.53,132.53s-59.45,132.53-132.53,132.53S252.51,240.79,252.51,167.71
		L252.51,167.71z M488.88,548.98c-47.52,23.37-142.92,16.33-194.81,7.5c-11.19-1.85-32.43-7.6-41.78-15.14
		c-5.99-4.82-14.41-5.2-20.81-0.93c-15.52,10.36-33.64,15.84-52.38,15.84c-52.38,0-96.64-43.29-96.64-94.53s44.25-94.53,96.64-94.53
		c19.66,0,38.71,6.19,54.54,17.36c-4.66,3.82-9.53,8.41-13.99,13.74c-6.23,7.46-5.23,18.55,2.23,24.78
		c7.46,6.23,18.55,5.23,24.78-2.23c8.45-10.12,20.11-16.74,22.87-18.23c25.97-10.25,55.33-6,77.28,10.67
		c-2.3,12.2-6.45,30.35-11.61,40.96c-4.25,8.73-0.62,19.27,8.11,23.52c8.72,4.24,19.25,0.64,23.52-8.11
		c10.13-20.8,15.51-54.74,16.34-60.26c4.13-23.71,7.44-48.6,9.92-74.18c25.66-1.22,49.83-8.23,71.22-19.76
		c15.8,51.97,32.3,126.97,34.28,217.51C498.75,539.72,494.93,546.01,488.88,548.98L488.88,548.98z"/>
	<path d="M487.07,168.88c0-56.26-45.77-102.03-102.03-102.03s-102.03,45.77-102.03,102.03s45.77,102.03,102.03,102.03
		S487.07,225.14,487.07,168.88z M318.19,168.88c0-36.86,29.99-66.85,66.85-66.85s66.85,29.99,66.85,66.85s-29.99,66.85-66.85,66.85
		S318.19,205.74,318.19,168.88z"/>
	<path d="M402.63,168.88c0-10.09-8.64-18.49-19.33-17.51c-14.86,1.57-21.11,19.53-10.71,29.94
		C383.73,192.46,402.63,184.38,402.63,168.88z"/>
</g>
</svg>
