<?xml version="1.0" encoding="utf-8"?>
<!-- Generator: Adobe Illustrator 24.0.2, SVG Export Plug-In . SVG Version: 6.00 Build 0)  -->
<svg version="1.1" id="Capa_1" xmlns="http://www.w3.org/2000/svg" xmlns:xlink="http://www.w3.org/1999/xlink" x="0px" y="0px"
	 viewBox="0 0 600 600" style="enable-background:new 0 0 600 600;" xml:space="preserve">
<g>
	<path d="M300,594.5c-78.66,0-152.62-30.63-208.24-86.26C36.13,452.62,5.5,378.66,5.5,300c0-78.66,30.63-152.62,86.26-208.24
		C147.38,36.13,221.34,5.5,300,5.5c78.66,0,152.62,30.63,208.24,86.26C563.87,147.38,594.5,221.34,594.5,300
		c0,78.66-30.63,152.62-86.26,208.24C452.62,563.87,378.66,594.5,300,594.5z M300,21.5C146.43,21.5,21.5,146.43,21.5,300
		S146.43,578.5,300,578.5S578.5,453.57,578.5,300S453.57,21.5,300,21.5z"/>
</g>
<g>
	<path d="M447.54,121H152.46c-17.35,0-31.46,14.12-31.46,31.46v295.07c0,17.35,14.12,31.46,31.46,31.46h295.07
		c17.35,0,31.46-14.12,31.46-31.46V152.46C479,135.12,464.88,121,447.54,121z M458.02,447.54c0,5.78-4.71,10.49-10.49,10.49H152.46
		c-5.78,0-10.49-4.71-10.49-10.49V152.46c0-5.78,4.71-10.49,10.49-10.49h295.07c5.78,0,10.49,4.71,10.49,10.49V447.54z"/>
	<path d="M420.96,204.66c-35.16-26.37-76.99-40.31-120.96-40.31s-85.8,13.94-120.96,40.31c-2.23,1.67-3.7,4.16-4.09,6.91
		c-0.39,2.76,0.33,5.56,2,7.78l55.37,73.66c2.06,2.74,5.21,4.19,8.39,4.19c2.19,0,4.4-0.68,6.28-2.1
		c15.41-11.56,33.74-17.67,53.01-17.67c19.27,0,37.6,6.11,53.01,17.67c4.63,3.47,11.2,2.54,14.68-2.09l55.37-73.66
		c1.67-2.23,2.39-5.03,2-7.78C424.66,208.82,423.19,206.33,420.96,204.66z M356.92,272.43c-14.15-8.66-29.91-13.9-46.43-15.46V225
		c0-5.79-4.7-10.49-10.49-10.49s-10.49,4.7-10.49,10.49v31.97c-16.52,1.56-32.28,6.81-46.43,15.46l-42.88-57.05
		c29.63-19.7,63.92-30.06,99.8-30.06s70.17,10.36,99.8,30.06L356.92,272.43z"/>
</g>
</svg>
