<svg id="Capa_1" enable-background="new 0 0 512 512" height="512" viewBox="0 0 512 512" width="512" xmlns="http://www.w3.org/2000/svg"><g><path d="m215.408 416.607c5.857 5.858 15.355 5.858 21.213 0 5.181-5.18 12.067-8.033 19.394-8.033s14.213 2.853 19.394 8.033c5.856 5.858 15.354 5.858 21.213 0 5.858-5.858 5.858-15.355 0-21.213-10.846-10.846-25.268-16.82-40.606-16.82s-29.761 5.974-40.606 16.82c-5.86 5.857-5.86 15.355-.002 21.213z"/><path d="m346.014 283.427c15.339 0 29.761-5.974 40.606-16.82 5.858-5.858 5.858-15.355 0-21.213-5.857-5.858-15.355-5.858-21.213 0-5.181 5.18-12.067 8.033-19.394 8.033s-14.213-2.853-19.394-8.033c-5.857-5.859-15.355-5.857-21.213 0-5.858 5.858-5.858 15.355 0 21.213 10.848 10.846 25.27 16.82 40.608 16.82z"/><path d="m206.621 266.606c5.858-5.858 5.858-15.355 0-21.213-5.857-5.858-15.355-5.858-21.213 0-5.181 5.18-12.067 8.033-19.394 8.033s-14.213-2.853-19.394-8.033c-5.857-5.859-15.355-5.857-21.213 0-5.858 5.858-5.858 15.355 0 21.213 10.846 10.846 25.268 16.82 40.606 16.82s29.762-5.973 40.608-16.82z"/><circle cx="166.014" cy="346" r="15"/><circle cx="346.014" cy="196" r="15"/><circle cx="346.014" cy="346" r="15"/><path d="m76.014 361h19.201c6.095 14.751 12.919 29.001 20.405 42.486 38.844 69.976 88.703 108.514 140.394 108.514s101.551-38.538 140.395-108.514c7.486-13.487 14.312-27.749 20.407-42.502.041 0 .081.006.123.006h15.863.001c38.777 0 72.396-26.867 78.195-62.504 6.647-40.869-21.048-78.362-60.381-86.063.254-5.522.396-11.004.396-16.422 0-127.959-73.287-196-195-196-121.494 0-195 67.828-195 196 0 5.412.143 10.888.396 16.404-34.191 6.642-61.395 36.714-61.395 73.595 0 41.457 34.535 75 76 75zm372.047-118.385c21.239 5.775 37.292 26.687 33.326 51.053-3.405 20.934-24.747 37.332-48.584 37.332h-4.835c9.621-28.898 16.479-58.95 20.093-88.385zm-192.047-212.615c65.65 0 142.288 21.918 160.811 118.542-18.685-17.095-43.549-27.542-70.81-27.542h-60.001c-8.284 0-15 6.716-15 15 0 24.813-20.187 45-45 45h-.041c9.438-12.544 15.041-28.129 15.041-45 0-8.284-6.716-15-15-15s-15 6.716-15 15c0 24.813-20.187 45-45 45h-.041c9.438-12.544 15.041-28.129 15.041-45 0-8.284-6.716-15-15-15s-15 6.716-15 15c0 24.813-20.187 45-45 45h-14.61c6.352-124.307 92.168-151 164.61-151zm-30 181c36.219 0 66.523-25.809 73.493-60h46.508c38.087 0 69.611 28.544 74.359 65.36-3.527 58.163-21.723 121.273-50.196 172.566-32.833 59.15-74.445 93.074-114.164 93.074s-81.33-33.924-114.164-93.074c-28.694-51.693-47.72-116.976-50.478-177.926zm-162.042 31.646c3.615 29.425 10.471 59.466 20.089 88.354h-8.047c-24.935 0-46-20.607-46-45 0-20.334 14.643-38.025 33.958-43.354z"/></g></svg>