<svg id="Capa_1" data-name="Capa 1" xmlns="http://www.w3.org/2000/svg" viewBox="0 0 600 600"><path d="M300,594.5A294.5,294.5,0,0,1,91.76,91.76,294.5,294.5,0,1,1,508.24,508.24,292.54,292.54,0,0,1,300,594.5Zm0-573C146.43,21.5,21.5,146.43,21.5,300S146.43,578.5,300,578.5,578.5,453.57,578.5,300,453.57,21.5,300,21.5Z"/><path d="M406.08,121.62H221.29a10.59,10.59,0,0,0-10.6,10.6v42.45a10.6,10.6,0,0,0,10.6,10.6h10.62V428.42a55.11,55.11,0,0,0,55,55H340.4a55.11,55.11,0,0,0,55-55V185.26h10.63a10.59,10.59,0,0,0,10.6-10.6V132.22a10.58,10.58,0,0,0-10.59-10.6Zm-81.79,42.45V142.82h21.24v21.25Zm-42.45,0V142.82h21.24v21.25Zm-49.95-21.25h28.74v21.25H231.89ZM374.25,269.39h-25a10.61,10.61,0,0,0,0,21.21h25v21.24H370.5a10.61,10.61,0,1,0,0,21.21h3.75v65.54h-50V248.15h50Zm0-42.45H313.69a10.61,10.61,0,0,0-10.61,10.6V409.18a10.61,10.61,0,0,0,10.61,10.61h60.56v8.63a33.88,33.88,0,0,1-33.84,33.84H287a33.89,33.89,0,0,1-33.85-33.84V185.26H374.25Zm21.23-62.87H366.74V142.82h28.74Z"/></svg>