<svg id="Capa_1" data-name="Capa 1" xmlns="http://www.w3.org/2000/svg" viewBox="0 0 215 215"><defs><style>.cls-1{fill:#90a804;}.cls-2{fill:#fff;}</style></defs><path class="cls-1" d="M202.86,64.87c.64,42.31,0,90,0,130,0,8.44-32.55,20.48-67,19.16-60.53-2.33-124-56.85-124-122.94,0-52.23,33.31-90.22,39-90.22,10.21,0,38.72.2,84.26.2C195.12,1.07,202.86,64.87,202.86,64.87Z"/><path class="cls-2" d="M139.76,73.65h.18a2.56,2.56,0,1,0,0-5.11H81.05a9.41,9.41,0,0,0-9.4,9.4v68.48a9.41,9.41,0,0,0,9.4,9.4H133.1a9.41,9.41,0,0,0,9.4-9.4V91.64A9.37,9.37,0,0,0,139.76,85V73.65Zm-58.71,0h53.6v8.71a10.05,10.05,0,0,0-1.56-.13h-52a4.29,4.29,0,1,1,0-8.58Zm56.34,72.77a4.3,4.3,0,0,1-4.29,4.29h-52a4.3,4.3,0,0,1-4.29-4.29V86.31a9.4,9.4,0,0,0,4.29,1H133.1a4.23,4.23,0,0,1,2.47.79l.19.14a4.29,4.29,0,0,1,1.63,3.36Z"/><path class="cls-2" d="M116.66,101.13l-.71,0a12.15,12.15,0,0,0-17.75,0l-.71,0a12.15,12.15,0,0,0-2.56,24v13a2.56,2.56,0,0,0,2.56,2.56h19.17a2.56,2.56,0,0,0,2.56-2.56v-13a12.15,12.15,0,0,0-2.56-24Zm-16.61,34.51v-3.1h14v3.1Zm16.61-15.34a2.56,2.56,0,0,0-2.56,2.56v4.56h-14v-4.56a2.56,2.56,0,0,0-2.56-2.56,7,7,0,0,1,0-14.06,7.47,7.47,0,0,1,1.32.13,2.56,2.56,0,0,0,2.55-1,7,7,0,0,1,11.43,0,2.56,2.56,0,0,0,2.55,1,7.47,7.47,0,0,1,1.32-.13,7,7,0,0,1,0,14.06Z"/></svg>