<svg id="Capa_1" enable-background="new 0 0 512 512" height="512" viewBox="0 0 512 512" width="512" xmlns="http://www.w3.org/2000/svg"><g><circle cx="436.997" cy="285" r="15"/><circle cx="366.998" cy="275" r="15"/><circle cx="296.999" cy="275" r="15"/><circle cx="376.998" cy="355" r="15"/><circle cx="226.999" cy="355" r="15"/><circle cx="296.999" cy="395" r="15"/><path d="m511.367 248.773c-3.395-44.013-20.436-84.849-49.284-118.093-28.797-33.188-66.805-55.874-109.911-65.604-18.483-4.172-37.237-5.762-55.918-4.756-5.334-17.781-14.889-49.63-14.889-49.63-1.903-6.345-7.743-10.69-14.366-10.69h-69.999c-4.215 0-8.234 1.773-11.076 4.885s-4.244 7.276-3.862 11.473l4.879 53.664c3.429 37.712 19.364 73.343 45.059 101.024v43.954c0 41.355-33.644 75-74.999 75-86.571 0-157.001 70.431-157.001 157.002v49.998c0 8.284 6.716 15 15 15h69.999c8.284 0 15-6.716 15-15v-58.106c0-21.445 17.447-38.893 38.893-38.893 10.553 0 20.827 4.413 28.186 12.106 35.191 36.792 86.189 57.893 139.92 57.893 29.062 0 57.153-5.962 83.491-17.721 25.435-11.355 47.965-27.518 66.964-48.038 18.962-20.481 33.313-44.132 42.655-70.294 9.728-27.247 13.516-55.904 11.259-85.174zm-294.55-181.468-3.392-37.305h42.414l14.975 49.918c3.012 10.036 11.465 11.817 16.318 11.275v.001c19.447-2.277 39.108-1.218 58.436 3.145 53.35 12.042 96.295 47.131 118.932 93.826-25.429 13.206-66.443 25.595-110.794 3.418-28.135-14.068-58.917-20.49-91.707-19.176v-7.407c0-3.978-1.58-7.793-4.393-10.606-23.318-23.318-37.803-54.247-40.789-87.089zm218.623 316.555c-33.033 35.678-79.848 56.14-128.442 56.14-45.583 0-88.68-17.725-118.242-48.63-12.991-13.58-31.166-21.369-49.865-21.369-37.988 0-68.893 30.905-68.893 68.893v43.106h-39.998v-34.998c0-70.029 56.972-127.002 127-127.002 57.897 0 104.999-47.103 104.999-105v-12.555c28.151-1.301 54.436 4.044 78.291 15.972 20.444 10.222 41.811 15.355 63.797 15.354 8.826 0 17.755-.828 26.759-2.485 17.228-3.171 32.322-8.995 44.399-14.964 3.182 11.171 5.288 22.797 6.211 34.758 3.813 49.454-12.528 96.61-46.016 132.78z"/></g></svg>