<svg id="Capa_1" data-name="Capa 1" xmlns="http://www.w3.org/2000/svg" viewBox="0 0 600 600"><title>regular</title><path d="M300,594.5A294.5,294.5,0,0,1,91.76,91.76,294.5,294.5,0,1,1,508.24,508.24,292.54,292.54,0,0,1,300,594.5Zm0-573C146.43,21.5,21.5,146.43,21.5,300S146.43,578.5,300,578.5,578.5,453.57,578.5,300,453.57,21.5,300,21.5Z"/><path d="M490.93,359.43H443.26c-27.14,0-43.89-12.17-50.43-14.8a88.37,88.37,0,0,0-38.81-9,84.38,84.38,0,0,0-58.95,23.77H245.31L182,312a58,58,0,0,0-82.46,10.66,11.89,11.89,0,0,0,2.26,16.56l72.47,55.69a59,59,0,0,0-5.07,24,11.89,11.89,0,0,0,11.89,11.89h39.66c13.3,11.33,60.89,47.54,125.7,47.54,28.26,0,59.28-3.59,85-15v3.09a11.89,11.89,0,0,0,11.89,11.89h47.54a11.88,11.88,0,0,0,11.88-11.89V371.31a11.88,11.88,0,0,0-11.88-11.88ZM167.35,330.67l.28.22,42.17,31.62a59.4,59.4,0,0,0-21.71,13l-60.84-46.75a34.28,34.28,0,0,1,40.1,1.93ZM346.49,454.51c-34.51,0-63.92-12.19-84.07-23.77h61.32a11.89,11.89,0,1,0,0-23.77H195a35.7,35.7,0,0,1,33.62-23.77H300c6.51,0,9.39-4.79,10.76-5.84A60.81,60.81,0,0,1,354,359.43a64.17,64.17,0,0,1,28.18,6.46c6.71,2.84,22.74,13.82,49.3,16.67v54c-9.11,5.61-34.85,18-85,18Zm132.55,0H455.27V383.2H479Z"/><path d="M145.46,228.69a11.88,11.88,0,0,0,11.89,11.88h38.78c17.59,19.88,43.06,40.68,72.6,66.28a11.87,11.87,0,0,0,15.57,0c30.24-26.2,56.71-46.75,74.23-66.28h36.52a11.89,11.89,0,1,0,0-23.77h-19.7A69.1,69.1,0,0,0,383.17,185c0-34.79-24.9-63.32-59.27-63.32-18.72,0-34.93,8.82-46.86,25.5l-.52.74c-.18-.24-.35-.49-.53-.74-11.93-16.68-28.14-25.5-46.86-25.5-34.71,0-59.9,25-59.9,59.43,0,12.06,3.14,23.72,9.7,35.65H157.35A11.89,11.89,0,0,0,145.46,228.69Zm131.07,53.49c-16.14-13.89-33.94-28.93-47.29-41.63a11.91,11.91,0,0,0,7.82-3.46L249.17,225l16.4,32.79a11.88,11.88,0,0,0,21.26,0L303.23,225l12.11,12.11a11.86,11.86,0,0,0,8.4,3.48h1.17c-13.27,12.22-29.82,25.73-48.38,41.61ZM193,181.15c0-21.33,14.52-35.66,36.13-35.66,26.38,0,35.57,31.08,35.93,32.35a11.88,11.88,0,0,0,22.91,0c.09-.32,9.27-32.35,35.93-32.35,20.24,0,35.5,17,35.5,39.55,0,10.66-3.59,20.49-12.08,31.76H328.66l-20.28-20.29a11.9,11.9,0,0,0-19,3.09L276.2,225.88,263.06,199.6a11.89,11.89,0,0,0-19-3.09L223.74,216.8H207.3c-9.18-12.05-14.3-23.54-14.3-35.65Z"/></svg>