<?xml version="1.0" encoding="utf-8"?>
<!-- Generator: Adobe Illustrator 24.0.2, SVG Export Plug-In . SVG Version: 6.00 Build 0)  -->
<svg version="1.1" id="Capa_1" xmlns="http://www.w3.org/2000/svg" xmlns:xlink="http://www.w3.org/1999/xlink" x="0px" y="0px"
	 viewBox="0 0 600 600" style="enable-background:new 0 0 600 600;" xml:space="preserve">
<g>
	<path d="M405.48,318.72h-87.9v-87.9c0-9.71-7.87-17.58-17.58-17.58s-17.58,7.87-17.58,17.58V336.3c0,9.71,7.87,17.58,17.58,17.58
		h105.48c9.71,0,17.58-7.87,17.58-17.58C423.06,326.59,415.19,318.72,405.48,318.72z"/>
	<path d="M389.96,35.99c-6.86,6.86-6.87,18,0,24.86L452.11,123l-24.08,24.08c-31.99-21.71-69.74-35.54-110.45-38.65V72.6h17.58
		c9.71,0,17.58-7.87,17.58-17.58s-7.87-17.58-17.58-17.58h-70.32c-9.71,0-17.58,7.87-17.58,17.58s7.87,17.58,17.58,17.58h17.58
		v35.83c-40.71,3.11-78.46,16.94-110.45,38.65L147.89,123l62.15-62.15c6.86-6.86,6.87-18,0-24.86C162.07-12,84-12,36.02,35.99
		c-48.09,48.09-48.1,125.93,0,174.03c6.86,6.86,18,6.87,24.86,0l62.15-62.15l21.29,21.29c-44.8,41.75-72.86,101.23-72.86,167.15
		c0,83.64,45.18,156.92,112.4,196.75l-36.93,36.93c-6.87,6.87-6.87,18,0,24.86c6.86,6.87,18,6.87,24.86,0l45.5-45.5
		c53.01,20.65,112.31,20.68,165.41,0l45.5,45.5c6.86,6.87,17.99,6.87,24.86,0c6.87-6.87,6.87-18,0-24.86l-36.93-36.93
		c67.23-39.83,112.4-113.11,112.4-196.75c0-65.92-28.06-125.4-72.86-167.15l21.29-21.29l62.15,62.15c6.86,6.86,18,6.87,24.86,0
		c48.09-48.09,48.1-125.93,0-174.03C516.01-11.99,437.94-11.99,389.96,35.99L389.96,35.99z M49.68,171.49
		C27.64,138.3,30.07,91.65,60.88,60.85c30.18-30.18,76.7-33.62,110.63-11.18C166.31,54.86,54.87,166.31,49.68,171.49z M493.38,336.3
		c0,106.63-86.75,193.38-193.38,193.38S106.62,442.93,106.62,336.3S193.37,142.92,300,142.92S493.38,229.67,493.38,336.3z
		 M550.32,171.49c-5.18-5.18-116.63-116.63-121.82-121.82c34.11-22.56,80.62-18.83,110.63,11.18
		C569.92,91.64,572.37,138.28,550.32,171.49L550.32,171.49z"/>
</g>
</svg>
