<?xml version="1.0" encoding="iso-8859-1"?>
<!-- Generator: Adobe Illustrator 19.0.0, SVG Export Plug-In . SVG Version: 6.00 Build 0)  -->
<svg version="1.1" id="Layer_1" xmlns="http://www.w3.org/2000/svg" xmlns:xlink="http://www.w3.org/1999/xlink" x="0px" y="0px"
	 viewBox="0 0 512.001 512.001" style="enable-background:new 0 0 512.001 512.001;" xml:space="preserve">
<g>
	<g>
		<path d="M419.507,415.1l-64.736-45.758V150.678c0-82.528-67.142-149.669-149.669-149.669H16.63C7.446,1.009,0,8.454,0,17.639
			v177.385c0,9.184,7.446,16.63,16.63,16.63h161.205c7.676,0,14.368,5.307,16.162,12.713c3.302,32.773,6.738,57.609,9.506,77.604
			c7.662,55.365,9.722,70.246-9.848,116.742c-18.415,43.755,13.928,92.279,61.337,92.279h182.929c27.509,0,49.89-22.381,49.89-49.89
			C487.809,425.409,451.066,401.38,419.507,415.1z M437.921,477.732H254.992c-23.797,0-39.837-24.365-30.682-46.117
			c23.113-54.912,20.124-76.502,12.139-134.203c-2.755-19.91-6.185-44.69-9.451-77.308c-1.932-19.188-21.505-41.71-49.162-41.71
			H33.26V34.268h171.842c64.188,0,116.409,52.221,116.409,116.409v227.275c0,5.4,2.622,10.464,7.031,13.58l80.409,56.834
			c5.854,4.136,13.7,4.059,19.471-0.197c12.383-9.138,26.128,0.667,26.128,12.933C454.55,470.272,447.09,477.732,437.921,477.732z"
			/>
	</g>
</g>
<g>
	<g>
		<path d="M426.834,1.009c-9.184,0-16.63,7.446-16.63,16.63v16.63h-16.63c-9.184,0-16.63,7.446-16.63,16.63v33.26
			c0,9.184,7.446,16.63,16.63,16.63c9.184,0,16.63-7.446,16.63-16.63v-16.63h16.63c9.184,0,16.63-7.446,16.63-16.63v-33.26
			C443.464,8.454,436.018,1.009,426.834,1.009z"/>
	</g>
</g>
<g>
	<g>
		<path d="M507.13,93.9c-6.493-6.495-17.023-6.495-23.518,0l-11.76,11.758L460.094,93.9c-6.493-6.495-17.023-6.493-23.518,0
			l-23.519,23.518c-6.493,6.495-6.495,17.023,0,23.518c6.492,6.493,17.022,6.495,23.518,0l11.76-11.76l11.76,11.76
			c6.493,6.495,17.023,6.496,23.518,0l23.518-23.518C513.624,110.923,513.624,100.394,507.13,93.9z"/>
	</g>
</g>
<g>
	<g>
		<path d="M493.353,200.567h-16.63v-16.63c0-9.184-7.446-16.63-16.63-16.63h-33.26c-9.184,0-16.63,7.446-16.63,16.63
			c0,9.184,7.446,16.63,16.63,16.63h16.63v16.63c0,9.184,7.446,16.63,16.63,16.63h33.26c9.184,0,16.63-7.446,16.63-16.63
			C509.983,208.013,502.538,200.567,493.353,200.567z"/>
	</g>
</g>
<g>
	<g>
		<path d="M305.553,411.213h-33.26c-9.184,0-16.63,7.446-16.63,16.63c0,9.184,7.446,16.63,16.63,16.63h33.26
			c9.184,0,16.63-7.446,16.63-16.63C322.183,418.658,314.737,411.213,305.553,411.213z"/>
	</g>
</g>
<g>
</g>
<g>
</g>
<g>
</g>
<g>
</g>
<g>
</g>
<g>
</g>
<g>
</g>
<g>
</g>
<g>
</g>
<g>
</g>
<g>
</g>
<g>
</g>
<g>
</g>
<g>
</g>
<g>
</g>
</svg>
