<?xml version="1.0" encoding="iso-8859-1"?>
<!-- Generator: Adobe Illustrator 16.0.0, SVG Export Plug-In . SVG Version: 6.00 Build 0)  -->
<!DOCTYPE svg PUBLIC "-//W3C//DTD SVG 1.1//EN" "http://www.w3.org/Graphics/SVG/1.1/DTD/svg11.dtd">
<svg xmlns="http://www.w3.org/2000/svg" xmlns:xlink="http://www.w3.org/1999/xlink" version="1.1" x="0px" y="0px" width="512" height="512" viewBox="0 0 47.514 57.692" style="enable-background:new 0 0 47.514 57.692;" xml:space="preserve">
<g id="_x30_7_x5F_rhinitis">
	<g>
		<g>
			<path style="fill:rgb(0,0,0);" d="M24.857,57.692C12.08,57.692,0,44.388,0,30.316C0,14.751,8.637,2.737,21.493,0.421     c1-0.184,1.964,0.486,2.144,1.49c0.182,1.003-0.485,1.963-1.489,2.144C10.937,6.074,3.691,16.383,3.691,30.316     C3.691,42.49,13.978,54,24.857,54c1.762,0,4.076-0.283,5.102-1.632c1.031-1.355,0.68-3.688,0.203-5.407     c-0.084-0.303-0.089-0.623-0.015-0.929l1.039-4.278h-9.266c-1.02,0-1.846-0.826-1.846-1.846c0-1.496,5.662-8.504,11.445-8.764     L30.979,25c-0.078-0.892,0.495-1.711,1.359-1.944c3.47-0.936,7.336-3.024,7.336-4.526c0-0.909-0.866-1.567-3.156-3.082     c-3.17-2.096-7.96-5.265-11.854-12.75c-0.471-0.905-0.119-2.019,0.786-2.49c0.905-0.471,2.02-0.118,2.489,0.786     c3.452,6.637,7.593,9.375,10.615,11.375c2.581,1.708,4.811,3.182,4.811,6.161c0,4.199-5.614,6.642-8.577,7.638l0.585,6.653     c0.046,0.516-0.128,1.026-0.478,1.409c-0.35,0.381-0.844,0.599-1.361,0.599H31.85c-2.064,0-4.325,1.64-5.982,3.232h7.668     c0.566,0,1.102,0.261,1.451,0.705c0.351,0.445,0.477,1.026,0.343,1.577l-1.483,6.105c0.865,3.447,0.548,6.188-0.947,8.154     C31.34,56.652,28.634,57.692,24.857,57.692z"/>
		</g>
		<g>
			<path style="fill:rgb(0,0,0);" d="M41.68,43.568c-2.611,0-4.724-1.706-5.381-4.346c-0.595-2.389,0.19-5.698,1.021-9.201     c0.235-0.989,0.474-1.994,0.682-2.985c0.146-0.692,0.674-1.241,1.36-1.412c0.688-0.17,1.411,0.066,1.864,0.609     c3.211,3.853,5.433,7.587,6.095,10.243c0.797,3.205-0.942,6.107-4.135,6.902C42.685,43.505,42.178,43.568,41.68,43.568z      M40.73,31.645c-0.628,2.668-1.193,5.302-0.85,6.686c0.303,1.213,1.229,1.761,2.414,1.467c1.207-0.301,1.747-1.209,1.443-2.428     C43.375,35.908,42.3,33.881,40.73,31.645z"/>
		</g>
	</g>
</g>

</svg>