<svg id="Capa_1" enable-background="new 0 0 514.496 514.496" height="512" viewBox="0 0 514.496 514.496" width="512" xmlns="http://www.w3.org/2000/svg"><g><path d="m499.496 134.747h-46.785c-12.291-14.018-46.445-44.998-108.217-44.998h-146.994c-8.195 0-14.873 6.576-14.998 14.769-.02 1.246-.213 27.844 16.406 50.229h-153.906c-24.814 0-45 20.187-45 45s20.186 45 45 45h60.078c-1.664 4.694-2.57 9.743-2.57 15 0 11.514 4.348 22.033 11.486 30-7.139 7.967-11.486 18.485-11.486 30 0 24.003 18.891 43.677 42.586 44.936-1.68 4.712-2.594 9.783-2.594 15.064 0 24.813 20.188 45 45 45h190.998c40.693 0 64.197-19.333 74.068-30.002h46.928c8.283 0 15-6.716 15-15v-229.998c0-8.284-6.717-15-15-15zm-15 229.998h-38.992c-5.078 0-9.811 2.568-12.576 6.824-.15.232-16.139 23.178-54.428 23.178h-190.998c-8.272 0-15-6.729-15-15s6.728-15 15-15h20.002c8.285 0 15-6.716 15-15s-6.715-15-15-15h-59.994c-8.271 0-15-6.729-15-15s6.729-15 15-15h59.051c8.283 0 15-6.716 15-15s-6.717-15-15-15h-59.051c-8.271 0-15-6.729-15-15s6.729-15 15-15h59.051c8.283 0 15-6.716 15-15s-6.717-15-15-15h-161.559c-8.271 0-15-6.729-15-15s6.729-15 15-15h244.49c8.283 0 15-6.716 15-15s-6.717-15-15-15h-23.99c-16.789 0-29.785-4.501-38.631-13.378-6.535-6.557-10.098-14.7-12.041-21.62h129.664c60.895 0 87.039 36.183 88.555 38.358 2.766 4.253 7.377 6.64 12.455 6.64h38.992z"/><path d="m57.342 311.22c-2.801-4.055-7.414-6.475-12.342-6.475s-9.541 2.42-12.342 6.475c-.32.463-7.924 11.498-15.633 24.786-15.259 26.307-17.025 37.563-17.025 43.741 0 24.813 20.188 45 45 45 24.814 0 45-20.187 45-45 0-6.178-1.764-17.434-17.025-43.741-7.707-13.288-15.313-24.323-15.633-24.786zm-12.342 83.527c-8.271 0-15-6.729-15-14.983.123-4.585 6.361-17.656 15-32.213 8.641 14.556 14.879 27.623 15 32.195 0 8.272-6.729 15.001-15 15.001z"/></g></svg>