<svg id="Capa_1" enable-background="new 0 0 512 512" height="512" viewBox="0 0 512 512" width="512" xmlns="http://www.w3.org/2000/svg"><g><path d="m463.734 136.692c1.07-6.451 1.61-12.999 1.61-19.571.001-64.581-51.699-117.121-115.248-117.121-35.019 0-67.51 15.869-89.288 43.043-14.102-6.033-29.348-9.181-44.768-9.181-26.577 0-52.512 9.416-73.029 26.515-17.115 14.263-29.854 33.32-36.628 54.524-59.484 4.988-106.383 55.78-106.383 117.495v95.557c0 51.589 30.619 97.788 77.235 118.164v50.883c0 5.851 3.401 11.166 8.712 13.619 2.01.928 4.154 1.381 6.285 1.381 3.5 0 6.964-1.225 9.731-3.583l60.444-51.509h220.638c71.106 0 128.955-57.848 128.955-128.955v-95.558c0-37.95-18.254-73.688-48.266-95.703zm18.266 191.261c0 54.565-44.391 98.955-98.954 98.955h-226.162c-3.566 0-7.015 1.271-9.729 3.583l-39.919 34.019v-28.65c0-6.423-4.089-12.132-10.169-14.201-40.115-13.646-67.067-51.304-67.067-93.706v-95.558c0-48.466 38.584-87.896 86.011-87.896h2.009c7.095 0 13.219-4.971 14.679-11.914 4.037-19.204 14.52-36.663 29.518-49.162 15.136-12.613 34.25-19.561 53.823-19.561 14.742 0 29.268 3.906 42.009 11.297 6.991 4.057 15.936 1.843 20.232-5 15.782-25.146 42.629-40.159 71.815-40.159 47.007 0 85.249 39.082 85.249 87.121 0 7.658-.978 15.268-2.904 22.615-1.695 6.462 1.088 13.267 6.825 16.689 26.359 15.721 42.734 44.832 42.734 75.971z"/><path d="m346.428 154.474c-2.847-3.206-6.929-5.04-11.216-5.04s-8.369 1.834-11.216 5.04c-.366.413-7.185 8.115-15.538 18.984-23.981-34.507-48.313-62.414-49.506-63.778-2.848-3.255-6.963-5.122-11.288-5.122s-8.44 1.867-11.288 5.122c-.974 1.112-24.118 27.637-47.628 61.092-33.221 47.274-49.37 82.496-49.37 107.677 0 60.474 48.577 109.672 108.286 109.672 54.108 0 99.134-40.037 107.048-93.046 23.206-8.089 39.91-30.176 39.91-56.105 0-4.979 0-20.131-24.992-55.175-11.437-16.036-22.728-28.787-23.202-29.321zm-98.764 203.646c-43.167 0-78.286-35.74-78.286-79.672 0-30.425 44.137-94.207 78.228-135.622 10.676 13.051 27.316 34.218 42.556 57.059-14.345 23.769-14.36 34.946-14.36 39.083 0 28.84 20.66 52.936 47.955 58.29-8.299 35.114-39.288 60.862-76.093 60.862zm87.548-89.742c-16.216 0-29.409-13.193-29.409-29.409 0-1.75.929-11.784 19.271-37.551 3.503-4.922 7.031-9.551 10.183-13.54 15.63 19.827 29.365 41.984 29.365 51.091 0 16.216-13.193 29.409-29.41 29.409z"/></g></svg>