<svg id="Capa_1" data-name="Capa 1" xmlns="http://www.w3.org/2000/svg" viewBox="0 0 600 600"><title>señales</title><path d="M300,594.5A294.5,294.5,0,0,1,91.76,91.76,294.5,294.5,0,1,1,508.24,508.24,292.54,292.54,0,0,1,300,594.5Zm0-573C146.43,21.5,21.5,146.43,21.5,300S146.43,578.5,300,578.5,578.5,453.57,578.5,300,453.57,21.5,300,21.5Z"/><path d="M388.05,121.31a90.78,90.78,0,0,0-84,56.49,103,103,0,0,0-30.27-4.53h-142a10.47,10.47,0,0,0-10.47,10.47v146.4a10.47,10.47,0,0,0,10.47,10.47H165.5a306.82,306.82,0,0,0,72-8.56c-6.9,24-12,68.59,7.64,139a10.48,10.48,0,0,0,10.09,7.65H366.36a10.47,10.47,0,0,0,10.47-10.47V301.82a92.35,92.35,0,0,0,11.22.69,90.6,90.6,0,1,0,0-181.2ZM355.89,457.75H263.24C255.75,428.9,248.93,389.9,254,355c2.79-19.42,8.19-29.71,9.67-32.24l16.2-16.21A10.47,10.47,0,0,0,265,291.74l-15.2,15.2a285.5,285.5,0,0,1-84.32,12.73H142.25V194.21H273.81A81.69,81.69,0,0,1,298.47,198a90.7,90.7,0,0,0,57.42,98.61V457.75Zm32.16-176.18a69.66,69.66,0,1,1,69.7-69.66,69.75,69.75,0,0,1-69.7,69.66Z"/><path d="M410.74,212.91l-19.19-11.07,19.19-11.07a10.47,10.47,0,0,0-10.47-18.14l-34.91,20.14a10.47,10.47,0,0,0,0,18.14L384.55,222l-19.19,11.07a10.47,10.47,0,1,0,10.46,18.14l34.92-20.14a10.47,10.47,0,0,0,0-18.14Z"/><path d="M292,332.2a10.46,10.46,0,0,0-4.9,14,107.86,107.86,0,0,1,10.57,46.4v30.28a10.47,10.47,0,1,0,20.94,0V392.57a128.77,128.77,0,0,0-12.64-55.47,10.47,10.47,0,0,0-14-4.9Z"/></svg>