<?xml version="1.0" encoding="utf-8"?>
<!-- Generator: Adobe Illustrator 24.0.2, SVG Export Plug-In . SVG Version: 6.00 Build 0)  -->
<svg version="1.1" id="Capa_1" xmlns="http://www.w3.org/2000/svg" xmlns:xlink="http://www.w3.org/1999/xlink" x="0px" y="0px"
	 viewBox="0 0 600 600" style="enable-background:new 0 0 600 600;" xml:space="preserve">
<g>
	<path d="M264.85,116.36c32.08,0,58.18-26.1,58.18-58.18S296.93,0,264.85,0s-58.18,26.1-58.18,58.18
		C206.67,90.26,232.77,116.36,264.85,116.36z M264.85,32.45c14.19,0,25.73,11.54,25.73,25.73s-11.54,25.73-25.73,25.73
		s-25.73-11.54-25.73-25.73C239.12,43.99,250.66,32.45,264.85,32.45z"/>
	<path d="M435.7,267.55h-4.51v-21.1c0-8.96-7.26-16.22-16.22-16.22s-16.22,7.26-16.22,16.22v21.1h-24.01l-42.27-88.69
		c-0.21-0.43-0.44-0.85-0.68-1.26c-2.1-26.71-24.49-47.8-51.72-47.8h-30.41c-21.61,0-40.17,13.28-47.97,32.1
		c-30.48,5.78-53.6,32.59-53.6,64.73v77.35c0,8.96,7.26,16.22,16.22,16.22h33.44v26.68c0,8.96,7.26,16.22,16.22,16.22h26.77
		l-54.53,216.71c-1.22,4.85-0.14,9.99,2.94,13.93c3.07,3.94,7.8,6.25,12.8,6.25h42.17c8.96,0,16.22-7.26,16.22-16.22l0,0
		c0-8.96-7.26-16.22-16.22-16.22h-21.36l46.72-185.65l53.9,65.12l-37.67,132.32c-0.42,1.46-0.59,2.96-0.59,4.44
		c0,3.49,1.1,6.93,3.25,9.78c3.07,4.06,7.86,6.45,12.95,6.45h40.15c8.96,0,16.22-7.26,16.22-16.22s-7.26-16.22-16.22-16.22H322.8
		l34.12-119.86c1.46-5.14,0.3-10.67-3.11-14.79l-57.77-69.79h19.68c8.96,0,16.22-7.26,16.22-16.22v-93.66l17.89,37.53
		c2.69,5.65,8.39,9.24,14.65,9.24h34.25v283.78c0,8.96,7.26,16.22,16.22,16.22s16.22-7.26,16.22-16.22V300h4.51
		c8.96,0,16.22-7.26,16.22-16.22S444.66,267.55,435.7,267.55z M230.19,330.66V181.7c0-10.72,8.73-19.45,19.45-19.45h30.41
		c10.72,0,19.45,8.73,19.45,19.45v148.96H230.19z M180.53,226.63c0-12.55,6.96-23.5,17.22-29.22v90.35h-17.22V226.63z"/>
</g>
</svg>
