<svg id="Capa_1" data-name="Capa 1" xmlns="http://www.w3.org/2000/svg" viewBox="0 0 600 600"><title>sentimiento</title><path d="M300,594.5A294.5,294.5,0,0,1,91.76,91.76,294.5,294.5,0,1,1,508.24,508.24,292.54,292.54,0,0,1,300,594.5Zm0-573C146.43,21.5,21.5,146.43,21.5,300S146.43,578.5,300,578.5,578.5,453.57,578.5,300,453.57,21.5,300,21.5Z"/><path d="M439.89,155.41c0-14.54-15.48-25.87-46-33.67A10.46,10.46,0,1,0,388.69,142c20.83,5.33,28.46,11.13,30.06,13.38-1,1.3-4.91,5.36-18.57,10a165.29,165.29,0,0,1-16.92,4.7,96,96,0,0,0-15.64-20.62,94.82,94.82,0,0,0-67.1-28.09h-1a95.65,95.65,0,0,0-82.72,48.71C191.93,164.5,183,158,181.23,155.42c1.55-2.23,9.15-8.06,30.08-13.41a10.46,10.46,0,1,0-5.19-20.27c-30.53,7.8-46,19.13-46,33.67,0,15,16.27,26.47,48.38,34.27a95.78,95.78,0,0,0-3.88,27v40.52a94,94,0,0,0,52.26,84.12,100.15,100.15,0,0,1-8.54,23.15l-42.55,10.13c-.25.06-.51.13-.76.21a52,52,0,0,0-36.31,49.72v43.55a10.46,10.46,0,0,0,10.46,10.46H420.83a10.46,10.46,0,0,0,10.46-10.46V424.58A52,52,0,0,0,395,374.86c-.25-.08-.51-.15-.76-.21l-42.56-10.13a100.12,100.12,0,0,1-8.53-23.15,94,94,0,0,0,52.26-84.12V216.73a95.78,95.78,0,0,0-3.88-27,166.92,166.92,0,0,0,19.38-5.87c19.24-7.28,29-16.84,29-28.4ZM189.64,424.58A31.16,31.16,0,0,1,211,394.91l39.27-9.34a60.42,60.42,0,0,0,39.23,24.93v47.16h-99.9Zm220.72,0v33.08h-99.9V410.5a60.39,60.39,0,0,0,39.23-24.93L389,394.91A31.16,31.16,0,0,1,410.36,424.58Zm-77.68-51.21a39.78,39.78,0,0,1-65.36,0,121.15,121.15,0,0,0,9.34-24.81,94.19,94.19,0,0,0,21.91,2.58h2.86a93.66,93.66,0,0,0,21.91-2.59A121,121,0,0,0,332.68,373.37Zm-31.25-43.16h-2.86a73.08,73.08,0,0,1-73-73V241.51h50.89a10.45,10.45,0,0,0,9.06-5.23L300,211.15l14.51,25.13a10.45,10.45,0,0,0,9.06,5.23h50.89v15.74a73.08,73.08,0,0,1-73,73Zm73-113.48v3.85H329.61L309.06,185a10.46,10.46,0,0,0-18.12,0l-20.55,35.59H225.54v-3.85a74.59,74.59,0,0,1,74-74.39h.82A74.49,74.49,0,0,1,361,174.15c-3.95.56-8,1.08-12.22,1.53a10.47,10.47,0,0,0,1.11,20.87,11,11,0,0,0,1.14-.06q10.37-1.12,19.81-2.67a73.61,73.61,0,0,1,3.63,22.91Z"/></svg>