<svg id="Capa_1" data-name="Capa 1" xmlns="http://www.w3.org/2000/svg" viewBox="0 0 600 600"><title>sin_forma</title><path d="M505.38,309.15c21.11.23,43.64-9,58.74-24a86.39,86.39,0,0,0-.14-122c-30.18-30.18-75-32.74-114.19-6.54-8.84,5.9-19.17,5.88-25.11-.06-1.85-1.85-7.46-7.45-3.32-24.82,4.24-17.79,1.67-37.42-7.44-56.77-8.19-17.4-19.68-30.83-27.88-39A121.71,121.71,0,0,0,299.61,0h-.18a121.07,121.07,0,0,0-86.21,35.64c-28.74,28.74-41.55,67.77-34.28,104.4a16.12,16.12,0,0,1-4.08,14.25c-5.38,5.38-14.56,5.86-26.54,1.38-9.93-3.72-40.13-15-61.91,6.78a52.86,52.86,0,0,0-14.87,41.27,46.25,46.25,0,0,0,17,32,95.71,95.71,0,0,0,20.06,12l2.44,1.17c6.51,3.17,11.22,5.46,16.65,10.55a47.35,47.35,0,0,1,15.13,34.05A45,45,0,0,1,130,325.9c-7.4,7.39-15.92,11.64-27.64,13.8q-3.63.66-7.32,1.29c-19.58,3.37-41.77,7.19-59.13,24.55a86.33,86.33,0,0,0,.14,122,86.91,86.91,0,0,0,60.34,25.72,82.64,82.64,0,0,0,60.27-24.18l1-1c3.82-4,10.18-10.86,13.21-14.44,1.62-1.92,3.35-3.8,5.12-5.57,17.11-17.11,38.69-24.92,57.73-20.9,11.82,2.5,28,10.85,37.92,36.56l.4,1c9.52,24.66,22.56,58.42,43.5,79.35A121.66,121.66,0,0,0,401.88,600h.22a121.08,121.08,0,0,0,86.21-35.65c23.21-23.21,36.24-53.22,36.69-84.49.45-31.63-12-61.75-34.92-84.81l-.68-.67c-9.47-9.14-16.45-16-18.71-18.35-13.7-14.25-12.15-38.53,3.44-54.12C483,313.1,492.88,309,505.38,309.15Zm-60.05,91.2c3.51,3.67,13.83,13.67,19.58,19.23l.35.35c16.18,16.28,24.92,37.39,24.6,59.43s-9.69,43.43-26.4,60.14a86.15,86.15,0,0,1-61.36,25.35v17.58l0-17.58H402a86.7,86.7,0,0,1-61.6-25.56c-15.69-15.68-27.18-45.44-35.6-67.24l-.4-1c-12.17-31.47-34.69-52.14-63.41-58.21A83.64,83.64,0,0,0,223.66,411c-25.59,0-51.75,11.41-72.56,32.23-2.47,2.47-4.87,5.07-7.11,7.73-2.46,2.91-8.25,9.18-11.62,12.67l-.63.64A47.83,47.83,0,0,1,97,478.14a52,52,0,0,1-36.06-15.43,51.19,51.19,0,0,1-.13-72.32c9.47-9.47,24.41-12,40.24-14.77q3.89-.66,7.71-1.36c18.64-3.43,33.73-11.12,46.13-23.51a80.24,80.24,0,0,0,23.09-57.84,82.18,82.18,0,0,0-26.24-59.12c-9.3-8.73-17.8-12.86-25.3-16.51L123.66,216c-4.7-2.23-8.75-4.16-13.31-7.78a11.28,11.28,0,0,1-3.78-7.3,18.14,18.14,0,0,1,4.69-13.6c2.87-2.86,8-4.95,24.74,1.29,14.39,5.39,27.84,6.64,40,3.73a50,50,0,0,0,23.73-13.16,51.49,51.49,0,0,0,13.71-46c-5-25.1,4.23-52.29,24.65-72.71a86.16,86.16,0,0,1,61.36-25.34h.13A86.79,86.79,0,0,1,361.19,60.7a106.94,106.94,0,0,1,20.93,29.14c5.68,12.07,7.43,23.7,5.05,33.66-7.17,30.15,2.92,48.08,12.66,57.82,17.95,18,46.53,19.78,69.49,4.42,25.38-17,51.48-16.15,69.81,2.19a51.18,51.18,0,0,1,.13,72.32c-8.5,8.5-21.63,13.94-33.51,13.76-21.93-.18-41,7.56-56.47,23.05C420.25,326.08,418.5,372.43,445.33,400.35Z"/></svg>