<svg id="Capa_1" data-name="Capa 1" xmlns="http://www.w3.org/2000/svg" viewBox="0 0 600 600"><title>stress</title><path d="M141.8,582.39v0A17.58,17.58,0,0,0,159.37,600H335.16a17.57,17.57,0,0,0,17.57-17.58,52.79,52.79,0,0,1,52.74-52.73h70.29a17.59,17.59,0,0,0,17.58-17.58V421.87a52.81,52.81,0,0,1,52.75-52.73,17.57,17.57,0,0,0,14.59-27.38c-.6-.9-55.3-82.29-69.71-103.78,0-24.38,0-37.74,0-37.74a17.16,17.16,0,0,0-.15-2.26C477.55,95.74,393.72,13.11,291.5,1.52,153.84-14.1,36.33,93.09,36.33,228.52a227.72,227.72,0,0,0,38,126.24C117.84,420.34,141.8,501.18,141.8,582.39ZM287.53,36.45c86,9.76,156.63,79,168.32,165,0,4.05,0,18.58,0,41.9a17.57,17.57,0,0,0,3,9.76c4.52,6.77,37.77,56.3,57.75,86A88.22,88.22,0,0,0,460,404.4c-25.25.87-69.68,6.57-102.32,40.43A17.58,17.58,0,0,0,383,469.23c22.44-23.29,54.68-28.45,75.25-29.54v54.84H405.47a88,88,0,0,0-86.13,70.31H176.61c-3.21-82.09-28.84-163-73-229.52A192.62,192.62,0,0,1,71.48,228.51C71.48,116.46,168.28,22.92,287.53,36.45Z"/><path d="M194.51,281.25h34.2L213,328.43a17.57,17.57,0,0,0,16.67,23.13h45.93l-27.45,82.33A17.58,17.58,0,1,0,281.49,445l35.16-105.47A17.56,17.56,0,0,0,300,316.41H254.05l11.72-35.16h69.36a70.32,70.32,0,1,0,0-140.63h-1.76a87.9,87.9,0,0,0-173.65,9.44,70.17,70.17,0,0,0,34.79,131.19ZM183,177.93a17.58,17.58,0,0,0,11.78-17.37,29.87,29.87,0,0,0-.3-3A52.74,52.74,0,0,1,300,158.2a17.58,17.58,0,0,0,17.57,17.58h17.58a35.16,35.16,0,1,1,0,70.31H277.49l4-12A17.58,17.58,0,1,0,248.14,223l-7.71,23.14H194.51A35,35,0,0,1,183,177.93Z"/></svg>