<svg id="Capa_1" enable-background="new 0 0 511.999 511.999" height="512" viewBox="0 0 511.999 511.999" width="512" xmlns="http://www.w3.org/2000/svg"><g><path d="m414.159 332.589c-.011-.004-.021-.008-.032-.012l-85.207-31.76v-50.521c17.898-18.365 28.943-43.438 28.943-71.046v-17.348c17.459-6.192 30-22.865 30-42.42 0-25.811-20.938-54.341-30-65.482v-39c0-8.284-6.716-15-15-15h-130.295c-32.219 0-58.43 26.212-58.43 58.431v119.787c-9.145 11.057-30 39.163-30 65.561 0 24.813 20.187 45 45 45 4.866 0 9.549-.786 13.941-2.221v14.259l-85.207 31.76c-.011.004-.022.008-.033.012-21.22 7.927-37.838 31.87-37.838 54.521v109.889c0 8.284 6.716 15 15 15h361.996c8.284 0 15-6.716 15-15v-109.889c0-22.651-16.618-46.593-37.838-54.521zm-56.296-213.109c0 8.271-6.728 15-15 15-8.271 0-15-6.729-15-15 0-10.259 7.16-24.13 14.92-35.528 7.832 11.571 15.08 25.542 15.08 35.528zm-173.725-61.049c0-15.677 12.753-28.431 28.43-28.431h115.295v23.918c-5.646 6.827-15.745 20.145-22.658 35.562h-121.067zm0 61.049h113.725c0 19.555 12.541 36.228 30 42.42v17.348c0 39.625-32.237 71.862-71.863 71.862-15.243 0-30.041-4.872-42.289-13.811-2.984-23.956-21.263-48.789-29.572-59.004v-58.815zm114.781 152.134v32.467l-42.92 34.769-42.92-34.769v-32.496c13.35 6.216 27.981 9.526 42.92 9.526 15.327 0 29.87-3.408 42.92-9.497zm-129.781-12.835c-8.271 0-15-6.729-15-15 0-10.259 7.16-24.13 14.92-35.528 7.832 11.571 15.08 25.541 15.08 35.528 0 8.271-6.729 15-15 15zm252.859 223.22h-331.995v-94.889c0-10.246 8.742-22.837 18.342-26.42.002-.001.005-.001.008-.003l86.942-32.407 51.264 41.529c2.753 2.23 6.098 3.345 9.442 3.345 3.345 0 6.689-1.115 9.442-3.345l51.265-41.528 86.941 32.407c.001 0 .002.001.003.001 9.602 3.58 18.347 16.173 18.347 26.421v94.889z"/><path d="m75.002 115.554h20.001c8.284 0 15-6.716 15-15s-6.716-15-15-15h-20.001c-8.284 0-15 6.716-15 15s6.715 15 15 15z"/><path d="m98.529 139.949-10.001 10.001c-5.858 5.858-5.858 15.355 0 21.213 2.929 2.929 6.768 4.394 10.607 4.394 3.838 0 7.678-1.464 10.606-4.394l10.001-10.001c5.857-5.858 5.857-15.355 0-21.213-5.858-5.858-15.356-5.858-21.213 0z"/><path d="m98.529 61.157c2.929 2.929 6.768 4.394 10.606 4.394 3.839 0 7.678-1.464 10.606-4.394 5.857-5.858 5.857-15.355 0-21.213l-10.001-10.001c-5.857-5.858-15.355-5.858-21.212 0-5.858 5.858-5.858 15.355 0 21.213z"/></g></svg>