<?xml version="1.0" encoding="utf-8"?>
<!-- Generator: Adobe Illustrator 24.0.2, SVG Export Plug-In . SVG Version: 6.00 Build 0)  -->
<svg version="1.1" id="Capa_1" xmlns="http://www.w3.org/2000/svg" xmlns:xlink="http://www.w3.org/1999/xlink" x="0px" y="0px"
	 viewBox="0 0 600 600" style="enable-background:new 0 0 600 600;" xml:space="preserve">
<g>
	<path d="M453.21,0H146.79c-9.71,0-17.58,7.87-17.58,17.58v70.39c0,9.71,7.87,17.58,17.58,17.58h17.61v403.18
		c0,50.33,40.95,91.27,91.27,91.27h88.63c50.33,0,91.27-40.95,91.27-91.27V105.54h17.62c9.71,0,17.58-7.87,17.58-17.58V17.58
		C470.78,7.87,462.91,0,453.21,0L453.21,0z M317.58,70.39V35.16h35.23v35.23H317.58z M247.19,70.39V35.16h35.23v35.23H247.19z
		 M164.37,35.16h47.66v35.23h-47.66V35.16z M400.43,245.04h-41.43c-9.71,0-17.58,7.87-17.58,17.58c0,9.71,7.87,17.58,17.58,17.58
		h41.43v35.23h-6.23c-9.71,0-17.58,7.87-17.58,17.58s7.87,17.58,17.58,17.58h6.23v108.68h-82.86V209.81h82.86V245.04z
		 M400.43,174.65H300c-9.71,0-17.58,7.87-17.58,17.58v284.61c0,9.71,7.87,17.58,17.58,17.58h100.43v14.31
		c0,30.94-25.17,56.12-56.12,56.12h-88.63c-30.94,0-56.12-25.17-56.12-56.12V105.54h200.87V174.65z M435.63,70.39h-47.66V35.16
		h47.66V70.39z"/>
</g>
</svg>
