<?xml version="1.0" encoding="utf-8"?>
<!-- Generator: Adobe Illustrator 24.0.2, SVG Export Plug-In . SVG Version: 6.00 Build 0)  -->
<svg version="1.1" id="Capa_1" xmlns="http://www.w3.org/2000/svg" xmlns:xlink="http://www.w3.org/1999/xlink" x="0px" y="0px"
	 viewBox="0 0 600 600" style="enable-background:new 0 0 600 600;" xml:space="preserve">
<g>
	<g>
		<path d="M477.78,238.14c-4.3-6.78-11.77-10.88-19.79-10.88H327.91V23.44c0-10.97-7.61-20.48-18.32-22.87
			c-10.71-2.39-21.64,2.96-26.32,12.88L129.75,339.32c-3.42,7.26-2.89,15.77,1.41,22.54c4.3,6.78,11.77,10.88,19.79,10.88h130.08
			v203.82c0,10.97,7.61,20.48,18.32,22.87c10.78,2.41,21.67-3.02,26.32-12.88l153.52-325.86
			C482.61,253.42,482.08,244.92,477.78,238.14z M327.91,471.82V349.3c0-12.94-10.49-23.44-23.44-23.44H187.91l93.13-197.68v122.51
			c0,12.94,10.49,23.44,23.44,23.44h116.57L327.91,471.82z"/>
	</g>
</g>
</svg>
