<svg id="Capa_1" data-name="Capa 1" xmlns="http://www.w3.org/2000/svg" viewBox="0 0 600 600"><title>telefono</title><path d="M584.56,442.54,510,368a52.81,52.81,0,0,0-74.59,0l-33.91,33.9a40,40,0,0,1-56.5,0L198,254.78a39.93,39.93,0,0,1,0-56.51l33.9-33.9a52.71,52.71,0,0,0,0-74.61L157.34,15.43a52.78,52.78,0,0,0-74.53,0L55.63,42.32c-74.16,74.15-74.16,194.81,0,269l232.84,233a190.08,190.08,0,0,0,269,0l27.12-27.12A52.79,52.79,0,0,0,584.56,442.54ZM107.62,40.29a17.61,17.61,0,0,1,24.88,0l74.57,74.33a17.58,17.58,0,0,1,0,24.87l-12.43,12.43L95.25,52.55Zm205.72,479.1-232.85-233a154.58,154.58,0,0,1-9.7-208.6l99.1,99.1a75,75,0,0,0,3.27,102.72l147,147.07h0A75,75,0,0,0,422.83,430l99.11,99.1A154.27,154.27,0,0,1,313.34,519.39ZM559.7,492.26,547.27,504.7l-99.45-99.46,12.43-12.43a17.61,17.61,0,0,1,24.86,0L559.7,467.4A17.59,17.59,0,0,1,559.7,492.26Z"/></svg>