<?xml version="1.0" encoding="utf-8"?>
<!-- Generator: Adobe Illustrator 24.0.2, SVG Export Plug-In . SVG Version: 6.00 Build 0)  -->
<svg version="1.1" id="Capa_1" xmlns="http://www.w3.org/2000/svg" xmlns:xlink="http://www.w3.org/1999/xlink" x="0px" y="0px"
	 viewBox="0 0 600 600" style="enable-background:new 0 0 600 600;" xml:space="preserve">
<g>
	<ellipse transform="matrix(0.8422 -0.5391 0.5391 0.8422 -53.033 151.7866)" cx="232.81" cy="166.5" rx="25.54" ry="25.54"/>
	<path d="M422.44,441.54c-14.08-0.88-26.21,9.83-27.08,23.91c-0.88,14.08,9.83,26.21,23.91,27.08c14.08,0.88,26.21-9.83,27.08-23.91
		C447.23,454.54,436.52,442.42,422.44,441.54L422.44,441.54z"/>
	<path d="M195.15,309.98c-14.08-0.88-26.21,9.83-27.08,23.91c-0.88,14.08,9.83,26.21,23.91,27.08c14.08,0.88,26.21-9.83,27.08-23.91
		C219.94,322.98,209.23,310.85,195.15,309.98L195.15,309.98z"/>
	<path d="M398.07,158.05c0.88-14.08-9.83-26.21-23.91-27.08c-14.08-0.88-26.21,9.83-27.08,23.91c-0.88,14.08,9.83,26.21,23.91,27.08
		C385.07,182.84,397.19,172.13,398.07,158.05z"/>
	<path d="M407.83,351.68c0.88-14.08-9.83-26.21-23.91-27.08s-26.21,9.83-27.08,23.91c-0.88,14.08,9.83,26.21,23.91,27.08
		C394.83,376.46,406.95,365.76,407.83,351.68L407.83,351.68z"/>
	<path d="M294.73,235.4c-14.08-0.88-26.21,9.83-27.08,23.91c-0.88,14.08,9.83,26.21,23.91,27.08c14.08,0.88,26.21-9.83,27.08-23.91
		C319.51,248.4,308.81,236.28,294.73,235.4L294.73,235.4z"/>
	<path d="M270.45,438.06c-14.08-0.88-26.21,9.83-27.08,23.91c-0.88,14.08,9.83,26.21,23.91,27.08c14.08,0.88,26.21-9.83,27.08-23.91
		C295.24,451.06,284.53,438.94,270.45,438.06L270.45,438.06z"/>
	<path d="M563.27,485.9c-1.06-5.43-4.62-10.05-9.6-12.46c-15.16-7.32-24.58-22.32-24.58-39.14c0-15.17,7.73-29,20.67-36.99
		c7.07-4.36,10.12-13.08,7.31-20.89c-2.8-7.82-10.7-12.61-18.93-11.48c-2.04,0.28-4.05,0.42-5.96,0.42
		c-23.95,0-43.44-19.49-43.44-43.44c0-18.22,11.5-34.63,28.62-40.85c7.79-2.83,12.54-10.7,11.42-18.91
		c-1.12-8.21-7.82-14.51-16.08-15.14c-22.47-1.72-40.07-20.73-40.07-43.29c0-21.39,15.3-39.42,36.37-42.86
		c7.89-1.29,13.92-7.74,14.67-15.7c0.75-7.96-3.97-15.42-11.48-18.16c-17.08-6.23-28.56-22.64-28.56-40.83
		c0-8.11,2.26-16.03,6.52-22.89c2.53-4.07,3.29-8.99,2.1-13.63c-1.18-4.64-4.21-8.6-8.38-10.95C439.12,13.38,388.12,0,336.4,0
		c-80.13,0-155.47,31.21-212.13,87.87C67.61,144.53,36.4,219.87,36.4,300s31.21,155.47,87.87,212.13
		C180.93,568.8,256.27,600,336.4,600c43.18,0,84.86-8.98,123.88-26.7c37.69-17.11,70.92-41.42,98.78-72.25
		C562.77,496.95,564.33,491.33,563.27,485.9L563.27,485.9z M336.4,564.84C190.37,564.84,71.56,446.04,71.56,300
		S190.37,35.16,336.4,35.16c40.27,0,80.02,9.18,115.94,26.67c-2.55,7.82-3.86,16.03-3.86,24.35c0,20.39,7.97,39.54,21.4,53.85
		c-19.85,14.34-32.4,37.64-32.4,63.7c0,27.37,14.32,51.86,36.02,65.96c-12.52,14.11-19.91,32.59-19.91,52.22
		c0,33.48,21.04,62.14,50.6,73.44c-6.63,11.63-10.25,24.97-10.25,38.94c0,22,9.4,42.83,25.08,57.51
		C469.98,538.44,404.48,564.84,336.4,564.84L336.4,564.84z"/>
</g>
</svg>
