<?xml version="1.0" encoding="utf-8"?>
<!-- Generator: Adobe Illustrator 24.0.2, SVG Export Plug-In . SVG Version: 6.00 Build 0)  -->
<svg version="1.1" id="Capa_1" xmlns="http://www.w3.org/2000/svg" xmlns:xlink="http://www.w3.org/1999/xlink" x="0px" y="0px"
	 viewBox="0 0 600 600" style="enable-background:new 0 0 600 600;" xml:space="preserve">
<g>
	<path d="M300,0C134.58,0,0,134.58,0,300s134.58,300,300,300s300-134.58,300-300S465.42,0,300,0z M300,564.84
		C153.96,564.84,35.16,446.04,35.16,300S153.96,35.16,300,35.16S564.84,153.96,564.84,300S446.04,564.84,300,564.84z"/>
	<path d="M200.83,290.04c33.28,0,60.35-27.07,60.35-60.35s-27.07-60.35-60.35-60.35s-60.35,27.07-60.35,60.35
		S167.55,290.04,200.83,290.04z M200.83,204.49c13.89,0,25.2,11.3,25.2,25.2s-11.3,25.2-25.2,25.2s-25.2-11.3-25.2-25.2
		S186.93,204.49,200.83,204.49z"/>
	<path d="M399.18,169.34c-33.28,0-60.35,27.07-60.35,60.35s27.07,60.35,60.35,60.35s60.35-27.07,60.35-60.35
		S432.45,169.34,399.18,169.34z M399.18,254.88c-13.89,0-25.2-11.3-25.2-25.2s11.3-25.2,25.2-25.2c13.89,0,25.2,11.3,25.2,25.2
		S413.07,254.88,399.18,254.88z"/>
	<path d="M299.92,352.73c-26.84,0-52.85,7.63-75.22,21.81c-5.66-15.13-14.72-28.46-19.57-35c-9.49-12.8-28.06-34.27-45.76-34.27
		s-36.26,21.47-45.76,34.27c-7.38,9.95-24.55,35.67-24.55,59.48c0,38.77,31.54,70.31,70.31,70.31c32.77,0,60.37-22.53,68.13-52.92
		c0.62-0.43,1.23-0.89,1.81-1.41c19.41-17.49,44.49-27.12,70.61-27.12c36.97,0,71.68,19.73,90.6,51.48
		c3.29,5.52,9.13,8.58,15.12,8.58c3.06,0,6.16-0.8,8.98-2.48c8.34-4.97,11.07-15.76,6.1-24.1
		C395.5,379.04,349.21,352.73,299.92,352.73L299.92,352.73z M159.38,434.18c-19.39,0-35.16-15.77-35.16-35.16
		c0-8.19,5.81-21.65,15.18-35.12c7.87-11.32,15.58-18.85,19.98-22.15c4.39,3.3,12.11,10.84,19.98,22.15
		c9.36,13.47,15.18,26.92,15.18,35.12C194.53,418.41,178.76,434.18,159.38,434.18z"/>
</g>
</svg>
