<svg id="Capa_1" enable-background="new 0 0 512 512" height="512" viewBox="0 0 512 512" width="512" xmlns="http://www.w3.org/2000/svg"><g><path d="m26.5 0v76c0 57.897 47.103 105 105 105 8.271 0 15 6.729 15 15v120c0 8.271-6.729 15-15 15-57.897 0-105 47.103-105 105v76h90v-76c0-8.271 6.729-15 15-15h29.723c5.193 0 9.96 2.073 12.44 5.411 25.775 34.692 65.08 54.589 107.837 54.589 74.439 0 135-60.561 135-135v-180c0-74.439-60.561-135-135-135-42.757 0-82.063 19.897-107.838 54.59-2.479 3.337-7.246 5.41-12.439 5.41h-29.723c-8.271 0-15-6.729-15-15v-76zm105 121h29.723c14.719 0 28.371-6.549 36.521-17.519 20.058-26.997 50.586-42.481 83.756-42.481 57.897 0 105 47.103 105 105v180c0 57.897-47.103 105-105 105-33.17 0-63.698-15.484-83.756-42.48-8.15-10.97-21.803-17.52-36.521-17.52h-29.723c-24.813 0-45 20.187-45 45v46h-30v-46c0-41.355 33.645-75 75-75 24.813 0 45-20.187 45-45v-120c0-24.813-20.187-45-45-45-41.355 0-75-33.645-75-75v-46h30v46c0 24.813 20.187 45 45 45z"/><path d="m50.5 277.213 30-30 19.394 19.393 21.212-21.212-40.606-40.607-30 30-19.394-19.393-21.212 21.212z"/><path d="m461.5 502.213 40.606-40.607-21.212-21.212-19.394 19.393-30-30-40.606 40.607 21.212 21.212 19.394-19.393z"/><path d="m461.5 39.787-30-30-40.606 40.607 21.212 21.212 19.394-19.393 30 30 40.606-40.607-21.212-21.212z"/><path d="m266.5 331h30v30h-30z"/><path d="m281.5 421c41.355 0 75-33.645 75-75s-33.645-75-75-75-75 33.645-75 75 33.645 75 75 75zm0-120c24.813 0 45 20.187 45 45s-20.187 45-45 45-45-20.187-45-45 20.187-45 45-45z"/></g></svg>