<svg id="Capa_1" enable-background="new 0 0 511.998 511.998" height="512" viewBox="0 0 511.998 511.998" width="512" xmlns="http://www.w3.org/2000/svg"><g><path d="m210.998 226.999c24.813 0 45-20.187 45-45s-20.187-45-45-45-45 20.186-45 45 20.186 45 45 45zm0-60c8.271 0 15 6.729 15 15s-6.729 15-15 15-15-6.729-15-15 6.729-15 15-15z"/><path d="m346 318.999c0-24.814-20.186-45-45-45s-45 20.186-45 45 20.186 45 45 45 45-20.187 45-45zm-45 15c-8.272 0-15-6.729-15-15 0-8.272 6.728-15 15-15s15 6.728 15 15c0 8.271-6.728 15-15 15z"/><path d="m472.139 107.718c-.057-.017-.114-.032-.171-.048l-126.763-34.364-4.242-59.375c-.561-7.849-7.093-13.931-14.962-13.931h-140.004c-7.869 0-14.401 6.082-14.962 13.931l-4.242 59.375-126.763 34.364c-.041.011-.082.022-.124.034-22.386 6.136-39.906 29.081-39.906 52.293v246.991c0 8.284 6.716 15 15 15h70.796c-4.748 40.09-13.585 70.425-13.684 70.76-1.34 4.537-.461 9.439 2.369 13.228 2.832 3.789 7.286 6.021 12.017 6.021h339.002c.005-.001.01-.001.021 0 8.284 0 15-6.716 15-15 0-1.731-.294-3.395-.834-4.942-1.343-4.744-9.128-33.207-13.486-70.066h70.798c8.284 0 15-6.716 15-15v-246.992c-.001-23.196-17.496-46.124-39.86-52.279zm9.859 284.271h-58.327c-2.102-42.947 3.094-78.486 15.487-105.783 3.425-7.544.086-16.435-7.458-19.859-7.542-3.424-16.434-.086-19.858 7.457-15.83 34.868-21.607 80.089-17.168 134.407 2.48 30.357 7.644 56.897 11.529 73.787h-300.408c3.886-16.891 9.049-43.431 11.529-73.787 4.438-54.318-1.338-99.539-17.168-134.407-3.425-7.544-12.314-10.883-19.859-7.457-7.543 3.425-10.882 12.315-7.457 19.859 12.394 27.297 17.589 62.836 15.487 105.783h-58.327v-231.992c0-9.693 8.521-20.833 17.877-23.371.033-.009.066-.018.101-.027l136.943-37.124c6.155-1.669 10.583-7.047 11.037-13.408l4.006-56.067h112.07l4.006 56.066c.454 6.361 4.882 11.739 11.037 13.408l136.92 37.117c.041.012.082.023.124.034 9.356 2.538 17.877 13.678 17.877 23.371z"/><circle cx="109.999" cy="216.999" r="15"/><circle cx="198.329" cy="278.329" r="15"/><circle cx="301" cy="198.999" r="15"/><circle cx="371.999" cy="242.999" r="15"/><circle cx="168.329" cy="368.999" r="15"/><circle cx="255.999" cy="436.989" r="15"/><circle cx="338.339" cy="420.329" r="15"/></g></svg>