<svg id="Capa_1" data-name="Capa 1" xmlns="http://www.w3.org/2000/svg" viewBox="0 0 435.94 600"><title>usuario</title><path d="M300,0C205.05,0,127.8,77.25,127.8,172.2S205.05,344.39,300,344.39,472.2,267.15,472.2,172.2,395,0,300,0Zm0,297.52A125.32,125.32,0,1,1,425.32,172.2,125.46,125.46,0,0,1,300,297.52Z" transform="translate(-82.03)"/><path d="M308.63,367.22H291.37C175.94,367.22,82,461.13,82,576.56A23.42,23.42,0,0,0,105.47,600H494.53A23.43,23.43,0,0,0,518,576.56C518,461.13,424.06,367.22,308.63,367.22Zm-178,185.91c11.39-78.53,79.15-139,160.78-139h17.26c81.63,0,149.39,60.51,160.78,139Z" transform="translate(-82.03)"/></svg>