<svg id="Capa_1" data-name="Capa 1" xmlns="http://www.w3.org/2000/svg" viewBox="0 0 600 600"><title>viaje</title><path d="M512.11,246.68H410.79l-101-67.36a17.54,17.54,0,0,0-9.75-2.95H229.69A17.57,17.57,0,0,0,214,201.81l22.44,44.87H169.84L99.91,181.12a17.57,17.57,0,0,0-12-4.75H17.58A17.57,17.57,0,0,0,2,202.12l77.3,147.15a70.11,70.11,0,0,0,62.48,38h61.52l-58,77.35a17.59,17.59,0,0,0,14.07,28.12h70.31a17.54,17.54,0,0,0,11-3.85l127-101.62H547.27A52.79,52.79,0,0,0,600,334.57,88,88,0,0,0,512.11,246.68ZM294.68,211.52l52.73,35.16h-71.7l-17.58-35.16Zm-71.16,246.1h-29l79.1-105.47h81.73ZM547.27,352.15H411.64l4.81-3.85a17.58,17.58,0,0,0-11-31.31H264.84a17.59,17.59,0,0,0-14.06,7l-21.09,28.13H141.8A35.14,35.14,0,0,1,110.49,333L46.67,211.52H80.94l69.93,65.56a17.55,17.55,0,0,0,12,4.76H512.11a52.78,52.78,0,0,1,52.73,52.73A17.6,17.6,0,0,1,547.27,352.15Z"/><path d="M52.73,141.21h141.8a52.74,52.74,0,1,0,0-105.47H137.61A52.74,52.74,0,0,0,37.42,38a52.74,52.74,0,0,0,15.31,103.2Zm0-70.31A17.58,17.58,0,0,0,70.31,53.32a17.58,17.58,0,0,1,35.16,0A17.58,17.58,0,0,0,123.05,70.9h71.48a17.58,17.58,0,1,1,0,35.15H52.73a17.58,17.58,0,0,1,0-35.15Z"/><path d="M563.55,496.52c-7.08-40.75-43.48-74.06-87.77-74.06-43.16,0-78.22,31.75-86.16,71.49H335.16a52.73,52.73,0,1,0,0,105.46H547.27a52.73,52.73,0,0,0,16.28-102.89Zm-16.28,67.74H335.16a17.58,17.58,0,0,1,0-35.16h70.31a17.58,17.58,0,0,0,17.58-17.58c0-29.22,24.15-53.9,52.73-53.9,29.22,0,53.91,24.68,53.91,53.9a17.58,17.58,0,0,0,17.58,17.58,17.58,17.58,0,0,1,0,35.16Z"/></svg>