<svg id="Capa_1" data-name="Capa 1" xmlns="http://www.w3.org/2000/svg" viewBox="0 0 600 600"><title>vision</title><path d="M300,594.5A294.5,294.5,0,0,1,91.76,91.76,294.5,294.5,0,1,1,508.24,508.24,292.54,292.54,0,0,1,300,594.5Zm0-573C146.43,21.5,21.5,146.43,21.5,300S146.43,578.5,300,578.5,578.5,453.57,578.5,300,453.57,21.5,300,21.5Z"/><path d="M504.17,235.54h-30a88.69,88.69,0,0,0-130,8.53,71.3,71.3,0,0,0-88.24,0,88.69,88.69,0,0,0-130-8.53h-30a12.71,12.71,0,1,0,0,25.41h11.32a88.83,88.83,0,1,0,161.92,5.27,45.8,45.8,0,0,1,61.86,0A88.83,88.83,0,1,0,492.85,261h11.32a12.71,12.71,0,1,0,0-25.41ZM186.92,363.41A63.41,63.41,0,1,1,250.34,300,63.48,63.48,0,0,1,186.92,363.41Zm226.16,0A63.41,63.41,0,1,1,476.49,300,63.48,63.48,0,0,1,413.08,363.41Z"/></svg>