<svg id="Capa_1" data-name="Capa 1" xmlns="http://www.w3.org/2000/svg" viewBox="0 0 600 600"><title>whatsap2</title><path d="M512.13,87.87A298,298,0,0,0,300,0h0A300,300,0,0,0,37.61,445.49l-37,132.2a17.58,17.58,0,0,0,21.66,21.66l132.2-37A300,300,0,0,0,512.13,87.87ZM300,564.84a264.54,264.54,0,0,1-134.22-36.5,17.55,17.55,0,0,0-8.92-2.44,17.82,17.82,0,0,0-4.74.65L42.91,557.09,73.44,447.88a17.56,17.56,0,0,0-1.78-13.66A264.86,264.86,0,0,1,300,35.16C446,35.16,564.84,154,564.84,300S446,564.84,300,564.84Z"/><path d="M429.5,322.48a57.16,57.16,0,0,0-80.69,0l-8.15,8.15a10.84,10.84,0,0,1-15.21,0l-56.1-56.1a10.84,10.84,0,0,1,0-15.21l8.16-8.15a57.13,57.13,0,0,0,0-80.69l-16.31-16.3a57.17,57.17,0,0,0-80.68,0l-12.16,12.16c-25.7,25.7-35,64-26.27,107.76,8.24,41.21,31.8,82.92,66.34,117.46,43.52,43.52,99,69.5,148.28,69.51h0c31.08,0,57.69-10.18,76.94-29.43l12.16-12.16a57.11,57.11,0,0,0,0-80.69Zm-8.56,72.13-12.15,12.16c-12.52,12.51-30.53,19.13-52.08,19.13h0c-40.21,0-86.35-22.14-123.42-59.21-29.68-29.68-49.83-65-56.72-99.5-6.38-31.89-.47-58.88,16.65-76L205.37,179a22,22,0,0,1,31,0l16.3,16.3a21.92,21.92,0,0,1,0,31l-8.15,8.15a46,46,0,0,0,0,64.93l56.1,56.1a46,46,0,0,0,64.93,0l8.15-8.15a22,22,0,0,1,31,0l16.3,16.3a21.92,21.92,0,0,1,0,31Z"/></svg>