<?xml version="1.0" encoding="utf-8"?>
<!-- Generator: Adobe Illustrator 24.0.2, SVG Export Plug-In . SVG Version: 6.00 Build 0)  -->
<svg version="1.1" id="Capa_1" xmlns="http://www.w3.org/2000/svg" xmlns:xlink="http://www.w3.org/1999/xlink" x="0px" y="0px"
	 viewBox="0 0 600 600" style="enable-background:new 0 0 600 600;" xml:space="preserve">
<g>
	<path d="M318.03,70.31C318.03,31.54,286.49,0,247.72,0s-70.31,31.54-70.31,70.31s31.54,70.31,70.31,70.31
		S318.03,109.08,318.03,70.31z M247.72,105.46c-19.38,0-35.15-15.77-35.15-35.15s15.77-35.15,35.15-35.15s35.15,15.77,35.15,35.15
		S267.1,105.46,247.72,105.46z"/>
	<path d="M582.86,564.82h-21.78c0.36-1.01,0.7-2.04,1-3.08c8.01-28.01-8.18-57.2-36.21-65.2c-41.4-11.82-80.29-33.4-112.47-62.41
		c-10.61-9.56-16.94-22.67-17.38-35.97c-0.74-22.52-6.53-41.67-17.22-56.94c-7.6-10.85-18.04-20.15-31.03-27.64
		c-11.86-6.84-20.42-19-23.49-33.37c-2.28-10.67-3.98-22.28-5.02-34.13h156.97c29.08,0,52.73-23.66,52.73-52.73
		s-23.66-52.73-52.73-52.73c-7.97,0-413.14,0-423.03,0c-29.08,0-52.73,23.66-52.73,52.73s23.66,52.73,52.73,52.73h160.34
		c2.39,33.89,9.21,67.33,20.32,99.72l-97.6,48.8c-17.98,8.99-29.15,27.06-29.15,47.17v105.46c0,6.16,1.07,12.08,3.02,17.58H18.04
		c-9.71,0-17.58,7.87-17.58,17.58c0,9.71,7.87,17.58,17.58,17.58h564.82c9.71,0,17.58-7.87,17.58-17.58
		C600.44,572.69,592.57,564.82,582.86,564.82z M476.22,175.77c9.69,0,17.58,7.89,17.58,17.58c0,9.69-7.89,17.58-17.58,17.58h-158.2
		v-17.58c0-6.16-1.07-12.08-3.02-17.58H476.22z M177.41,463.51v83.73c0,9.69-7.89,17.58-17.58,17.58s-17.58-7.89-17.58-17.58V441.78
		c0-6.7,3.72-12.73,9.71-15.72l94.81-47.4c4.77,10.72,10.01,21.21,15.7,31.46l-75.35,37.68
		C181.17,450.76,177.41,456.85,177.41,463.51L177.41,463.51z M209.54,564.82c1.95-5.5,3.02-11.42,3.02-17.58v-72.87l68.38-34.19
		c34.45,50.91,80.55,94.04,135.83,124.64H209.54z M528.27,552.07c-2.61,9.14-12.26,14.78-21.73,12.07
		c-148.19-42.33-254.57-180.54-258.7-336.1c-0.25-9.52-8.04-17.11-17.57-17.11H53.19c-9.69,0-17.58-7.89-17.58-17.58
		s7.89-17.58,17.58-17.58h212.1c9.69,0,17.58,7.89,17.58,17.58v25.3c0,23.21,2.49,47.68,7.03,68.9
		c5.15,24.09,19.84,44.68,40.31,56.49c8.51,4.91,15.17,10.74,19.79,17.35c8.36,11.94,10.53,27.21,10.88,37.93
		c0.75,22.8,11.31,45.01,28.98,60.93c36.14,32.57,79.83,56.81,126.36,70.1C525.52,533,530.95,542.71,528.27,552.07L528.27,552.07z"
		/>
</g>
</svg>
